<svg width="370" height="321" viewBox="0 0 370 321" fill="none" xmlns="http://www.w3.org/2000/svg">
<path d="M85.12 210.56H58.88V156.8H0V135.68L47.04 2.56001H85.12V133.12H101.12L98.88 156.8H85.12V210.56ZM58.88 133.12V90.56C58.88 85.44 58.88 80.32 58.88 75.2C59.0933 70.08 59.2 65.0667 59.2 60.16C59.4133 55.04 59.52 49.92 59.52 44.8C59.7333 39.68 59.9467 34.56 60.16 29.44H59.84C58.1333 35.2 56.4267 41.0667 54.72 47.04C53.0133 52.8 51.2 58.56 49.28 64.32C47.5733 70.08 45.76 75.84 43.84 81.6C42.1333 87.1467 40.32 92.8 38.4 98.56C36.6933 104.32 34.88 110.08 32.96 115.84C31.2533 121.6 29.44 127.36 27.52 133.12H58.88Z" fill="#ADADAD"/>
<path d="M185.133 0C191.106 0 196.439 0.74667 201.132 2.24001C206.039 3.73334 210.306 5.97333 213.933 8.96C217.773 11.7333 220.973 15.36 223.533 19.84C226.092 24.1067 228.012 29.12 229.292 34.88C230.572 40.64 231.213 47.1467 231.213 54.4V156.8C231.213 162.347 230.786 167.573 229.932 172.48C229.292 177.387 228.226 181.973 226.732 186.24C225.239 190.507 223.319 194.24 220.973 197.44C218.626 200.64 215.639 203.413 212.012 205.76C208.386 208.107 204.226 209.92 199.533 211.2C194.839 212.48 189.506 213.12 183.533 213.12C176.706 213.12 170.732 212.267 165.613 210.56C160.493 208.853 156.119 206.4 152.492 203.2C149.079 199.787 146.199 195.84 143.852 191.36C141.719 186.667 140.119 181.44 139.052 175.68C138.199 169.92 137.772 163.84 137.772 157.44V56.32C137.772 48.64 138.412 41.92 139.692 36.16C140.972 30.1867 142.893 24.96 145.452 20.48C148.012 15.7867 151.213 11.9467 155.053 8.96C158.893 5.97333 163.266 3.73334 168.173 2.24001C173.292 0.74667 178.946 0 185.133 0ZM184.492 26.24C181.932 26.24 179.692 26.56 177.772 27.2C175.852 27.84 174.146 28.8 172.652 30.08C171.372 31.36 170.199 33.0667 169.133 35.2C168.066 37.3333 167.212 39.8933 166.572 42.88C166.146 45.8667 165.932 49.28 165.932 53.12V160C165.932 164.48 166.253 168.427 166.893 171.84C167.746 175.04 168.812 177.813 170.092 180.16C171.586 182.507 173.506 184.213 175.852 185.28C178.412 186.347 181.292 186.88 184.492 186.88C186.626 186.88 188.439 186.667 189.932 186.24C191.639 185.6 193.133 184.853 194.413 184C195.906 183.147 197.186 181.973 198.253 180.48C199.319 178.773 200.066 176.96 200.493 175.04C201.133 172.907 201.559 170.56 201.773 168C202.199 165.44 202.413 162.56 202.413 159.36V52.48C202.413 48 201.986 44.16 201.132 40.96C200.492 37.5467 199.426 34.7733 197.932 32.64C196.439 30.5067 194.519 28.9067 192.173 27.84C190.039 26.7733 187.479 26.24 184.492 26.24Z" fill="#ADADAD"/>
<path d="M353.52 210.56H327.28V156.8H268.4V135.68L315.44 2.56001H353.52V133.12H369.52L367.28 156.8H353.52V210.56ZM327.28 133.12V90.56C327.28 85.44 327.28 80.32 327.28 75.2C327.493 70.08 327.6 65.0667 327.6 60.16C327.813 55.04 327.92 49.92 327.92 44.8C328.133 39.68 328.347 34.56 328.56 29.44H328.24C326.533 35.2 324.827 41.0667 323.12 47.04C321.413 52.8 319.6 58.56 317.68 64.32C315.973 70.08 314.16 75.84 312.24 81.6C310.533 87.1467 308.72 92.8 306.8 98.56C305.093 104.32 303.28 110.08 301.36 115.84C299.653 121.6 297.84 127.36 295.92 133.12H327.28Z" fill="#ADADAD"/>
<path d="M9.043 308.56V265.168H21.459C23.8057 265.168 25.8963 265.659 27.731 266.64C29.5657 267.579 30.995 268.987 32.019 270.864C33.0857 272.699 33.619 275.024 33.619 277.84C33.619 280.528 33.107 282.832 32.083 284.752C31.1017 286.629 29.651 288.08 27.731 289.104C25.8537 290.085 23.5283 290.576 20.755 290.576H15.763V308.56H9.043ZM15.763 270.736V285.072H20.051C21.203 285.072 22.2057 284.923 23.059 284.624C23.9123 284.325 24.6163 283.877 25.171 283.28C25.7683 282.64 26.195 281.872 26.451 280.976C26.707 280.037 26.835 278.949 26.835 277.712C26.835 276.219 26.579 274.96 26.067 273.936C25.5977 272.869 24.8937 272.08 23.955 271.568C23.0163 271.013 21.8643 270.736 20.499 270.736H15.763Z" fill="#ADADAD"/>
<path d="M58.395 284.496V301.84C58.395 302.309 58.395 302.864 58.395 303.504C58.4377 304.101 58.459 304.741 58.459 305.424C58.5017 306.064 58.523 306.661 58.523 307.216C58.5657 307.771 58.6083 308.219 58.651 308.56H52.571C52.5283 308.347 52.4857 308.048 52.443 307.664C52.4003 307.28 52.3577 306.875 52.315 306.448C52.2723 306.021 52.251 305.616 52.251 305.232C51.8243 306.043 51.291 306.747 50.651 307.344C50.011 307.899 49.2003 308.325 48.219 308.624C47.2377 308.965 46.0643 309.136 44.699 309.136C42.6083 309.136 40.923 308.667 39.643 307.728C38.363 306.747 37.4243 305.509 36.827 304.016C36.2723 302.523 35.995 301.008 35.995 299.472C35.995 298.149 36.1657 296.933 36.507 295.824C36.891 294.715 37.4243 293.733 38.107 292.88C38.8323 291.984 39.707 291.237 40.731 290.64C41.755 290.043 42.9497 289.573 44.315 289.232C45.6803 288.891 47.2163 288.72 48.923 288.72C49.3497 288.72 49.7337 288.72 50.075 288.72C50.4163 288.72 50.715 288.741 50.971 288.784C51.2697 288.784 51.5683 288.805 51.867 288.848V284.944C51.867 284.432 51.8243 283.899 51.739 283.344C51.6537 282.789 51.483 282.299 51.227 281.872C50.971 281.403 50.5657 281.019 50.011 280.72C49.4563 280.379 48.731 280.208 47.835 280.208C46.8963 280.208 46.1497 280.357 45.595 280.656C45.0403 280.955 44.635 281.339 44.379 281.808C44.123 282.277 43.931 282.789 43.803 283.344C43.675 283.899 43.5897 284.432 43.547 284.944H37.275C37.275 283.749 37.4457 282.576 37.787 281.424C38.171 280.272 38.7683 279.227 39.579 278.288C40.3897 277.307 41.4777 276.539 42.843 275.984C44.2083 275.387 45.9577 275.088 48.091 275.088C49.7977 275.088 51.291 275.28 52.571 275.664C53.851 276.048 54.9177 276.645 55.771 277.456C56.6243 278.267 57.2643 279.248 57.691 280.4C58.1603 281.552 58.395 282.917 58.395 284.496ZM51.995 295.056V293.712C51.611 293.627 51.2057 293.584 50.779 293.584C50.395 293.584 49.883 293.584 49.243 293.584C48.0057 293.584 46.9817 293.733 46.171 294.032C45.3603 294.288 44.6777 294.651 44.123 295.12C43.5683 295.589 43.163 296.144 42.907 296.784C42.6937 297.424 42.587 298.128 42.587 298.896C42.587 299.664 42.7363 300.432 43.035 301.2C43.3337 301.925 43.7817 302.523 44.379 302.992C44.9763 303.461 45.787 303.696 46.811 303.696C47.835 303.696 48.6883 303.504 49.371 303.12C50.0537 302.736 50.5657 302.181 50.907 301.456C51.291 300.688 51.5683 299.771 51.739 298.704C51.9097 297.637 51.995 296.421 51.995 295.056Z" fill="#ADADAD"/>
<path d="M87.678 285.456V306.064C87.678 308.368 87.486 310.437 87.102 312.272C86.7607 314.107 86.142 315.664 85.246 316.944C84.35 318.267 83.0913 319.269 81.47 319.952C79.8913 320.635 77.8647 320.976 75.39 320.976C73.598 320.976 72.062 320.784 70.782 320.4C69.502 320.016 68.4353 319.483 67.582 318.8C66.7713 318.16 66.11 317.435 65.598 316.624C65.1287 315.813 64.7873 314.96 64.574 314.064C64.3607 313.211 64.254 312.421 64.254 311.696H70.846C70.8887 312.08 71.0167 312.571 71.23 313.168C71.486 313.808 71.9553 314.363 72.638 314.832C73.3207 315.301 74.3233 315.536 75.646 315.536C76.8407 315.536 77.7793 315.323 78.462 314.896C79.1873 314.512 79.7207 313.915 80.062 313.104C80.446 312.293 80.702 311.291 80.83 310.096C81.0007 308.944 81.086 307.6 81.086 306.064V304.08C80.702 305.061 80.1473 305.872 79.422 306.512C78.7393 307.152 77.9287 307.621 76.99 307.92C76.0513 308.219 75.006 308.368 73.854 308.368C72.1473 308.368 70.6753 308.027 69.438 307.344C68.2007 306.619 67.1767 305.573 66.366 304.208C65.5553 302.8 64.9367 301.115 64.51 299.152C64.126 297.189 63.934 294.971 63.934 292.496C63.934 289.637 64.1687 287.12 64.638 284.944C65.15 282.768 65.8753 280.955 66.814 279.504C67.7527 278.053 68.8833 276.965 70.206 276.24C71.5287 275.472 73.0007 275.088 74.622 275.088C76.03 275.088 77.182 275.301 78.078 275.728C79.0167 276.112 79.7207 276.603 80.19 277.2C80.6593 277.755 80.9793 278.309 81.15 278.864C81.15 278.48 81.15 278.096 81.15 277.712C81.1927 277.285 81.2353 276.901 81.278 276.56C81.3207 276.176 81.3633 275.877 81.406 275.664H87.806C87.806 276.133 87.7847 276.688 87.742 277.328C87.742 277.968 87.7207 278.715 87.678 279.568C87.678 280.421 87.678 281.339 87.678 282.32C87.678 283.301 87.678 284.347 87.678 285.456ZM76.286 280.848C75.39 280.848 74.6007 281.083 73.918 281.552C73.2353 281.979 72.6593 282.683 72.19 283.664C71.7207 284.603 71.358 285.797 71.102 287.248C70.846 288.699 70.718 290.384 70.718 292.304C70.718 294.693 70.91 296.656 71.294 298.192C71.7207 299.728 72.318 300.88 73.086 301.648C73.8967 302.373 74.8567 302.736 75.966 302.736C76.8193 302.736 77.5447 302.565 78.142 302.224C78.7393 301.883 79.23 301.413 79.614 300.816C80.0407 300.176 80.3607 299.408 80.574 298.512C80.83 297.573 81.0007 296.507 81.086 295.312C81.214 294.117 81.278 292.795 81.278 291.344C81.278 289.723 81.214 288.272 81.086 286.992C80.958 285.669 80.7233 284.56 80.382 283.664C80.0833 282.725 79.5927 282.021 78.91 281.552C78.27 281.083 77.3953 280.848 76.286 280.848Z" fill="#ADADAD"/>
<path d="M105.15 303.632C106.217 303.632 107.049 303.44 107.646 303.056C108.286 302.629 108.777 302.139 109.118 301.584C109.46 301.029 109.695 300.496 109.823 299.984C109.951 299.472 110.036 299.067 110.078 298.768H116.414C116.414 298.981 116.351 299.472 116.223 300.24C116.095 300.965 115.817 301.84 115.391 302.864C115.007 303.888 114.388 304.891 113.535 305.872C112.724 306.811 111.636 307.6 110.271 308.24C108.905 308.88 107.156 309.2 105.022 309.2C102.463 309.2 100.393 308.709 98.8145 307.728C97.2358 306.704 96.0412 305.36 95.2305 303.696C94.4625 302.032 93.9292 300.176 93.6305 298.128C93.3745 296.08 93.2465 294.032 93.2465 291.984C93.2465 289.893 93.3958 287.973 93.6945 286.224C93.9932 284.475 94.4625 282.917 95.1025 281.552C95.7425 280.144 96.5318 278.971 97.4705 278.032C98.4518 277.051 99.5825 276.325 100.863 275.856C102.143 275.344 103.593 275.088 105.215 275.088C107.561 275.088 109.481 275.515 110.975 276.368C112.468 277.179 113.62 278.309 114.431 279.76C115.284 281.168 115.881 282.832 116.223 284.752C116.564 286.629 116.735 288.613 116.735 290.704C116.735 291.045 116.713 291.408 116.671 291.792C116.671 292.133 116.671 292.496 116.671 292.88C116.671 293.221 116.649 293.499 116.606 293.712H99.8385C99.8385 295.333 99.9665 296.912 100.223 298.448C100.479 299.984 100.991 301.243 101.758 302.224C102.526 303.163 103.657 303.632 105.15 303.632ZM105.215 280.592C104.233 280.592 103.401 280.805 102.718 281.232C102.078 281.616 101.567 282.149 101.183 282.832C100.841 283.515 100.585 284.219 100.414 284.944C100.244 285.669 100.116 286.395 100.031 287.12C99.9878 287.803 99.9665 288.357 99.9665 288.784H110.143C110.143 287.803 110.078 286.843 109.951 285.904C109.823 284.923 109.588 284.048 109.246 283.28C108.948 282.469 108.457 281.829 107.774 281.36C107.134 280.848 106.281 280.592 105.215 280.592Z" fill="#ADADAD"/>
<path d="M140.686 308.56H134.605V265.168H142.413C144.077 269.563 145.528 273.36 146.766 276.56C148.003 279.717 149.048 282.448 149.902 284.752C150.755 287.013 151.459 288.912 152.014 290.448C152.611 291.984 153.08 293.221 153.421 294.16C153.763 295.099 154.019 295.824 154.189 296.336C154.403 296.848 154.552 297.296 154.637 297.68H154.702C154.616 296.613 154.552 295.504 154.51 294.352C154.467 293.157 154.424 291.941 154.382 290.704C154.382 289.467 154.36 288.208 154.318 286.928C154.318 285.605 154.318 284.261 154.318 282.896C154.318 281.531 154.318 280.144 154.318 278.736V265.168H160.398V308.56H152.91C151.416 304.592 150.094 301.093 148.941 298.064C147.832 295.035 146.851 292.389 145.997 290.128C145.144 287.867 144.419 285.904 143.822 284.24C143.224 282.576 142.734 281.189 142.35 280.08C141.965 278.971 141.645 278.075 141.389 277.392C141.133 276.709 140.92 276.155 140.749 275.728C140.621 275.301 140.515 274.96 140.43 274.704H140.365C140.451 275.771 140.493 276.901 140.493 278.096C140.536 279.248 140.557 280.464 140.557 281.744C140.6 283.024 140.622 284.347 140.622 285.712C140.664 287.077 140.686 288.507 140.686 290C140.686 291.451 140.686 292.944 140.686 294.48V308.56Z" fill="#ADADAD"/>
<path d="M178.66 275.088C180.195 275.088 181.582 275.323 182.82 275.792C184.1 276.261 185.209 276.944 186.148 277.84C187.086 278.736 187.854 279.845 188.452 281.168C189.092 282.491 189.582 284.048 189.924 285.84C190.265 287.632 190.436 289.616 190.436 291.792C190.436 294.139 190.243 296.251 189.859 298.128C189.518 300.005 189.027 301.648 188.387 303.056C187.747 304.421 186.937 305.573 185.956 306.512C185.017 307.408 183.908 308.091 182.628 308.56C181.348 308.987 179.918 309.2 178.34 309.2C176.377 309.2 174.649 308.859 173.156 308.176C171.705 307.451 170.467 306.384 169.443 304.976C168.419 303.568 167.651 301.797 167.139 299.664C166.628 297.488 166.372 294.928 166.372 291.984C166.372 289.68 166.563 287.632 166.947 285.84C167.331 284.005 167.865 282.405 168.548 281.04C169.23 279.675 170.062 278.565 171.044 277.712C172.068 276.816 173.219 276.155 174.499 275.728C175.779 275.301 177.166 275.088 178.66 275.088ZM178.467 280.72C177.742 280.72 177.081 280.869 176.484 281.168C175.929 281.467 175.438 281.915 175.012 282.512C174.585 283.067 174.222 283.792 173.923 284.688C173.667 285.584 173.454 286.629 173.284 287.824C173.156 289.019 173.092 290.384 173.092 291.92C173.092 293.84 173.198 295.547 173.411 297.04C173.625 298.491 173.945 299.707 174.372 300.688C174.798 301.627 175.331 302.352 175.971 302.864C176.654 303.333 177.486 303.568 178.467 303.568C179.193 303.568 179.833 303.419 180.387 303.12C180.985 302.779 181.497 302.309 181.924 301.712C182.35 301.115 182.691 300.347 182.947 299.408C183.203 298.469 183.395 297.381 183.523 296.144C183.652 294.907 183.715 293.52 183.715 291.984C183.715 290.021 183.609 288.357 183.396 286.992C183.182 285.584 182.862 284.411 182.436 283.472C182.051 282.533 181.518 281.851 180.835 281.424C180.153 280.955 179.363 280.72 178.467 280.72Z" fill="#ADADAD"/>
<path d="M192.444 281.168V275.664H196.86V267.216H203.516V275.664H208.828V281.168H203.516V300.368C203.516 301.051 203.58 301.627 203.708 302.096C203.836 302.565 204.092 302.928 204.476 303.184C204.903 303.44 205.521 303.568 206.332 303.568C206.716 303.568 207.057 303.568 207.356 303.568C207.697 303.525 208.017 303.483 208.316 303.44V308.368C207.932 308.539 207.463 308.667 206.908 308.752C206.353 308.88 205.82 308.944 205.308 308.944C204.796 308.987 204.348 309.008 203.964 309.008C202.769 309.008 201.724 308.88 200.828 308.624C199.975 308.368 199.249 307.963 198.652 307.408C198.055 306.811 197.607 306.043 197.308 305.104C197.009 304.165 196.86 302.971 196.86 301.52V281.168H192.444Z" fill="#ADADAD"/>
<path d="M225.48 308.56V265.168H246.921V271.12H232.137V283.408H246.089V289.232H232.137V308.56H225.48Z" fill="#ADADAD"/>
<path d="M262.347 275.088C263.883 275.088 265.27 275.323 266.507 275.792C267.787 276.261 268.896 276.944 269.835 277.84C270.774 278.736 271.542 279.845 272.139 281.168C272.779 282.491 273.27 284.048 273.611 285.84C273.952 287.632 274.123 289.616 274.123 291.792C274.123 294.139 273.931 296.251 273.547 298.128C273.206 300.005 272.715 301.648 272.075 303.056C271.435 304.421 270.624 305.573 269.643 306.512C268.704 307.408 267.595 308.091 266.315 308.56C265.035 308.987 263.606 309.2 262.027 309.2C260.064 309.2 258.336 308.859 256.843 308.176C255.392 307.451 254.155 306.384 253.131 304.976C252.107 303.568 251.339 301.797 250.827 299.664C250.315 297.488 250.059 294.928 250.059 291.984C250.059 289.68 250.251 287.632 250.635 285.84C251.019 284.005 251.552 282.405 252.235 281.04C252.918 279.675 253.75 278.565 254.731 277.712C255.755 276.816 256.907 276.155 258.187 275.728C259.467 275.301 260.854 275.088 262.347 275.088ZM262.155 280.72C261.43 280.72 260.768 280.869 260.171 281.168C259.616 281.467 259.126 281.915 258.699 282.512C258.272 283.067 257.91 283.792 257.611 284.688C257.355 285.584 257.142 286.629 256.971 287.824C256.843 289.019 256.779 290.384 256.779 291.92C256.779 293.84 256.886 295.547 257.099 297.04C257.312 298.491 257.632 299.707 258.059 300.688C258.486 301.627 259.019 302.352 259.659 302.864C260.342 303.333 261.174 303.568 262.155 303.568C262.88 303.568 263.52 303.419 264.075 303.12C264.672 302.779 265.184 302.309 265.611 301.712C266.038 301.115 266.379 300.347 266.635 299.408C266.891 298.469 267.083 297.381 267.211 296.144C267.339 294.907 267.403 293.52 267.403 291.984C267.403 290.021 267.296 288.357 267.083 286.992C266.87 285.584 266.55 284.411 266.123 283.472C265.739 282.533 265.206 281.851 264.523 281.424C263.84 280.955 263.051 280.72 262.155 280.72Z" fill="#ADADAD"/>
<path d="M301.802 275.664V299.152C301.802 300.645 301.802 302.011 301.802 303.248C301.844 304.485 301.866 305.531 301.866 306.384C301.908 307.237 301.93 307.963 301.93 308.56H295.53C295.487 308.219 295.444 307.856 295.401 307.472C295.401 307.045 295.38 306.597 295.337 306.128C295.337 305.659 295.337 305.189 295.337 304.72C294.868 305.744 294.271 306.576 293.546 307.216C292.863 307.856 292.031 308.325 291.049 308.624C290.068 308.965 288.98 309.136 287.785 309.136C286.719 309.136 285.673 308.987 284.65 308.688C283.668 308.389 282.794 307.877 282.026 307.152C281.3 306.384 280.703 305.381 280.233 304.144C279.764 302.864 279.53 301.264 279.53 299.344V275.664H286.25V297.808C286.25 298.661 286.292 299.451 286.378 300.176C286.505 300.859 286.719 301.456 287.017 301.968C287.316 302.437 287.721 302.8 288.233 303.056C288.745 303.312 289.385 303.44 290.154 303.44C291.22 303.44 292.116 303.205 292.841 302.736C293.567 302.267 294.143 301.477 294.569 300.368C294.996 299.259 295.21 297.723 295.21 295.76V275.664H301.802Z" fill="#ADADAD"/>
<path d="M308.22 308.56V285.904C308.22 283.6 308.22 281.808 308.22 280.528C308.22 279.248 308.22 278.245 308.22 277.52C308.22 276.795 308.199 276.176 308.156 275.664H314.556C314.599 275.92 314.62 276.24 314.62 276.624C314.663 277.008 314.684 277.435 314.684 277.904C314.727 278.373 314.748 278.864 314.748 279.376C315.047 278.864 315.388 278.352 315.772 277.84C316.199 277.328 316.689 276.88 317.244 276.496C317.841 276.069 318.545 275.728 319.356 275.472C320.209 275.173 321.148 275.024 322.172 275.024C323.537 275.024 324.711 275.237 325.692 275.664C326.716 276.091 327.591 276.709 328.316 277.52C329.084 278.331 329.66 279.376 330.044 280.656C330.471 281.893 330.684 283.365 330.684 285.072V308.56H323.964V286.544C323.964 285.349 323.836 284.325 323.58 283.472C323.367 282.619 322.961 281.957 322.364 281.488C321.767 281.019 320.913 280.784 319.804 280.784C318.695 280.784 317.777 281.04 317.052 281.552C316.327 282.064 315.772 282.875 315.388 283.984C315.047 285.093 314.876 286.587 314.876 288.464V308.56H308.22Z" fill="#ADADAD"/>
<path d="M353.272 263.056H359.864V299.664C359.864 300.859 359.864 302.032 359.864 303.184C359.864 304.293 359.864 305.317 359.864 306.256C359.907 307.152 359.928 307.92 359.928 308.56H353.528C353.528 308.261 353.507 307.899 353.464 307.472C353.421 307.003 353.379 306.533 353.336 306.064C353.336 305.595 353.336 305.147 353.336 304.72C352.995 305.573 352.525 306.341 351.928 307.024C351.331 307.664 350.541 308.176 349.56 308.56C348.579 308.944 347.341 309.136 345.848 309.136C344.141 309.136 342.669 308.773 341.432 308.048C340.237 307.28 339.235 306.171 338.424 304.72C337.656 303.227 337.08 301.413 336.696 299.28C336.312 297.104 336.12 294.608 336.12 291.792C336.12 289.787 336.269 287.909 336.568 286.16C336.867 284.411 337.293 282.875 337.848 281.552C338.403 280.187 339.128 279.035 340.024 278.096C340.92 277.115 341.944 276.368 343.096 275.856C344.248 275.344 345.571 275.088 347.064 275.088C348.003 275.088 348.813 275.173 349.496 275.344C350.221 275.515 350.819 275.749 351.288 276.048C351.8 276.304 352.205 276.603 352.504 276.944C352.845 277.285 353.101 277.627 353.272 277.968V263.056ZM348.408 280.784C347.725 280.784 347.107 280.912 346.552 281.168C345.997 281.424 345.485 281.808 345.016 282.32C344.547 282.832 344.163 283.515 343.864 284.368C343.565 285.221 343.331 286.288 343.16 287.568C342.989 288.805 342.904 290.256 342.904 291.92C342.904 294.011 343.011 295.781 343.224 297.232C343.437 298.683 343.757 299.877 344.184 300.816C344.653 301.712 345.187 302.373 345.784 302.8C346.424 303.227 347.171 303.44 348.024 303.44C348.92 303.44 349.667 303.312 350.264 303.056C350.861 302.757 351.352 302.309 351.736 301.712C352.163 301.115 352.483 300.347 352.696 299.408C352.952 298.469 353.123 297.36 353.208 296.08C353.336 294.8 353.4 293.328 353.4 291.664C353.4 289.616 353.336 287.888 353.208 286.48C353.08 285.072 352.824 283.963 352.44 283.152C352.099 282.299 351.608 281.701 350.968 281.36C350.328 280.976 349.475 280.784 348.408 280.784Z" fill="#ADADAD"/>
</svg>
