<svg width="614" height="121" viewBox="0 0 614 121" fill="none" xmlns="http://www.w3.org/2000/svg">
<path d="M442.955 119.193H398.883V117.259C399.04 97.2187 406.411 83.1552 417.547 65.2243C426.016 51.8641 428.683 47.2934 428.683 34.4605C428.683 22.155 427.114 16.8812 420.684 16.8812C414.724 16.8812 412.528 21.9792 412.528 31.2963V37.0974H399.51V30.9447C399.51 17.936 403.117 3.52095 421.311 3.52095C438.25 3.52095 442.798 16.0023 442.798 33.5816C442.798 51.6883 437.936 59.0716 429.467 71.9045C421.468 84.5616 415.351 96.1639 414.567 105.657H444.837L442.955 119.193Z" fill="white"/>
<path d="M385.408 119.193H341.336V117.259C341.492 97.2187 348.864 83.1552 360 65.2243C368.469 51.8641 371.135 47.2934 371.135 34.4605C371.135 22.155 369.567 16.8812 363.137 16.8812C357.177 16.8812 354.981 21.9792 354.981 31.2963V37.0974H341.963V30.9447C341.963 17.936 345.57 3.52095 363.764 3.52095C380.703 3.52095 385.251 16.0023 385.251 33.5816C385.251 51.6883 380.389 59.0716 371.92 71.9045C363.921 84.5616 357.804 96.1639 357.02 105.657H387.29L385.408 119.193Z" fill="white"/>
<path d="M305.407 65.7517H333.011V80.1667H305.407V65.7517Z" fill="white"/>
<path d="M269.271 3.52095C284.014 3.52095 291.856 13.717 291.856 33.4058V89.8354C291.856 107.942 286.366 120.599 268.486 120.599C252.018 120.599 246.058 108.294 246.058 90.0112V34.4605C246.058 13.8928 254.214 3.52095 269.271 3.52095ZM268.957 17.936C263.154 17.936 260.017 22.155 260.017 32.7026V91.5933C260.017 101.262 262.683 106.36 268.957 106.36C275.074 106.36 277.897 101.614 277.897 91.0659V32.351C277.897 22.6824 274.917 17.936 268.957 17.936Z" fill="white"/>
<path d="M232.065 119.193H187.992V117.259C188.149 97.2187 195.521 83.1552 206.656 65.2243C215.126 51.8641 217.792 47.2934 217.792 34.4605C217.792 22.155 216.224 16.8812 209.793 16.8812C203.833 16.8812 201.638 21.9792 201.638 31.2963V37.0974H188.62V30.9447C188.62 17.936 192.227 3.52095 210.421 3.52095C227.36 3.52095 231.908 16.0023 231.908 33.5816C231.908 51.6883 227.046 59.0716 218.576 71.9045C210.578 84.5616 204.461 96.1639 203.677 105.657H233.947L232.065 119.193Z" fill="white"/>
<path d="M174.644 119.193H160.685V94.0543H174.644V119.193Z" fill="white"/>
<path d="M115.894 119.193V1.76294H137.539C153.693 1.76294 161.692 10.9042 161.692 30.9446V37.9763C161.692 56.6104 156.203 69.4433 136.754 69.4433H130.01V119.193H115.894ZM130.01 14.9474V56.4346H135.186C146.008 56.4346 147.733 49.2271 147.733 37.4489V31.472C147.733 22.5065 146.165 14.9474 136.441 14.9474H130.01Z" fill="white"/>
<path d="M99.5007 49.7545V64.3453H76.2882V104.778H102.951L101.069 119.193H62.3293V1.76294H100.912V16.5296H76.2882V49.7545H99.5007Z" fill="white"/>
<path d="M0.193848 85.2645H14.3096V92.4721C14.3096 102.141 16.9759 107.414 23.7201 107.414C30.4642 107.414 32.66 101.086 32.66 91.2415C32.66 78.057 30.1506 73.4864 19.0148 63.8178C7.72224 53.7976 1.9191 47.6448 1.9191 30.2413C1.9191 15.1231 5.99698 0.00488281 23.8769 0.00488281C41.6 0.180674 45.0505 13.8925 45.0505 27.6044V33.5814H31.0916V28.1318C31.0916 19.1663 29.68 13.7167 23.5632 13.7167C17.4464 13.7167 15.878 19.6937 15.878 27.956C15.878 37.4488 17.6032 41.4921 26.8569 49.2269C42.0705 62.0598 46.7757 69.2674 46.7757 88.7804C46.7757 105.481 42.0705 120.951 23.2495 120.951C4.89909 120.951 0.193848 107.766 0.193848 92.2962V85.2645Z" fill="white"/>
<path d="M317.864 38.155V41.4275L301.311 41.4275V38.155H317.864Z" fill="white"/>
<path d="M308.381 26.7875V24.0019H301.311V20.7835L317.864 20.7835V28.0046C317.864 31.4393 316.368 33.8734 313.472 33.8734C311.156 33.8734 310.07 32.44 309.587 30.9254C308.984 32.7916 307.657 33.5218 305.534 33.5218H305.148C303.651 33.5218 302.252 33.6029 301.311 33.7652V30.6009C301.987 30.3305 303.241 30.2493 305.172 30.2493H305.582C307.633 30.2493 308.381 29.4109 308.381 26.7875ZM315.523 24.0019H310.721V27.031C310.721 29.0593 311.228 30.6009 313.231 30.6009C314.848 30.6009 315.523 29.3298 315.523 27.5719V24.0019Z" fill="white"/>
<path d="M301.311 5.65748L317.864 5.65749V17.2057H315.427V8.87585H310.794L310.794 16.6919H308.381V8.87585H301.311V5.65748Z" fill="white"/>
<path d="M452.724 43.5603V40.5583H469.276V44.7773C458.611 50.9436 456.995 51.8631 456.222 52.1606V52.2147C458.273 52.0254 460.976 51.9983 463.678 51.9983H469.276V55.0274L452.724 55.0274V50.9977C464.378 44.3987 465.609 43.7766 466.26 43.4521V43.425C464.137 43.5603 461.314 43.5603 458.346 43.5603H452.724Z" fill="white"/>
<path d="M469.276 21.5171V24.8166H458.732C456.608 24.8166 454.847 25.5468 454.847 28.5759C454.847 31.5508 456.536 32.254 458.756 32.254H469.276V35.5805H458.659C455.185 35.5805 452.482 33.9308 452.482 28.4947C452.482 23.248 454.968 21.5171 458.611 21.5171H469.276Z" fill="white"/>
<path d="M457.525 4.49434V7.73975C455.812 8.03725 454.799 9.30837 454.799 11.3638C454.799 13.5274 455.691 14.501 457.091 14.501C458.708 14.501 459.383 13.5004 460.155 10.6336C461.217 6.46863 462.496 4.98115 464.885 4.98115C467.828 4.98115 469.493 7.57748 469.493 11.0663C469.493 15.3665 467.418 17.2055 464.861 17.3949V14.1765C466.26 13.9331 467.225 13.1217 467.225 11.0393C467.225 9.20019 466.453 8.28066 465.174 8.28066C463.823 8.28066 463.389 9.22723 462.665 11.9858C461.434 16.6646 459.793 17.8546 457.429 17.8546C454.726 17.8546 452.506 15.7992 452.506 11.2286C452.506 7.2259 454.34 4.7107 457.525 4.49434Z" fill="white"/>
<path d="M498.074 26.2724V2.40852H509.865V5.68189H501.734V12.4398H509.407V15.6428H501.734V26.2724H498.074Z" fill="white"/>
<path d="M512.505 2.40852H516.201V18.9513C516.201 19.491 516.248 20.0307 516.342 20.5704C516.435 21.1101 516.6 21.6029 516.834 22.0487C517.092 22.4945 517.433 22.8582 517.855 23.1398C518.301 23.3979 518.888 23.527 519.615 23.527C520.295 23.527 520.859 23.4097 521.304 23.175C521.75 22.9404 522.091 22.6236 522.325 22.2247C522.56 21.8023 522.724 21.3096 522.818 20.7464C522.912 20.1832 522.959 19.5849 522.959 18.9513V2.40852H526.69V19.0217C526.69 20.0776 526.561 21.0749 526.302 22.0135C526.068 22.9521 525.681 23.7734 525.141 24.4773C524.625 25.1578 523.909 25.6975 522.994 26.0964C522.079 26.4719 520.917 26.6596 519.509 26.6596C518.195 26.6596 517.081 26.4836 516.166 26.1316C515.25 25.7562 514.523 25.2282 513.983 24.5477C513.444 23.8672 513.056 23.0694 512.822 22.1543C512.611 21.2157 512.505 20.1832 512.505 19.0569V2.40852Z" fill="white"/>
<path d="M530.693 26.2724V2.40852H534.354V13.4957C534.635 13.0499 534.987 12.4867 535.409 11.8062C535.832 11.1023 536.289 10.3514 536.782 9.55361C537.275 8.7558 537.779 7.93453 538.296 7.08979C538.835 6.22158 539.352 5.38858 539.844 4.59077C540.361 3.79296 540.818 3.06554 541.217 2.40852H545.476L539.105 11.8414L545.652 26.2724H541.534L536.606 14.9388L534.354 18.0362V26.2724H530.693Z" fill="white"/>
<path d="M546.843 2.40852H550.539V18.9513C550.539 19.491 550.586 20.0307 550.68 20.5704C550.774 21.1101 550.938 21.6029 551.172 22.0487C551.431 22.4945 551.771 22.8582 552.193 23.1398C552.639 23.3979 553.226 23.527 553.953 23.527C554.634 23.527 555.197 23.4097 555.643 23.175C556.088 22.9404 556.429 22.6236 556.663 22.2247C556.898 21.8023 557.062 21.3096 557.156 20.7464C557.25 20.1832 557.297 19.5849 557.297 18.9513V2.40852H561.028V19.0217C561.028 20.0776 560.899 21.0749 560.641 22.0135C560.406 22.9521 560.019 23.7734 559.479 24.4773C558.963 25.1578 558.247 25.6975 557.332 26.0964C556.417 26.4719 555.255 26.6596 553.847 26.6596C552.533 26.6596 551.419 26.4836 550.504 26.1316C549.589 25.7562 548.861 25.2282 548.321 24.5477C547.782 23.8672 547.395 23.0694 547.16 22.1543C546.949 21.2157 546.843 20.1832 546.843 19.0569V2.40852Z" fill="white"/>
<path d="M571.96 2.05655C572.993 2.05655 573.908 2.22081 574.706 2.54932C575.503 2.85436 576.196 3.32366 576.782 3.95721C577.369 4.59077 577.85 5.38858 578.225 6.35064C578.624 7.3127 578.917 8.45075 579.105 9.76479C579.293 11.0554 579.387 12.5219 579.387 14.1645C579.387 15.854 579.293 17.3674 579.105 18.7049C578.941 20.0424 578.659 21.2157 578.26 22.2247C577.885 23.2102 577.392 24.0432 576.782 24.7237C576.172 25.3807 575.456 25.8735 574.635 26.202C573.814 26.507 572.864 26.6596 571.784 26.6596C570.775 26.6596 569.872 26.507 569.074 26.202C568.276 25.8735 567.584 25.3925 566.997 24.7589C566.411 24.1019 565.918 23.2806 565.519 22.2951C565.144 21.2861 564.862 20.1128 564.674 18.7753C564.487 17.4144 564.393 15.8657 564.393 14.1293C564.393 12.4398 564.498 10.9498 564.709 9.6592C564.921 8.34516 565.237 7.20711 565.66 6.24505C566.082 5.28298 566.598 4.49691 567.208 3.88682C567.819 3.27673 568.523 2.81916 569.32 2.51412C570.118 2.20907 570.998 2.05655 571.96 2.05655ZM571.89 5.22432C571.327 5.22432 570.846 5.35338 570.447 5.61149C570.048 5.84614 569.696 6.20985 569.391 6.70261C569.109 7.17191 568.875 7.77027 568.687 8.49769C568.523 9.20163 568.393 10.0229 568.3 10.9615C568.229 11.9001 568.194 12.9443 568.194 14.0941C568.194 15.5958 568.264 16.9333 568.405 18.1066C568.546 19.2798 568.757 20.2771 569.039 21.0984C569.344 21.8962 569.731 22.5063 570.2 22.9286C570.67 23.3275 571.233 23.527 571.89 23.527C572.453 23.527 572.934 23.3979 573.333 23.1398C573.755 22.8817 574.107 22.5063 574.389 22.0135C574.67 21.4973 574.893 20.8637 575.057 20.1128C575.245 19.362 575.386 18.482 575.48 17.473C575.574 16.464 575.621 15.3377 575.621 14.0941C575.621 12.5923 575.55 11.29 575.409 10.1872C575.269 9.08431 575.046 8.16918 574.741 7.44176C574.459 6.69088 574.084 6.13946 573.614 5.78748C573.145 5.41204 572.57 5.22432 571.89 5.22432Z" fill="white"/>
<path d="M582.905 26.2724V2.40852H586.565V13.4957C586.847 13.0499 587.199 12.4867 587.621 11.8062C588.044 11.1023 588.501 10.3514 588.994 9.55361C589.487 8.7558 589.991 7.93453 590.508 7.08979C591.047 6.22158 591.563 5.38858 592.056 4.59077C592.572 3.79296 593.03 3.06554 593.429 2.40852H597.688L591.317 11.8414L597.864 26.2724H593.746L588.818 14.9388L586.565 18.0362V26.2724H582.905Z" fill="white"/>
<path d="M608.72 19.7257H602.983L601.61 26.2724H597.915L603.511 2.40852H608.333L614 26.2724H610.093L608.72 19.7257ZM603.652 16.5227H608.052C607.793 15.2556 607.547 14.0941 607.312 13.0382C607.078 11.9822 606.867 11.0084 606.679 10.1168C606.515 9.2251 606.362 8.42729 606.221 7.72334C606.081 7.01939 605.963 6.4093 605.869 5.89307H605.764C605.693 6.43277 605.588 7.06632 605.447 7.79374C605.33 8.52115 605.165 9.34242 604.954 10.2576C604.766 11.1727 604.567 12.1582 604.356 13.2141C604.145 14.2466 603.91 15.3495 603.652 16.5227Z" fill="white"/>
<path d="M498.074 71.2724V47.4085H501.734V58.4957C502.016 58.0499 502.368 57.4867 502.79 56.8062C503.212 56.1023 503.67 55.3514 504.163 54.5536C504.655 53.7558 505.16 52.9345 505.676 52.0898C506.216 51.2216 506.732 50.3886 507.225 49.5908C507.741 48.793 508.199 48.0655 508.598 47.4085H512.856L506.486 56.8414L513.032 71.2724H508.914L503.987 59.9388L501.734 63.0362V71.2724H498.074Z" fill="white"/>
<path d="M521.054 47.0565C522.087 47.0565 523.002 47.2208 523.8 47.5493C524.598 47.8544 525.29 48.3237 525.877 48.9572C526.463 49.5908 526.944 50.3886 527.32 51.3506C527.719 52.3127 528.012 53.4508 528.2 54.7648C528.387 56.0554 528.481 57.5219 528.481 59.1645C528.481 60.854 528.387 62.3674 528.2 63.7049C528.035 65.0424 527.754 66.2157 527.355 67.2247C526.979 68.2102 526.487 69.0432 525.877 69.7237C525.266 70.3807 524.551 70.8735 523.729 71.202C522.908 71.507 521.958 71.6596 520.878 71.6596C519.87 71.6596 518.966 71.507 518.168 71.202C517.37 70.8735 516.678 70.3925 516.092 69.7589C515.505 69.1019 515.012 68.2806 514.613 67.2951C514.238 66.2861 513.956 65.1128 513.769 63.7753C513.581 62.4144 513.487 60.8657 513.487 59.1293C513.487 57.4398 513.593 55.9498 513.804 54.6592C514.015 53.3452 514.332 52.2071 514.754 51.245C515.176 50.283 515.693 49.4969 516.303 48.8868C516.913 48.2767 517.617 47.8192 518.415 47.5141C519.212 47.2091 520.092 47.0565 521.054 47.0565ZM520.984 50.2243C520.421 50.2243 519.94 50.3534 519.541 50.6115C519.142 50.8461 518.79 51.2099 518.485 51.7026C518.203 52.1719 517.969 52.7703 517.781 53.4977C517.617 54.2016 517.488 55.0229 517.394 55.9615C517.324 56.9001 517.288 57.9443 517.288 59.0941C517.288 60.5958 517.359 61.9333 517.5 63.1066C517.64 64.2798 517.852 65.2771 518.133 66.0984C518.438 66.8962 518.825 67.5063 519.295 67.9286C519.764 68.3275 520.327 68.527 520.984 68.527C521.547 68.527 522.028 68.3979 522.427 68.1398C522.849 67.8817 523.202 67.5063 523.483 67.0135C523.765 66.4973 523.988 65.8637 524.152 65.1128C524.34 64.362 524.48 63.482 524.574 62.473C524.668 61.464 524.715 60.3377 524.715 59.0941C524.715 57.5923 524.645 56.29 524.504 55.1872C524.363 54.0843 524.14 53.1692 523.835 52.4418C523.553 51.6909 523.178 51.1395 522.709 50.7875C522.239 50.412 521.665 50.2243 520.984 50.2243Z" fill="white"/>
<path d="M531.999 71.2724V47.4085H535.66V58.4957C535.941 58.0499 536.293 57.4867 536.716 56.8062C537.138 56.1023 537.596 55.3514 538.088 54.5536C538.581 53.7558 539.086 52.9345 539.602 52.0898C540.142 51.2216 540.658 50.3886 541.151 49.5908C541.667 48.793 542.124 48.0655 542.523 47.4085H546.782L540.411 56.8414L546.958 71.2724H542.84L537.912 59.9388L535.66 63.0362V71.2724H531.999Z" fill="white"/>
<path d="M548.149 47.4085H551.845V63.9513C551.845 64.491 551.892 65.0307 551.986 65.5704C552.08 66.1101 552.244 66.6029 552.479 67.0487C552.737 67.4945 553.077 67.8582 553.499 68.1398C553.945 68.3979 554.532 68.527 555.259 68.527C555.94 68.527 556.503 68.4097 556.949 68.175C557.395 67.9404 557.735 67.6236 557.969 67.2247C558.204 66.8023 558.368 66.3096 558.462 65.7464C558.556 65.1832 558.603 64.5849 558.603 63.9513V47.4085H562.334V64.0217C562.334 65.0776 562.205 66.0749 561.947 67.0135C561.712 67.9521 561.325 68.7734 560.785 69.4773C560.269 70.1578 559.553 70.6975 558.638 71.0964C557.723 71.4719 556.562 71.6596 555.154 71.6596C553.84 71.6596 552.725 71.4836 551.81 71.1316C550.895 70.7562 550.167 70.2282 549.628 69.5477C549.088 68.8672 548.701 68.0694 548.466 67.1543C548.255 66.2157 548.149 65.1832 548.149 64.0569V47.4085Z" fill="white"/>
<path d="M572.179 68.703C572.719 68.703 573.188 68.6209 573.587 68.4566C574.01 68.2924 574.338 68.0694 574.573 67.7878C574.831 67.4828 575.019 67.1191 575.136 66.6967C575.277 66.2509 575.347 65.7699 575.347 65.2536C575.347 64.5262 575.218 63.9044 574.96 63.3882C574.725 62.8485 574.303 62.344 573.693 61.8747C573.106 61.4054 572.297 60.9243 571.264 60.4316C570.279 59.9623 569.434 59.493 568.73 59.0237C568.026 58.5309 567.451 58.0147 567.005 57.475C566.559 56.9353 566.231 56.3369 566.02 55.6799C565.809 54.9994 565.703 54.2134 565.703 53.3217C565.703 52.4066 565.832 51.5736 566.09 50.8227C566.372 50.0718 566.794 49.4148 567.357 48.8516C567.92 48.265 568.601 47.8309 569.399 47.5493C570.196 47.2443 571.123 47.0917 572.179 47.0917C573.188 47.0917 574.057 47.2208 574.784 47.4789C575.511 47.7136 576.121 48.0538 576.614 48.4996C577.13 48.922 577.529 49.4265 577.811 50.0131C578.092 50.5763 578.292 51.1629 578.409 51.773C578.55 52.3831 578.632 52.9932 578.656 53.6033H575.03C574.983 53.2748 574.913 52.9111 574.819 52.5122C574.749 52.0898 574.608 51.6909 574.397 51.3154C574.209 50.94 573.927 50.635 573.552 50.4003C573.2 50.1657 572.707 50.0483 572.074 50.0483C571.464 50.0483 570.959 50.1774 570.56 50.4355C570.161 50.6936 569.868 51.0456 569.68 51.4914C569.493 51.9373 569.399 52.4418 569.399 53.0049C569.399 53.6385 569.504 54.1899 569.715 54.6592C569.95 55.105 570.326 55.5274 570.842 55.9263C571.381 56.3017 572.132 56.7124 573.094 57.1582C574.15 57.651 575.054 58.1555 575.805 58.6717C576.579 59.1879 577.201 59.7394 577.67 60.326C578.163 60.9126 578.527 61.5814 578.761 62.3322C578.996 63.0831 579.113 63.9513 579.113 64.9369C579.113 65.852 578.961 66.7202 578.656 67.5415C578.374 68.3627 577.94 69.0902 577.353 69.7237C576.79 70.3338 576.063 70.8031 575.171 71.1316C574.303 71.4601 573.259 71.6244 572.039 71.6244C570.724 71.6244 569.622 71.4367 568.73 71.0612C567.862 70.6858 567.158 70.1813 566.618 69.5477C566.078 68.8907 565.68 68.1516 565.421 67.3303C565.187 66.4855 565.046 65.6173 564.999 64.7257H568.695C568.765 65.4296 568.918 66.0866 569.152 66.6967C569.387 67.3068 569.751 67.7996 570.243 68.175C570.76 68.527 571.405 68.703 572.179 68.703Z" fill="white"/>
<path d="M591.706 64.7257H585.969L584.596 71.2724H580.9L586.497 47.4085H591.319L596.986 71.2724H593.079L591.706 64.7257ZM586.638 61.5227H591.037C590.779 60.2556 590.533 59.0941 590.298 58.0382C590.063 56.9822 589.852 56.0084 589.664 55.1168C589.5 54.2251 589.348 53.4273 589.207 52.7233C589.066 52.0194 588.949 51.4093 588.855 50.8931H588.749C588.679 51.4328 588.573 52.0663 588.433 52.7937C588.315 53.5211 588.151 54.3424 587.94 55.2576C587.752 56.1727 587.553 57.1582 587.341 58.2141C587.13 59.2466 586.896 60.3495 586.638 61.5227Z" fill="white"/>
<path d="M599.232 47.4085H602.928V71.2724H599.232V47.4085Z" fill="white"/>
<path d="M504.585 113.527C505.312 113.527 505.876 113.374 506.275 113.069C506.697 112.741 507.002 112.342 507.19 111.873C507.401 111.403 507.542 110.946 507.612 110.5C507.706 110.054 507.765 109.702 507.788 109.444H511.484C511.46 109.702 511.402 110.113 511.308 110.676C511.237 111.216 511.073 111.826 510.815 112.506C510.557 113.187 510.181 113.844 509.689 114.477C509.196 115.111 508.527 115.639 507.682 116.061C506.861 116.46 505.817 116.66 504.55 116.66C503.236 116.66 502.133 116.437 501.241 115.991C500.35 115.522 499.634 114.888 499.094 114.09C498.555 113.269 498.156 112.342 497.898 111.31C497.639 110.254 497.463 109.127 497.37 107.931C497.276 106.734 497.229 105.514 497.229 104.27C497.229 102.768 497.323 101.396 497.51 100.152C497.698 98.8849 497.968 97.7585 498.32 96.773C498.695 95.764 499.176 94.9193 499.763 94.2388C500.373 93.5348 501.089 92.9952 501.91 92.6197C502.755 92.2443 503.729 92.0565 504.831 92.0565C506.028 92.0565 507.025 92.2443 507.823 92.6197C508.621 92.9952 509.266 93.4762 509.759 94.0628C510.252 94.6494 510.604 95.283 510.815 95.9635C511.05 96.6205 511.202 97.2423 511.273 97.8289C511.366 98.4156 511.425 98.8731 511.449 99.2016H507.753C507.753 99.0139 507.718 98.7089 507.647 98.2865C507.6 97.8407 507.483 97.3948 507.295 96.949C507.108 96.4797 506.814 96.0808 506.415 95.7523C506.016 95.4003 505.465 95.2243 504.761 95.2243C504.151 95.2243 503.623 95.3768 503.177 95.6819C502.755 95.9635 502.403 96.3858 502.121 96.949C501.863 97.4887 501.652 98.1457 501.488 98.9201C501.323 99.6709 501.206 100.504 501.136 101.419C501.089 102.311 501.065 103.285 501.065 104.34C501.065 105.514 501.101 106.652 501.171 107.755C501.265 108.834 501.429 109.808 501.664 110.676C501.922 111.544 502.285 112.236 502.755 112.753C503.224 113.269 503.834 113.527 504.585 113.527Z" fill="white"/>
<path d="M525.736 102.158V105.396H517.992V113.069H526.651L526.193 116.272H514.332V92.4085H526.088V95.6819H517.992V102.158H525.736Z" fill="white"/>
<path d="M532.731 116.272H529.387V92.4085H533.681C534.596 94.8254 535.394 96.9138 536.074 98.6737C536.755 100.41 537.33 101.912 537.799 103.179C538.268 104.423 538.656 105.467 538.961 106.312C539.289 107.156 539.547 107.837 539.735 108.353C539.923 108.869 540.063 109.268 540.157 109.55C540.275 109.831 540.357 110.078 540.404 110.289H540.439C540.392 109.702 540.357 109.092 540.333 108.459C540.31 107.802 540.286 107.133 540.263 106.452C540.263 105.772 540.251 105.08 540.228 104.376C540.228 103.648 540.228 102.909 540.228 102.158C540.228 101.407 540.228 100.645 540.228 99.8704V92.4085H543.571V116.272H539.453C538.632 114.09 537.905 112.166 537.271 110.5C536.661 108.834 536.121 107.379 535.652 106.136C535.183 104.892 534.784 103.812 534.455 102.897C534.127 101.982 533.857 101.22 533.646 100.61C533.435 99.9994 533.259 99.5067 533.118 99.1312C532.977 98.7558 532.86 98.4508 532.766 98.2161C532.695 97.9815 532.637 97.7937 532.59 97.6529H532.555C532.602 98.2396 532.625 98.8614 532.625 99.5184C532.648 100.152 532.66 100.821 532.66 101.525C532.684 102.229 532.695 102.956 532.695 103.707C532.719 104.458 532.731 105.244 532.731 106.065C532.731 106.863 532.731 107.684 532.731 108.529V116.272Z" fill="white"/>
<path d="M551.08 116.272V95.6819H545.906V92.4085H559.95V95.6819H554.776V116.272H551.08Z" fill="white"/>
<path d="M573.754 102.158V105.396H566.011V113.069H574.669L574.212 116.272H562.35V92.4085H574.106V95.6819H566.011V102.158H573.754Z" fill="white"/>
<path d="M583.283 105.819H581.066V116.272H577.405V92.4085H584.339C585.395 92.4085 586.322 92.5493 587.12 92.8309C587.941 93.1125 588.622 93.5348 589.161 94.098C589.724 94.6377 590.147 95.3064 590.428 96.1043C590.733 96.8786 590.886 97.782 590.886 98.8145C590.886 99.9877 590.71 100.95 590.358 101.701C590.029 102.428 589.619 103.003 589.126 103.425C588.657 103.848 588.199 104.141 587.753 104.305C588.246 104.493 588.668 104.763 589.02 105.115C589.372 105.443 589.654 105.854 589.865 106.347C590.1 106.816 590.264 107.379 590.358 108.036C590.475 108.67 590.534 109.421 590.534 110.289V111.239C590.534 111.896 590.534 112.471 590.534 112.964C590.557 113.433 590.581 113.867 590.604 114.266C590.651 114.642 590.687 114.994 590.71 115.322C590.757 115.627 590.816 115.944 590.886 116.272H587.261C587.19 115.991 587.12 115.674 587.049 115.322C587.002 114.947 586.967 114.536 586.944 114.09C586.92 113.644 586.897 113.175 586.873 112.682C586.873 112.189 586.873 111.697 586.873 111.204V110.359C586.873 109.256 586.768 108.376 586.557 107.719C586.369 107.062 586.017 106.581 585.501 106.276C584.984 105.971 584.245 105.819 583.283 105.819ZM581.066 95.4707V102.792H583.459C584.116 102.792 584.679 102.71 585.149 102.545C585.618 102.381 586.005 102.146 586.31 101.841C586.615 101.513 586.838 101.114 586.979 100.645C587.12 100.175 587.19 99.624 587.19 98.9904C587.19 98.263 587.061 97.6295 586.803 97.0898C586.568 96.5501 586.205 96.1512 585.712 95.8931C585.219 95.6115 584.586 95.4707 583.811 95.4707H581.066Z" fill="white"/>
</svg>
