<svg width="305" height="303" viewBox="0 0 305 303" fill="none" xmlns="http://www.w3.org/2000/svg">
<g clip-path="url(#clip0_995_1613)">
<g clip-path="url(#clip1_995_1613)">
<path d="M290.547 142.793C287.283 140.797 283.521 139.204 279.267 138.012C275.012 136.824 270.609 135.889 266.06 135.208V134.953C270.413 134.018 274.542 132.998 278.452 131.894C282.359 130.789 285.772 129.407 288.693 127.751C291.61 126.094 293.936 124.098 295.667 121.759C297.397 119.423 298.265 116.596 298.265 113.281C298.265 111.667 297.843 109.797 297.004 107.672C296.163 105.549 294.604 103.508 292.33 101.553C290.053 99.5986 286.888 97.9421 282.832 96.5822C278.775 95.2241 273.532 94.5416 267.1 94.5416C261.662 94.5416 256.911 95.0921 252.838 96.1844V55.3479H285.037C286.073 55.3479 287.011 54.7323 287.426 53.7789L292.962 41.0841H252.838V15.1254H297.388C298.445 15.1254 299.396 14.4857 299.8 13.5066L305 0.859863H235.324C234.603 0.859863 234.017 1.44461 234.015 2.16998C234.012 4.04255 234.005 7.41043 234.005 8.78914V83.2685C233.644 81.4713 233.06 79.7599 232.355 78.2509L215.267 39.522L199.2 2.85419C199.268 2.61754 199.275 2.37918 199.236 2.15283C199.195 1.92476 199.104 1.71212 198.974 1.52521C198.697 1.1308 198.243 0.859863 197.703 0.859863H181.321C181.188 0.859863 181.058 0.880441 180.935 0.918167C180.568 1.03306 180.262 1.30914 180.115 1.67954L141.449 98.6691C140.027 97.9129 138.479 97.2373 136.801 96.6422C132.842 95.2395 128.093 94.5382 122.554 94.5382C118.613 94.5382 115.089 94.8726 111.975 95.5396V55.3445H144.173C145.209 55.3445 146.147 54.7289 146.563 53.7754L152.098 41.0807H111.975V15.1219H156.525C157.581 15.1219 158.533 14.4823 158.936 13.5032L164.137 0.859863H94.4553C93.7375 0.859863 93.153 1.4429 93.153 2.16312C93.1496 4.03398 93.1428 7.407 93.1428 8.78743V83.2667C92.7822 81.4696 92.1977 79.7582 91.4935 78.2492L74.4047 39.5202L58.3345 2.85076C58.6079 1.86646 57.8748 0.859863 56.8237 0.859863H40.4561C39.9246 0.859863 39.446 1.18396 39.2478 1.67954L0.447141 99.0121H14.0974C13.9777 99.0498 13.853 99.0841 13.735 99.1236C11.4586 99.8918 9.6145 100.82 8.20283 101.908C6.78944 102.997 5.75375 104.148 5.09064 105.36C4.42753 106.574 4.09597 107.6 4.09597 108.442C4.09597 109.383 4.29764 110.112 4.70098 110.632C5.1026 111.151 5.57943 111.523 6.12803 111.745C6.67493 111.967 7.25088 112.105 7.85589 112.153C8.46089 112.202 8.96506 112.226 9.3684 112.226C10.6929 112.226 11.8448 111.992 12.8258 111.522C13.8051 111.052 14.2956 110.198 14.2956 108.96C14.2956 108.811 14.2665 108.54 14.2084 108.143C14.1503 107.747 14.0922 107.327 14.0358 106.881C13.9777 106.436 13.9196 106.015 13.8632 105.619C13.8051 105.223 13.776 104.95 13.776 104.803C13.776 103.567 13.9914 102.575 14.4238 101.833C14.8562 101.09 15.4184 100.509 16.1089 100.089C16.7994 99.6689 17.5633 99.3842 18.399 99.235C19.2331 99.0859 20.0551 99.0121 20.8618 99.0121C22.5315 99.0121 23.8714 99.3465 24.8815 100.014C25.8881 100.682 26.6538 101.622 27.1716 102.834C27.6895 104.049 28.0364 105.482 28.209 107.14C28.3816 108.799 28.4688 110.642 28.4688 112.671C28.4688 116.779 28.0364 120.293 27.1716 123.213C26.3068 126.134 24.8661 128.93 22.8494 131.602C20.8327 134.275 18.1393 137.084 14.769 140.029C11.5611 142.831 7.60807 146.163 2.91331 150.017C2.67404 150.213 2.43477 150.41 2.19379 150.609L1.67595 150.979V152.019H41.0867V136.798H39.8767C39.7605 138.679 39.3144 140.128 38.5368 141.142C37.7592 142.157 36.8654 142.899 35.857 143.369C34.8487 143.841 33.8831 144.112 32.9619 144.185C32.039 144.259 31.3759 144.297 30.9743 144.297H11.9593L24.7516 133.457L30.9743 127.963C32.8764 126.281 34.4163 124.673 35.599 123.138C36.7799 121.605 37.7011 120.168 38.3642 118.832C39.0256 117.496 39.487 116.284 39.7468 115.195C40.0066 114.106 40.1365 113.166 40.1365 112.374C40.1365 110.542 39.8049 108.761 39.1418 107.029C38.4787 105.297 37.414 103.762 35.9442 102.426C34.4744 101.09 32.5876 100.014 30.2838 99.1973C27.9783 98.3811 25.213 97.9729 21.9863 97.9729C21.4463 97.9729 20.9233 97.9884 20.4089 98.009L22.7178 92.2163C24.8439 89.1434 27.5972 87.1542 31.4938 85.6983C34.0608 84.7397 37.4208 84.1619 44.5629 86.4083C50.5173 88.2808 54.9745 90.2889 59.4659 93.1217C62.2687 94.8897 65.3707 96.7246 68.5341 98.0793C67.7155 98.009 66.8644 97.9729 65.9774 97.9729C62.8071 97.9729 60.0846 98.4925 57.8098 99.5317C55.5333 100.571 53.6175 101.907 52.0623 103.541C50.507 105.173 49.2526 107.019 48.3023 109.071C47.3521 111.126 46.6309 113.18 46.1421 115.234C45.6516 117.289 45.3218 119.219 45.1474 121.025C44.9748 122.833 44.8877 124.33 44.8877 125.516C44.8877 126.458 44.9167 127.793 44.9748 129.525C45.0312 131.259 45.2619 133.139 45.667 135.167C46.0686 137.197 46.689 139.264 47.5247 141.366C48.3587 143.47 49.5551 145.387 51.112 147.119C52.6673 148.853 54.6566 150.263 57.0749 151.352C59.4949 152.439 62.4618 152.984 65.9774 152.984C69.146 152.984 71.8685 152.476 74.1449 151.461C76.4197 150.448 78.3372 149.112 79.8925 147.452C81.4477 145.794 82.7022 143.95 83.6524 141.922C84.6026 139.893 85.3221 137.851 85.8126 135.796C86.3014 133.744 86.633 131.813 86.8073 130.006C86.9799 128.2 87.0671 126.701 87.0671 125.514C87.0671 124.575 87.038 123.249 86.9799 121.543C86.9218 119.835 86.6911 117.956 86.2895 115.901C85.8861 113.849 85.2658 111.757 84.4317 109.628C83.596 107.5 82.4014 105.582 80.8444 103.875C79.5062 102.407 77.8485 101.161 75.8711 100.13C77.1734 100.298 78.4073 100.382 79.5746 100.382C81.9365 100.382 84.0147 100.034 85.8058 99.3465C86.4023 99.1167 87.038 99.0104 87.6755 99.0104H102.469C101.131 99.7203 99.9346 100.482 98.8801 101.296C96.4549 103.167 94.6741 105.143 93.5376 107.224C92.3993 109.308 91.8302 111.071 91.8302 112.515C91.8302 114.13 92.1754 115.383 92.8693 116.275C93.5598 117.167 94.3767 117.805 95.3184 118.187C96.2567 118.57 97.2479 118.804 98.287 118.888C99.3261 118.974 100.191 119.015 100.885 119.015C103.16 119.015 105.137 118.612 106.82 117.805C108.502 116.997 109.343 115.533 109.343 113.406C109.343 113.151 109.292 112.686 109.194 112.004C109.095 111.324 108.994 110.601 108.897 109.836C108.798 109.071 108.697 108.349 108.599 107.668C108.5 106.989 108.451 106.521 108.451 106.266C108.451 104.143 108.822 102.442 109.563 101.166C110.305 99.8918 111.271 98.8938 112.457 98.1701C113.645 97.4482 114.954 96.9595 116.389 96.704C117.823 96.4485 119.231 96.3216 120.619 96.3216C123.487 96.3216 125.787 96.896 127.52 98.0432C129.25 99.1904 130.562 100.806 131.453 102.888C132.343 104.971 132.936 107.435 133.234 110.282C133.49 112.741 133.635 115.438 133.67 118.371L141.461 99.0087H159.991C160.524 99.0087 161.004 98.6829 161.202 98.1856L163.583 92.2112C165.709 89.1382 168.462 87.1491 172.359 85.6932C174.926 84.7346 178.286 84.1567 185.428 86.4031C191.383 88.2757 195.84 90.2837 200.331 93.1166C204.923 96.0129 210.312 99.0876 215.467 99.9381C217.242 100.231 218.898 100.377 220.436 100.377C222.798 100.377 224.877 100.029 226.668 99.3414C227.264 99.1116 227.9 99.0053 228.537 99.0053H239.602L247.14 117.09C247.766 117.081 248.429 117.062 249.14 117.035C250.227 116.994 251.24 116.779 252.182 116.397C253.122 116.014 253.912 115.421 254.556 114.612C255.199 113.804 255.52 112.636 255.52 111.107C255.52 110.851 255.469 110.364 255.371 109.64C255.272 108.919 255.149 108.133 255 107.283C254.852 106.434 254.703 105.647 254.554 104.925C254.406 104.203 254.332 103.671 254.332 103.332C254.332 100.782 255.371 98.9778 257.448 97.9129C259.526 96.8514 261.949 96.3199 264.72 96.3199C268.281 96.3199 271.026 96.9372 272.956 98.1684C274.885 99.4014 276.295 100.89 277.186 102.63C278.076 104.373 278.596 106.135 278.744 107.921C278.893 109.706 278.966 111.194 278.966 112.382C278.966 117.143 278.322 120.903 277.037 123.664C275.75 126.427 274.217 128.553 272.436 130.038C270.655 131.527 268.823 132.525 266.945 133.034C265.065 133.543 263.532 133.926 262.344 134.181C259.699 134.624 257.203 135.102 254.857 135.613L255.552 137.282C257.624 136.834 259.787 136.604 262.047 136.604C266.894 136.604 270.63 137.348 273.251 138.835C275.871 140.324 277.779 142.213 278.965 144.508C280.153 146.802 280.843 149.289 281.043 151.965C281.239 154.642 281.34 157.172 281.34 159.55C281.34 163.204 281.092 166.711 280.599 170.067C280.103 173.425 279.064 176.377 277.483 178.927C276.647 180.273 275.624 181.476 274.415 182.537C273.335 183.487 272.108 184.324 270.731 185.048C267.811 186.577 263.927 187.342 259.08 187.342C254.529 187.342 250.67 186.663 247.504 185.303C244.338 183.945 241.716 182.307 239.639 180.395C237.561 178.483 235.979 176.443 234.89 174.275C233.8 172.108 233.109 170.218 232.812 168.602L230.438 169.24C231.426 172.98 232.887 176.105 234.816 178.61C236.746 181.117 239.046 183.136 241.718 184.665C244.389 186.195 247.38 187.301 250.697 187.98C254.011 188.659 257.497 189 261.16 189C266.887 189 271.956 188.407 276.369 187.22C277.368 186.951 278.334 186.653 279.266 186.323C284.311 184.538 288.467 182.288 291.731 179.567C294.996 176.847 297.419 173.81 299.003 170.453C300.584 167.097 301.377 163.887 301.377 160.828C301.377 156.664 300.388 153.114 298.409 150.182C296.428 147.25 293.808 144.786 290.544 142.788L290.547 142.793ZM27.5015 80.2229L55.2872 10.5262L66.5636 38.4022C66.6559 38.608 75.8284 59.0931 79.1439 69.7626C80.6957 74.7527 82.0732 80.4013 78.756 84.2922C76.794 86.5952 74.4116 87.4183 71.9078 87.4183C68.1889 87.4183 64.2051 85.6006 60.9425 84.1121C60.6109 83.9612 60.2879 83.8138 59.9752 83.6731C52.5972 80.3498 44.674 77.3095 36.7133 77.5667C33.613 77.6679 30.5555 78.5459 27.5015 80.2229ZM57.8594 84.179C53.4739 82.1161 48.9706 80.403 44.1083 79.3518C41.6781 78.8357 39.2085 78.5167 36.7269 78.563C36.621 78.5647 36.5167 78.5716 36.4107 78.575C36.5218 78.5699 36.6329 78.563 36.744 78.5596C44.4963 78.3092 52.2998 81.305 59.5684 84.5786C59.8812 84.7192 60.2025 84.8666 60.5323 85.0158C63.7488 86.4837 67.9394 88.3957 71.9368 88.3957C74.6782 88.3957 77.3272 87.4955 79.508 84.9387C83.1517 80.6637 81.7177 74.7116 80.0873 69.4694C78.8363 65.4447 76.7598 60.0396 74.6491 54.8455C77.3204 61.1937 80.0207 67.8883 81.1862 71.6352C81.1862 71.6403 81.1914 71.6506 81.1931 71.6558C82.6799 75.9977 83.8404 81.1129 81.6494 84.997C81.3213 85.5834 80.9179 86.1305 80.4394 86.6415C78.4244 88.7918 75.9343 89.5944 73.1571 89.5446C72.265 89.5326 71.3489 89.428 70.4192 89.2548C67.4403 88.6992 64.4085 87.3188 61.7526 86.0413C61.4125 85.8784 61.0792 85.7189 60.7545 85.5611C59.7889 85.0981 58.8233 84.6334 57.8577 84.179H57.8594ZM61.5373 87.4474C60.8929 87.1199 60.2537 86.7907 59.6146 86.4631C60.0213 86.6535 60.4298 86.8421 60.8365 87.0307C61.1647 87.1834 61.4997 87.3394 61.8415 87.4972C63.7471 88.3752 65.897 89.3166 68.1188 89.9391C69.5066 90.3283 70.9011 90.6095 72.2667 90.7244C72.7931 90.7673 73.316 90.7862 73.8322 90.7776C76.8384 90.709 79.5797 89.6887 81.7451 87.1096C85.3239 82.8346 84.2625 76.9734 82.5945 71.961C82.521 71.7124 82.3501 71.2528 82.2749 71.0076C82.1365 70.5651 81.9775 70.0781 81.7998 69.5603C82.4475 71.2219 82.9517 72.5938 83.2405 73.5232C83.2405 73.5266 83.2474 73.5403 83.2491 73.5438C84.8795 77.9011 85.987 83.313 83.4627 87.3377C83.0918 87.9362 82.6441 88.4815 82.1279 88.9839C80.0685 90.9868 77.4605 91.7568 74.4116 91.6659C73.4921 91.6384 72.5401 91.5321 71.5626 91.3555C68.5119 90.8033 65.3758 89.38 62.5678 87.9653C62.2192 87.7904 61.8756 87.6172 61.539 87.4457L61.5373 87.4474ZM66.3038 91.3332C67.4249 91.767 68.5768 92.1529 69.7407 92.441C71.2242 92.8079 72.6854 93.0532 74.0937 93.1406C74.6474 93.1732 75.1926 93.1818 75.7275 93.1612C78.9987 93.0257 81.8323 91.8837 83.9822 89.284C86.8876 85.7549 86.8876 81.2038 85.8742 76.9905C87.2602 81.0992 87.7969 85.9933 85.2692 89.6818C84.8539 90.2906 84.3651 90.8376 83.8079 91.3315C81.7075 93.1921 78.9798 93.9294 75.6574 93.7905C74.7106 93.7511 73.7228 93.6379 72.6974 93.4596C70.5781 93.0874 68.4059 92.2918 66.3021 91.3332H66.3038ZM75.184 137.542C75.0388 140.908 74.6508 143.655 74.0168 145.784C73.3827 147.912 72.4461 149.484 71.2071 150.498C69.968 151.513 68.2248 152.02 65.9791 152.02C63.7334 152.02 61.9884 151.513 60.7494 150.498C59.5103 149.484 58.5738 147.912 57.9397 145.784C57.3056 143.655 56.916 140.908 56.7724 137.542C56.6289 134.178 56.5571 130.168 56.5571 125.514C56.5571 120.86 56.6289 116.791 56.7724 113.451C56.916 110.11 57.3039 107.375 57.9397 105.247C58.5738 103.119 59.5086 101.548 60.7494 100.533C61.9884 99.5197 63.7317 99.0104 65.9791 99.0104C68.2265 99.0104 69.968 99.4683 71.2071 100.384C72.4461 101.3 73.381 102.81 74.0168 104.913C74.6508 107.017 75.0388 109.752 75.184 113.116C75.3276 116.483 75.3994 120.615 75.3994 125.514C75.3994 130.414 75.3259 134.176 75.184 137.542ZM73.8373 95.5619C72.9093 95.4042 71.9693 95.1624 71.0276 94.8606C71.1387 94.8863 71.2498 94.9172 71.3609 94.9412C72.9418 95.2858 74.4679 95.4968 75.9206 95.5533C76.5 95.5756 77.0674 95.5722 77.6229 95.5431C81.1606 95.339 84.0848 94.0752 86.2177 91.4567C88.5642 88.5621 89.1043 85.0141 88.7197 81.5502C89.4888 85.1119 89.323 88.9891 87.079 92.026C86.621 92.6467 86.0912 93.1955 85.493 93.6791C83.3567 95.4024 80.5026 96.1107 76.9085 95.9152C75.9343 95.8654 74.9106 95.7454 73.8373 95.5636V95.5619ZM88.8872 94.3667C86.5339 97.3453 82.6406 98.52 77.0298 97.9404C77.2708 97.9524 77.5101 97.9627 77.7459 97.9661C78.3526 97.9764 78.9422 97.9627 79.5148 97.9232C83.3174 97.6506 86.3339 96.2667 88.4514 93.6259C90.3314 91.2749 91.1073 88.5141 91.1757 85.7258C91.4337 88.7455 90.8731 91.8494 88.8855 94.365L88.8872 94.3667ZM168.363 80.2212L196.149 10.5245L207.425 38.4005C207.518 38.6062 216.69 59.0914 220.006 69.7609C221.558 74.751 222.935 80.3996 219.618 84.2905C217.656 86.5935 215.273 87.4166 212.77 87.4166C209.051 87.4166 205.067 85.5989 201.804 84.1104C201.473 83.9595 201.152 83.812 200.837 83.6714C193.459 80.3481 185.536 77.3043 177.575 77.565C174.475 77.6662 171.419 78.5441 168.363 80.2212ZM198.721 84.1773C194.336 82.1144 189.832 80.3996 184.972 79.3484C182.542 78.8322 180.072 78.5133 177.591 78.5613C177.485 78.563 177.38 78.5699 177.276 78.5733C177.387 78.5682 177.498 78.5613 177.608 78.5579C185.363 78.3092 193.163 81.3033 200.432 84.5769C200.745 84.7175 201.066 84.8649 201.396 85.0141C204.612 86.482 208.803 88.394 212.8 88.394C215.542 88.394 218.191 87.4937 220.372 84.9352C224.015 80.6585 222.581 74.7081 220.951 69.4659C219.7 65.4413 217.623 60.0362 215.513 54.8421C218.184 61.1903 220.884 67.8866 222.05 71.6318C222.052 71.6386 222.055 71.6455 222.057 71.6523C223.556 75.9908 224.706 81.1095 222.513 84.9936C222.185 85.58 221.782 86.127 221.303 86.638C219.288 88.7884 216.798 89.591 214.021 89.5412C213.129 89.5292 212.213 89.4246 211.283 89.2514C208.304 88.6958 205.272 87.3154 202.616 86.0379C202.276 85.875 201.943 85.7155 201.618 85.5594C200.652 85.0964 199.687 84.6317 198.721 84.1773ZM202.401 87.4457C201.757 87.1182 201.117 86.7907 200.478 86.4614C200.885 86.6518 201.293 86.8404 201.698 87.029C202.027 87.1816 202.362 87.3377 202.703 87.4937C204.609 88.3717 206.759 89.3131 208.981 89.9356C210.368 90.3249 211.763 90.6061 213.129 90.721C213.655 90.7639 214.178 90.7828 214.694 90.7742C217.7 90.7056 220.442 89.6853 222.607 87.1062C226.186 82.8295 225.124 76.97 223.456 71.9576C223.383 71.7089 223.212 71.2494 223.137 71.0041C222.998 70.5617 222.839 70.0747 222.66 69.5551C223.308 71.2168 223.812 72.5886 224.101 73.5198C224.104 73.5266 224.106 73.5335 224.109 73.5403C225.757 77.8925 226.847 83.3096 224.323 87.3343C223.952 87.9327 223.504 88.478 222.988 88.9805C220.929 90.9834 218.321 91.7533 215.272 91.6624C214.352 91.635 213.4 91.5287 212.423 91.3521C209.372 90.7999 206.236 89.3766 203.43 87.9619C203.081 87.787 202.738 87.6138 202.403 87.4423L202.401 87.4457ZM210.604 92.4392C212.088 92.8062 213.549 93.0514 214.957 93.1389C215.511 93.1715 216.056 93.18 216.591 93.1595C219.862 93.024 222.696 91.8819 224.846 89.2823C227.765 85.7361 227.751 81.1575 226.724 76.9271C228.136 81.0443 228.674 85.9727 226.134 89.6801C225.719 90.2889 225.23 90.8359 224.673 91.3298C222.573 93.1903 219.845 93.9294 216.523 93.7888C215.576 93.7494 214.588 93.6362 213.563 93.4578C211.443 93.0857 209.271 92.2901 207.167 91.3315C208.289 91.7653 209.44 92.1512 210.604 92.4392ZM214.701 95.5602C213.773 95.4024 212.835 95.1606 211.891 94.8588C212.002 94.8846 212.113 94.9154 212.224 94.9394C213.805 95.2841 215.332 95.495 216.784 95.5516C217.364 95.5739 217.931 95.5705 218.486 95.5413C222.024 95.3373 224.948 94.0735 227.081 91.4549C229.448 88.5363 229.978 84.9507 229.573 81.4576C230.364 85.0433 230.205 88.9616 227.943 92.0243C227.485 92.645 226.955 93.1938 226.357 93.6773C224.22 95.4007 221.366 96.1089 217.772 95.9134C216.798 95.862 215.774 95.7437 214.701 95.5619V95.5602ZM229.753 94.365C227.399 97.3436 223.506 98.5182 217.895 97.9386C218.136 97.9506 218.375 97.9609 218.611 97.9644C219.218 97.9747 219.808 97.9609 220.38 97.9215C224.183 97.6488 227.199 96.265 229.317 93.6242C231.197 91.2749 231.971 88.5123 232.041 85.7241C232.299 88.7438 231.738 91.8476 229.751 94.3633L229.753 94.365Z" fill="#DA4B3C"/>
<path d="M150.97 168.671C149.634 170.413 148.099 171.689 146.37 172.495C144.637 173.305 142.979 173.769 141.398 173.898C139.814 174.025 138.675 174.09 137.985 174.09H111.254L116.639 160.708C114.689 163.353 102.129 175.812 88.5677 184.924L87.6773 185.562V187.347H155.351V161.213H153.272C153.073 164.444 152.309 166.931 150.972 168.671H150.97Z" fill="#DA4B3C"/>
<path d="M155.563 108.951L153.712 131.722H155.951L156.217 127.288H158.148L158.4 131.722H160.729L158.878 108.951H155.563ZM156.34 125.221L157.055 113.296L157.195 110.82L157.354 113.296L158.03 125.221H156.34Z" fill="#DA4B3C"/>
<path d="M166.827 120.175C167.3 119.777 167.673 119.259 167.94 118.614C168.268 117.825 168.432 116.681 168.432 115.183C168.432 113.684 168.283 112.446 167.984 111.527C167.685 110.608 167.208 109.949 166.55 109.55C165.894 109.15 165.046 108.951 164.012 108.951H161.773V131.722H164.043V121.174C164.349 121.174 164.638 121.155 164.909 121.119L166.193 131.722H168.403L166.827 120.173V120.175ZM165.925 117.791C165.784 118.389 165.586 118.791 165.328 118.99C165.068 119.19 164.74 119.29 164.342 119.29H164.043V111.079H164.342C164.74 111.079 165.068 111.179 165.328 111.379C165.586 111.58 165.786 111.974 165.925 112.562C166.063 113.152 166.133 114.025 166.133 115.184C166.133 116.344 166.063 117.192 165.925 117.791Z" fill="#DA4B3C"/>
<path d="M173.39 131.722V111.079H175.54V108.951H168.881V111.079H171.031V131.722H173.39Z" fill="#DA4B3C"/>
<path d="M179.571 131.722H181.841V121.536H184.08V119.288H181.841V111.079H184.379V108.951H179.571V131.722Z" fill="#DA4B3C"/>
<path d="M186.139 108.951L184.288 131.722H186.527L186.794 127.288H188.725L188.976 131.722H191.306L189.455 108.951H186.139ZM186.917 125.221L187.631 113.296L187.771 110.82L187.93 113.296L188.607 125.221H186.917Z" fill="#DA4B3C"/>
<path d="M194.679 108.951H192.35V131.722H194.679V108.951Z" fill="#DA4B3C"/>
<path d="M202.519 118.614C202.847 117.825 203.011 116.681 203.011 115.183C203.011 113.684 202.862 112.446 202.563 111.527C202.264 110.608 201.787 109.949 201.129 109.55C200.473 109.15 199.625 108.951 198.591 108.951H196.353V131.722H198.622V121.174C198.928 121.174 199.217 121.155 199.489 121.119L200.772 131.722H202.982L201.406 120.173C201.88 119.775 202.252 119.257 202.519 118.612V118.614ZM200.504 117.791C200.364 118.389 200.165 118.791 199.907 118.99C199.648 119.19 199.319 119.29 198.921 119.29H198.622V111.079H198.921C199.319 111.079 199.648 111.179 199.907 111.379C200.165 111.58 200.365 111.974 200.504 112.562C200.642 113.152 200.712 114.025 200.712 115.184C200.712 116.344 200.642 117.192 200.504 117.791Z" fill="#DA4B3C"/>
<path d="M209.218 127.289H211.15L211.401 131.724H213.73L211.879 108.953H208.565L206.715 131.724H208.953L209.22 127.289H209.218ZM210.057 113.296L210.198 110.82L210.357 113.296L211.033 125.221H209.343L210.057 113.296Z" fill="#DA4B3C"/>
<path d="M219.09 121.492C218.702 120.562 218.309 119.648 217.911 118.75C217.512 117.851 217.179 116.911 216.911 115.934C216.642 114.955 216.507 113.897 216.507 112.758C216.507 112.16 216.596 111.674 216.776 111.306C216.955 110.937 217.143 110.752 217.343 110.752C217.543 110.752 217.711 110.877 217.851 111.126C217.989 111.376 218.099 111.794 218.179 112.384C218.257 112.974 218.298 113.768 218.298 114.766V116.205H220.389V114.646C220.389 113.087 220.259 111.885 220.001 111.036C219.741 110.188 219.384 109.603 218.926 109.284C218.468 108.965 217.929 108.804 217.314 108.804C216.419 108.804 215.69 109.193 215.135 109.971C214.578 110.75 214.299 111.709 214.299 112.847C214.299 114.145 214.434 115.318 214.703 116.368C214.971 117.417 215.299 118.405 215.689 119.334C216.077 120.264 216.47 121.178 216.868 122.076C217.266 122.975 217.594 123.899 217.854 124.847C218.112 125.796 218.242 126.809 218.242 127.888C218.242 128.227 218.213 128.551 218.153 128.862C218.093 129.172 218.008 129.426 217.899 129.627C217.789 129.827 217.635 129.927 217.435 129.927C217.256 129.927 217.092 129.801 216.943 129.553C216.795 129.304 216.68 128.889 216.6 128.31C216.519 127.73 216.48 126.941 216.48 125.943V124.775H214.33V126.034C214.33 127.572 214.465 128.771 214.733 129.63C215.002 130.489 215.376 131.079 215.853 131.398C216.331 131.717 216.868 131.878 217.466 131.878C218.143 131.878 218.705 131.688 219.153 131.309C219.601 130.93 219.934 130.426 220.153 129.796C220.372 129.167 220.481 128.493 220.481 127.775C220.481 126.557 220.346 125.437 220.078 124.419C219.809 123.4 219.481 122.426 219.091 121.497L219.09 121.492Z" fill="#DA4B3C"/>
<path d="M224.003 108.951H221.674V131.722H224.003V108.951Z" fill="#DA4B3C"/>
<path d="M226.9 108.951L225.049 131.722H227.288L227.555 127.288H229.486L229.737 131.722H232.067L230.216 108.951H226.9ZM227.678 125.221L228.392 113.296L228.532 110.82L228.691 113.296L229.368 125.221H227.678Z" fill="#DA4B3C"/>
<path d="M166.88 159.461H169.15V149.273H171.388V147.027H169.15V138.816H171.687V136.69H166.88V159.461Z" fill="#DA4B3C"/>
<path d="M176.914 136.69V150.683C176.914 152.161 176.888 153.354 176.839 154.263C176.789 155.172 176.724 155.877 176.644 156.376C176.563 156.875 176.459 157.214 176.331 157.395C176.201 157.575 176.058 157.664 175.899 157.664C175.699 157.664 175.54 157.575 175.42 157.395C175.3 157.214 175.201 156.875 175.121 156.376C175.041 155.877 174.972 155.172 174.912 154.263C174.853 153.354 174.824 152.161 174.824 150.683V136.69H172.525V151.851C172.525 153.888 172.645 155.471 172.884 156.599C173.123 157.727 173.485 158.513 173.974 158.952C174.461 159.391 175.104 159.61 175.9 159.61C176.697 159.61 177.309 159.391 177.796 158.952C178.283 158.513 178.642 157.729 178.871 156.599C179.1 155.471 179.214 153.888 179.214 151.851V136.69H176.914Z" fill="#DA4B3C"/>
<path d="M185.191 147.251L187.841 136.69H185.691L183.065 147.205V136.69H180.764V159.461H183.065V147.865L185.722 159.461H187.99L185.191 147.251Z" fill="#DA4B3C"/>
<path d="M191.663 157.393C191.543 157.213 191.444 156.873 191.364 156.374C191.284 155.875 191.215 155.17 191.155 154.262C191.096 153.353 191.066 152.159 191.066 150.681V136.688H188.768V151.849C188.768 153.886 188.887 155.469 189.127 156.597C189.366 157.725 189.728 158.511 190.217 158.95C190.704 159.389 191.347 159.608 192.143 159.608C192.94 159.608 193.551 159.389 194.039 158.95C194.526 158.511 194.885 157.727 195.114 156.597C195.343 155.469 195.457 153.886 195.457 151.849V136.688H193.158V150.681C193.158 152.159 193.133 153.353 193.083 154.262C193.034 155.17 192.969 155.875 192.888 156.374C192.808 156.873 192.704 157.213 192.576 157.393C192.446 157.573 192.302 157.662 192.143 157.662C191.943 157.662 191.784 157.573 191.665 157.393H191.663Z" fill="#DA4B3C"/>
<path d="M202.727 157.588C203.016 156.799 203.235 155.64 203.384 154.112C203.532 152.584 203.607 150.573 203.607 148.074C203.607 145.576 203.532 143.565 203.384 142.037C203.235 140.509 203.014 139.35 202.727 138.561C202.438 137.772 202.074 137.239 201.637 136.957C201.199 136.678 200.7 136.537 200.143 136.537C199.586 136.537 199.118 136.678 198.68 136.957C198.243 137.237 197.879 137.772 197.59 138.561C197.301 139.35 197.082 140.509 196.934 142.037C196.785 143.565 196.71 145.578 196.71 148.074C196.71 150.571 196.785 152.584 196.934 154.112C197.082 155.64 197.301 156.799 197.59 157.588C197.879 158.377 198.241 158.912 198.68 159.192C199.118 159.471 199.607 159.612 200.143 159.612C200.68 159.612 201.198 159.471 201.637 159.192C202.074 158.912 202.438 158.379 202.727 157.588ZM201.145 152.989C201.095 154.248 201.025 155.217 200.936 155.896C200.847 156.575 200.736 157.04 200.608 157.288C200.478 157.539 200.324 157.662 200.145 157.662C199.965 157.662 199.817 157.537 199.697 157.288C199.578 157.04 199.473 156.575 199.383 155.896C199.294 155.217 199.224 154.248 199.174 152.989C199.125 151.73 199.099 150.093 199.099 148.076C199.099 146.06 199.123 144.42 199.174 143.162C199.224 141.903 199.294 140.934 199.383 140.255C199.472 139.576 199.578 139.111 199.697 138.863C199.817 138.614 199.965 138.489 200.145 138.489C200.324 138.489 200.478 138.614 200.608 138.863C200.738 139.113 200.847 139.578 200.936 140.255C201.025 140.934 201.095 141.903 201.145 143.162C201.194 144.42 201.22 146.058 201.22 148.076C201.22 150.095 201.194 151.732 201.145 152.989Z" fill="#DA4B3C"/>
<path d="M212.059 136.69H209.909L207.282 147.205V136.69H204.982V159.461H207.282V147.865L209.94 159.461H212.209L209.408 147.251L212.059 136.69Z" fill="#DA4B3C"/>
<path d="M214.357 136.69L212.506 159.461H214.745L215.012 155.026H216.943L217.194 159.461H219.524L217.673 136.69H214.357ZM215.135 152.96L215.849 141.035L215.989 138.559L216.148 141.035L216.825 152.96H215.135Z" fill="#DA4B3C"/>
<path d="M182.482 178.538C182.87 177.48 183.253 176.461 183.632 175.482C184.01 174.503 184.329 173.526 184.587 172.547C184.845 171.567 184.975 170.509 184.975 169.371C184.975 167.613 184.71 166.325 184.184 165.506C183.656 164.688 182.914 164.278 181.959 164.278C181.003 164.278 180.228 164.708 179.689 165.566C179.151 166.425 178.882 167.843 178.882 169.82V171.857H181.032V169.969C181.032 168.611 181.111 167.647 181.272 167.078C181.431 166.509 181.631 166.224 181.868 166.224C182.126 166.224 182.342 166.493 182.511 167.033C182.68 167.574 182.765 168.402 182.765 169.52C182.765 170.539 182.63 171.507 182.362 172.427C182.094 173.346 181.769 174.275 181.391 175.213C181.014 176.153 180.634 177.166 180.257 178.253C179.879 179.342 179.554 180.56 179.286 181.909C179.018 183.259 178.882 184.782 178.882 186.479V187.198H184.676V185.07H181.157C181.212 183.988 181.328 182.988 181.509 182.074C181.767 180.776 182.092 179.598 182.48 178.538H182.482Z" fill="#DA4B3C"/>
<path d="M191.738 166.299C191.449 165.511 191.09 164.977 190.663 164.696C190.234 164.417 189.752 164.276 189.216 164.276C188.679 164.276 188.195 164.417 187.768 164.696C187.339 164.976 186.982 165.511 186.693 166.299C186.404 167.088 186.191 168.247 186.05 169.775C185.91 171.303 185.842 173.316 185.842 175.813C185.842 178.31 185.912 180.323 186.05 181.851C186.189 183.379 186.404 184.538 186.693 185.327C186.982 186.116 187.339 186.651 187.768 186.93C188.195 187.21 188.679 187.35 189.216 187.35C189.752 187.35 190.236 187.21 190.663 186.93C191.09 186.651 191.449 186.118 191.738 185.327C192.027 184.538 192.246 183.379 192.394 181.851C192.543 180.323 192.618 178.312 192.618 175.813C192.618 173.315 192.543 171.303 192.394 169.775C192.246 168.247 192.025 167.088 191.738 166.299ZM190.171 180.726C190.132 181.985 190.072 182.954 189.991 183.633C189.911 184.312 189.807 184.777 189.679 185.025C189.549 185.276 189.395 185.399 189.216 185.399C189.036 185.399 188.887 185.274 188.768 185.025C188.648 184.777 188.549 184.312 188.469 183.633C188.388 182.954 188.329 181.985 188.289 180.726C188.25 179.467 188.229 177.83 188.229 175.813C188.229 173.797 188.248 172.157 188.289 170.899C188.329 169.64 188.388 168.671 188.469 167.992C188.547 167.313 188.648 166.848 188.768 166.6C188.887 166.351 189.036 166.226 189.216 166.226C189.395 166.226 189.549 166.351 189.679 166.6C189.809 166.85 189.913 167.315 189.991 167.992C190.07 168.671 190.13 169.64 190.171 170.899C190.21 172.157 190.231 173.795 190.231 175.813C190.231 177.832 190.21 179.469 190.171 180.726Z" fill="#DA4B3C"/>
<path d="M197.173 178.538C197.561 177.48 197.944 176.461 198.323 175.482C198.701 174.503 199.02 173.526 199.278 172.547C199.537 171.567 199.666 170.509 199.666 169.371C199.666 167.613 199.402 166.325 198.875 165.506C198.347 164.688 197.605 164.278 196.65 164.278C195.695 164.278 194.919 164.708 194.38 165.566C193.842 166.425 193.574 167.843 193.574 169.82V171.857H195.724V169.969C195.724 168.611 195.802 167.647 195.963 167.078C196.122 166.509 196.322 166.224 196.559 166.224C196.817 166.224 197.033 166.493 197.202 167.033C197.371 167.574 197.457 168.402 197.457 169.52C197.457 170.539 197.322 171.507 197.053 172.427C196.785 173.346 196.46 174.275 196.083 175.213C195.705 176.153 195.325 177.166 194.948 178.253C194.57 179.342 194.245 180.56 193.977 181.909C193.709 183.259 193.574 184.782 193.574 186.479V187.198H199.367V185.07H195.848C195.903 183.988 196.019 182.988 196.2 182.074C196.459 180.776 196.783 179.598 197.171 178.538H197.173Z" fill="#DA4B3C"/>
<path d="M206.221 173.49C206.569 172.641 206.744 171.468 206.744 169.969C206.744 167.911 206.475 166.449 205.937 165.579C205.399 164.71 204.623 164.276 203.607 164.276C202.592 164.276 201.786 164.706 201.249 165.564C200.711 166.423 200.442 167.841 200.442 169.818V171.855H202.532V169.967C202.532 168.589 202.621 167.62 202.801 167.061C202.98 166.502 203.209 166.222 203.488 166.222C203.766 166.222 203.995 166.512 204.175 167.092C204.354 167.671 204.443 168.68 204.443 170.118C204.443 171.218 204.389 172.061 204.279 172.649C204.17 173.239 203.995 173.644 203.756 173.863C203.517 174.083 203.208 174.193 202.83 174.193H202.174V176.41H202.83C203.208 176.41 203.517 176.54 203.756 176.799C203.995 177.06 204.17 177.523 204.279 178.192C204.389 178.86 204.443 179.816 204.443 181.054C204.443 182.292 204.399 183.135 204.308 183.765C204.219 184.394 204.103 184.825 203.965 185.053C203.825 185.282 203.655 185.397 203.457 185.397C203.278 185.397 203.119 185.293 202.979 185.083C202.838 184.874 202.729 184.49 202.65 183.929C202.57 183.37 202.531 182.611 202.531 181.652V178.716H200.441V181.803C200.441 183.861 200.704 185.3 201.232 186.118C201.76 186.937 202.531 187.345 203.546 187.345C204.223 187.345 204.806 187.17 205.293 186.821C205.78 186.471 206.144 185.841 206.383 184.933C206.622 184.024 206.742 182.75 206.742 181.112C206.742 179.474 206.568 178.171 206.219 177.262C205.87 176.353 205.399 175.69 204.8 175.27C205.397 174.93 205.87 174.337 206.219 173.486L206.221 173.49Z" fill="#DA4B3C"/>
<path d="M1.95277 286.899H5.9981L10.3237 299.142H9.67769L14.0033 286.899H18.0486V302.015H14.863V291.714L15.186 291.779L11.5696 302.015H8.44888L4.81201 291.714L5.13503 291.649V302.015H1.95277V286.899Z" fill="#DA4B3C"/>
<path d="M24.6576 286.899H27.8638L33.6096 302.015H30.4035L25.8198 289.965H26.7017L22.118 302.015H18.9118L24.6576 286.899ZM22.3555 295.775H30.1676V298.215H22.3555V295.775Z" fill="#DA4B3C"/>
<path d="M34.4727 286.899H39.9605C40.6629 286.899 41.4422 287 42.295 287.201C43.1478 287.403 43.9272 287.835 44.6296 288.497C45.332 289.159 45.6841 290.109 45.6841 291.347C45.6841 292.815 45.1491 293.82 44.081 294.36C43.0111 294.9 41.4952 295.169 39.5298 295.169V294.845C41.4815 294.845 42.8368 294.914 43.5973 295.051C44.3578 295.188 44.874 295.497 45.1474 295.98C45.4192 296.462 45.5986 297.323 45.6858 298.561L45.9233 302.016H42.6949L42.4574 298.28C42.4147 297.604 42.3497 297.1 42.2643 296.769C42.1788 296.438 41.9959 296.19 41.7157 296.025C41.4354 295.86 41.0013 295.776 40.4134 295.776H37.6584V302.016H34.4727V286.899ZM41.2303 293.194C41.6456 293.101 41.9618 292.913 42.1771 292.633C42.3924 292.352 42.5001 291.925 42.5001 291.349C42.5001 290.772 42.3924 290.34 42.1771 290.052C41.9618 289.764 41.6456 289.574 41.2303 289.48C40.8133 289.387 40.2476 289.339 39.5298 289.339H37.6567V293.334H39.5298C40.2476 293.334 40.8133 293.288 41.2303 293.194Z" fill="#DA4B3C"/>
<path d="M47.6426 286.899H50.8283V302.015H47.6426V286.899Z" fill="#DA4B3C"/>
<path d="M52.7646 286.899H56.3587L63.0736 298.386L62.5779 298.517V286.899H65.7636V302.015H61.9541L55.4546 290.894L55.9502 290.764V302.015H52.7646V286.899Z" fill="#DA4B3C"/>
<path d="M67.7001 286.899H70.8858V302.015H67.7001V286.899ZM69.163 286.899H77.7715V289.339H69.163V286.899ZM69.163 292.945H76.6948V295.385H69.163V292.945ZM69.163 299.575H77.7715V302.015H69.163V299.575Z" fill="#DA4B3C"/>
<path d="M86.5527 286.899L90.8783 299.142H90.2323L94.5579 286.899H98.6032V302.015H95.4175V291.714L95.7405 291.779L92.1242 302.015H89.0034L85.3666 291.714L85.6896 291.649V302.015H82.5039V286.899H86.5527Z" fill="#DA4B3C"/>
<path d="M100.543 286.899H103.729V302.015H100.543V286.899ZM102.006 286.899H110.614V289.339H102.006V286.899ZM102.006 292.945H109.539V295.385H102.006V292.945ZM102.006 299.575H110.614V302.015H102.006V299.575Z" fill="#DA4B3C"/>
<path d="M114.617 301.605C113.67 301.101 112.946 300.37 112.443 299.413C111.941 298.456 111.689 297.308 111.689 295.968L114.875 295.752C114.803 297.121 115.054 298.156 115.629 298.861C116.203 299.566 117.006 299.919 118.038 299.919C118.943 299.919 119.609 299.7 120.04 299.261C120.47 298.822 120.686 298.292 120.686 297.673C120.686 297.126 120.564 296.687 120.32 296.356C120.076 296.025 119.677 295.756 119.125 295.546C118.573 295.337 117.758 295.125 116.683 294.91C115.75 294.723 114.95 294.428 114.284 294.025C113.617 293.622 113.103 293.129 112.746 292.546C112.387 291.963 112.207 291.318 112.207 290.613C112.207 289.865 112.423 289.181 112.853 288.562C113.284 287.943 113.889 287.454 114.672 287.094C115.453 286.734 116.36 286.554 117.394 286.554C119.216 286.554 120.616 286.964 121.592 287.785C122.567 288.607 123.055 289.793 123.055 291.349L119.869 291.565C119.869 290.673 119.647 290.021 119.202 289.61C118.758 289.2 118.155 288.994 117.394 288.994C116.762 288.994 116.271 289.138 115.919 289.426C115.567 289.714 115.391 290.111 115.391 290.615C115.391 290.988 115.47 291.292 115.629 291.522C115.786 291.752 116.063 291.957 116.458 292.137C116.852 292.317 117.423 292.487 118.168 292.645C119.288 292.875 120.252 293.163 121.064 293.509C121.874 293.854 122.545 294.348 123.075 294.989C123.605 295.63 123.871 296.454 123.871 297.462C123.871 298.47 123.627 299.302 123.14 300.043C122.653 300.783 121.968 301.356 121.084 301.759C120.202 302.162 119.187 302.365 118.038 302.365C116.704 302.365 115.564 302.112 114.617 301.608V301.605Z" fill="#DA4B3C"/>
<path d="M127.445 301.605C126.498 301.101 125.774 300.37 125.271 299.413C124.769 298.456 124.518 297.308 124.518 295.968L127.703 295.752C127.631 297.121 127.883 298.156 128.457 298.861C129.031 299.566 129.834 299.919 130.867 299.919C131.771 299.919 132.437 299.7 132.868 299.261C133.299 298.822 133.514 298.292 133.514 297.673C133.514 297.126 133.393 296.687 133.148 296.356C132.904 296.025 132.506 295.756 131.954 295.546C131.402 295.337 130.586 295.125 129.511 294.91C128.578 294.723 127.778 294.428 127.112 294.025C126.445 293.622 125.931 293.129 125.574 292.546C125.215 291.963 125.035 291.318 125.035 290.613C125.035 289.865 125.251 289.181 125.681 288.562C126.112 287.943 126.717 287.454 127.5 287.094C128.283 286.734 129.19 286.554 130.222 286.554C132.044 286.554 133.444 286.964 134.42 287.785C135.396 288.607 135.883 289.793 135.883 291.349L132.697 291.565C132.697 290.673 132.475 290.021 132.031 289.61C131.586 289.2 130.983 288.994 130.222 288.994C129.59 288.994 129.1 289.138 128.747 289.426C128.395 289.714 128.221 290.111 128.221 290.615C128.221 290.988 128.3 291.292 128.459 291.522C128.616 291.752 128.893 291.957 129.288 292.137C129.682 292.317 130.253 292.487 130.998 292.645C132.118 292.875 133.082 293.163 133.893 293.509C134.704 293.854 135.375 294.348 135.905 294.989C136.435 295.63 136.701 296.454 136.701 297.462C136.701 298.47 136.457 299.302 135.97 300.043C135.483 300.783 134.798 301.356 133.914 301.759C133.032 302.162 132.017 302.365 130.868 302.365C129.534 302.365 128.394 302.112 127.447 301.608L127.445 301.605Z" fill="#DA4B3C"/>
<path d="M138.205 286.899H141.391V302.015H138.205V286.899ZM139.668 286.899H148.277V289.339H139.668V286.899ZM139.668 292.945H147.202V295.385H139.668V292.945ZM139.668 299.575H148.277V302.015H139.668V299.575Z" fill="#DA4B3C"/>
<path d="M153.011 286.899H156.196V302.015H153.011V286.899ZM154.474 286.899H163.082V289.339H154.474V286.899ZM154.474 292.945H162.005V295.385H154.474V292.945Z" fill="#DA4B3C"/>
<path d="M167.625 301.691C166.707 301.245 165.97 300.571 165.418 299.672C164.866 298.772 164.589 297.668 164.589 296.358V286.899H167.775V296.358C167.775 297.639 168.037 298.517 168.561 298.992C169.084 299.467 169.792 299.705 170.681 299.705C171.569 299.705 172.273 299.467 172.79 298.992C173.306 298.517 173.564 297.639 173.564 296.358V286.899H176.749V296.358C176.749 297.668 176.476 298.772 175.931 299.672C175.386 300.573 174.654 301.245 173.736 301.691C172.819 302.137 171.8 302.36 170.681 302.36C169.561 302.36 168.543 302.137 167.625 301.691Z" fill="#DA4B3C"/>
<path d="M178.686 286.899H181.872V302.015H178.686V286.899ZM178.944 295.991L187.229 286.899H190.781L181.01 297.803L178.944 295.989V295.991ZM182.3 293.4L184.991 292.234L191.297 302.015H187.788L182.3 293.398V293.4Z" fill="#DA4B3C"/>
<path d="M194.978 301.691C194.06 301.245 193.324 300.571 192.772 299.672C192.22 298.772 191.943 297.668 191.943 296.358V286.899H195.129V296.358C195.129 297.639 195.39 298.517 195.915 298.992C196.438 299.467 197.145 299.705 198.034 299.705C198.923 299.705 199.627 299.467 200.143 298.992C200.659 298.517 200.917 297.639 200.917 296.358V286.899H204.103V296.358C204.103 297.668 203.829 298.772 203.284 299.672C202.739 300.573 202.007 301.245 201.09 301.691C200.172 302.137 199.153 302.36 198.034 302.36C196.914 302.36 195.896 302.137 194.978 301.691Z" fill="#DA4B3C"/>
<path d="M209.225 301.518C208.092 300.957 207.169 300.082 206.46 298.894C205.749 297.706 205.395 296.227 205.395 294.456C205.395 292.685 205.75 291.206 206.46 290.018C207.171 288.83 208.092 287.955 209.225 287.394C210.358 286.834 211.571 286.552 212.862 286.552C214.152 286.552 215.365 286.834 216.499 287.394C217.632 287.955 218.549 288.83 219.254 290.018C219.956 291.206 220.308 292.685 220.308 294.456C220.308 296.227 219.956 297.706 219.254 298.894C218.551 300.082 217.632 300.957 216.499 301.518C215.365 302.078 214.152 302.36 212.862 302.36C211.571 302.36 210.358 302.078 209.225 301.518ZM215.068 299.024C215.692 298.571 216.172 297.949 216.511 297.157C216.847 296.365 217.016 295.466 217.016 294.458C217.016 293.449 216.844 292.551 216.5 291.759C216.155 290.966 215.668 290.344 215.037 289.891C214.405 289.438 213.682 289.21 212.863 289.21C212.045 289.21 211.3 289.437 210.669 289.891C210.037 290.344 209.55 290.968 209.206 291.759C208.862 292.551 208.69 293.451 208.69 294.458C208.69 295.464 208.859 296.365 209.196 297.157C209.532 297.949 210.018 298.571 210.648 299.024C211.279 299.477 212.019 299.705 212.865 299.705C213.711 299.705 214.448 299.479 215.071 299.024H215.068Z" fill="#DA4B3C"/>
<path d="M221.6 286.899H224.786V302.015H221.6V286.899ZM221.858 295.991L230.144 286.899H233.695L223.924 297.803L221.858 295.989V295.991ZM225.215 293.4L227.905 292.234L234.211 302.015H230.703L225.215 293.398V293.4Z" fill="#DA4B3C"/>
<path d="M239.526 286.899H242.732L248.478 302.015H245.272L240.688 289.965H241.57L236.987 302.015H233.78L239.526 286.899ZM237.224 295.775H245.036V298.215H237.224V295.775Z" fill="#DA4B3C"/>
<path d="M252.568 286.899H255.754V302.015H252.568V286.899ZM254.031 292.945H263.07V295.385H254.031V292.945ZM261.349 286.899H264.535V302.015H261.349V286.899Z" fill="#DA4B3C"/>
<path d="M267.581 301.939C267.042 301.687 266.615 301.324 266.3 300.849C265.984 300.374 265.827 299.82 265.827 299.185C265.827 298.379 266.046 297.731 266.483 297.243C266.921 296.754 267.476 296.39 268.151 296.152C268.826 295.914 269.679 295.703 270.713 295.516L271.187 295.43C271.646 295.358 271.976 295.289 272.176 295.224C272.376 295.159 272.528 295.054 272.627 294.91C272.728 294.766 272.749 294.543 272.692 294.242C272.62 293.924 272.444 293.691 272.166 293.54C271.886 293.389 271.474 293.314 270.929 293.314C270.341 293.314 269.896 293.458 269.594 293.746C269.293 294.034 269.127 294.365 269.098 294.739L265.935 294.523C265.935 294.106 266.042 293.626 266.258 293.088C266.473 292.547 266.95 292.043 267.688 291.577C268.427 291.109 269.507 290.875 270.927 290.875C272.648 290.875 273.911 291.261 274.714 292.031C275.517 292.801 275.919 294 275.919 295.627V302.018H272.841V299.233H273.034C272.877 299.81 272.643 300.327 272.335 300.789C272.026 301.25 271.624 301.62 271.13 301.902C270.635 302.183 270.043 302.324 269.355 302.324C268.709 302.324 268.117 302.197 267.579 301.946L267.581 301.939ZM271.551 299.552C271.939 299.336 272.25 299.031 272.487 298.635C272.725 298.239 272.843 297.79 272.843 297.285V296.205H273.036C272.935 296.522 272.706 296.774 272.347 296.961C271.988 297.148 271.414 297.328 270.626 297.501C270.095 297.616 269.693 297.783 269.421 297.999C269.148 298.215 269.013 298.481 269.013 298.798C269.013 299.158 269.131 299.427 269.368 299.607C269.606 299.787 269.924 299.876 270.325 299.876C270.756 299.876 271.164 299.768 271.552 299.552H271.551Z" fill="#DA4B3C"/>
<path d="M277.426 286.683H280.612V302.015H277.426V286.683Z" fill="#DA4B3C"/>
<path d="M282.548 286.683H285.734V302.015H282.548V286.683Z" fill="#DA4B3C"/>
<path d="M290.899 286.899H293.977V302.015H290.899V286.899ZM291.61 299.575H296.173C296.976 299.575 297.636 299.401 298.154 299.057C298.67 298.71 298.928 298.215 298.928 297.567C298.928 296.745 298.692 296.207 298.217 295.948C297.742 295.689 297.062 295.559 296.173 295.559H291.181V293.118H295.529C296.303 293.118 296.92 292.981 297.379 292.709C297.839 292.436 298.068 291.932 298.068 291.198C298.068 290.464 297.843 289.97 297.39 289.718C296.938 289.466 296.316 289.341 295.529 289.341H291.181V286.901H295.529C296.462 286.901 297.333 286.986 298.143 287.159C298.953 287.333 299.675 287.736 300.307 288.368C300.938 289.001 301.254 289.944 301.254 291.198C301.254 291.817 301.085 292.39 300.748 292.914C300.411 293.441 299.87 293.868 299.123 294.199C298.376 294.53 297.422 294.696 296.26 294.696L296.906 293.767C298.01 293.767 298.953 293.933 299.736 294.264C300.517 294.595 301.11 295.046 301.512 295.613C301.914 296.183 302.115 296.833 302.115 297.568C302.115 298.806 301.779 299.756 301.103 300.418C300.428 301.08 299.683 301.512 298.865 301.715C298.046 301.917 297.294 302.017 296.605 302.017H291.613V299.576L291.61 299.575Z" fill="#DA4B3C"/>
<path d="M17.8296 222.971C27.3934 222.971 33.4674 228.288 33.7272 236.847H25.4554C25.2622 232.762 22.3534 230.363 17.7014 230.363C12.5964 230.363 9.30139 232.827 9.30139 236.782C9.30139 240.153 11.1113 242.034 15.0523 242.941L22.4833 244.562C30.5603 246.313 34.5031 250.463 34.5031 257.529C34.5031 266.347 27.6532 272.054 17.2485 272.054C6.84377 272.054 0.574959 266.673 0.381836 258.177H8.65365C8.7186 262.197 11.9487 264.596 17.2485 264.596C22.5483 264.596 26.2313 262.197 26.2313 258.241C26.2313 255.063 24.6162 253.184 20.7384 252.34L13.2425 250.655C5.22871 248.904 1.02957 244.3 1.02957 237.039C1.02957 228.739 7.87945 222.969 17.8313 222.969L17.8296 222.971Z" fill="#DA4B3C"/>
<path d="M41.9974 223.815H71.335V231.466H50.2692V243.657H69.1389V250.984H50.2692V263.562H71.335V271.214H41.9974V223.815Z" fill="#DA4B3C"/>
<path d="M88.5879 254.871V271.21H80.3161V223.813H98.9909C108.49 223.813 114.629 230.038 114.629 239.31C114.629 248.582 108.425 254.871 98.9909 254.871H88.5862H88.5879ZM88.5879 231.205V247.481H97.2477C102.934 247.481 105.972 244.433 105.972 239.246C105.972 234.059 102.87 231.205 97.3776 231.205H88.5879Z" fill="#DA4B3C"/>
<path d="M129.623 264.987L145.067 251.89C151.464 246.443 153.597 243.331 153.597 238.792C153.597 233.411 150.688 230.364 145.713 230.364C140.738 230.364 137.313 233.994 137.248 240.09H129.042C129.106 229.715 135.698 222.973 145.713 222.973C155.728 222.973 162.062 228.743 162.062 238.339C162.062 244.953 158.444 249.945 151.269 256.105L142.74 263.432H162.385V271.149L129.623 271.214V264.987Z" fill="#DA4B3C"/>
<path d="M168.134 264.987L183.579 251.89C189.976 246.443 192.109 243.331 192.109 238.792C192.109 233.411 189.202 230.364 184.225 230.364C179.248 230.364 175.825 233.994 175.76 240.09H167.553C167.618 229.715 174.21 222.973 184.225 222.973C194.24 222.973 200.574 228.743 200.574 238.339C200.574 244.953 196.956 249.945 189.781 256.105L181.251 263.432H200.897V271.149L168.134 271.214V264.987Z" fill="#DA4B3C"/>
<path d="M205.291 250.398H226.099V257.401H205.291V250.398Z" fill="#DA4B3C"/>
<path d="M228.878 271.212V264.987L244.322 251.89C250.719 246.443 252.852 243.331 252.852 238.792C252.852 233.411 249.945 230.364 244.968 230.364C239.992 230.364 236.567 233.994 236.503 240.09H228.296C228.361 229.715 234.953 222.973 244.968 222.973C254.983 222.973 261.317 228.743 261.317 238.339C261.317 244.953 257.699 249.945 250.526 256.105L241.996 263.432H261.642V271.149L228.879 271.214L228.878 271.212Z" fill="#DA4B3C"/>
<path d="M296.859 262.199V271.212H289.04V262.199H265.065V254.937L286.456 223.815H296.86V254.937H302.611V262.199H296.859ZM289.04 254.937V232.763L273.853 254.937H289.04Z" fill="#DA4B3C"/>
</g>
</g>
<defs>
<clipPath id="clip0_995_1613">
<rect width="305" height="302" fill="white" transform="translate(0 0.5)"/>
</clipPath>
<clipPath id="clip1_995_1613">
<rect width="305" height="302" fill="white" transform="translate(0 0.5)"/>
</clipPath>
</defs>
</svg>
