<svg width="240" height="150" viewBox="0 0 240 150" fill="none" xmlns="http://www.w3.org/2000/svg">
<g clip-path="url(#clip0_995_785)">
<g clip-path="url(#clip1_995_785)">
<path d="M228.61 114.276C226.038 112.695 223.073 111.433 219.721 110.489C216.368 109.548 212.898 108.808 209.313 108.269V108.067C212.743 107.327 215.997 106.519 219.079 105.644C222.158 104.769 224.847 103.675 227.149 102.363C229.448 101.051 231.281 99.4704 232.645 97.618C234.008 95.7684 234.692 93.529 234.692 90.9039C234.692 89.626 234.36 88.1444 233.698 86.4618C233.036 84.7806 231.807 83.1645 230.015 81.6164C228.221 80.0682 225.727 78.7564 222.531 77.6795C219.333 76.6039 215.201 76.0634 210.133 76.0634C205.848 76.0634 202.104 76.4993 198.894 77.3644V45.0244H224.268C225.084 45.0244 225.824 44.5368 226.151 43.7818L230.513 33.7283H198.894V13.1705H234.001C234.834 13.1705 235.584 12.6639 235.902 11.8885L240 1.87305H185.092C184.524 1.87305 184.062 2.33613 184.061 2.91058C184.058 4.39354 184.053 7.06071 184.053 8.15256V67.1357C183.768 65.7125 183.308 64.3572 182.753 63.1622L169.286 32.4911L156.625 3.45243C156.679 3.26502 156.684 3.07626 156.653 2.897C156.621 2.71638 156.55 2.54799 156.447 2.39996C156.229 2.08762 155.871 1.87305 155.445 1.87305H142.536C142.431 1.87305 142.329 1.88934 142.232 1.91922C141.942 2.01021 141.701 2.22885 141.585 2.52218L111.115 79.3322C109.995 78.7333 108.774 78.1982 107.452 77.727C104.333 76.6161 100.59 76.0607 96.2249 76.0607C93.1192 76.0607 90.3421 76.3255 87.8882 76.8538V45.0216H113.262C114.078 45.0216 114.818 44.5341 115.145 43.779L119.507 33.7256H87.8882V13.1678H122.995C123.828 13.1678 124.578 12.6612 124.896 11.8858L128.994 1.87305H74.0822C73.5165 1.87305 73.0559 2.33478 73.0559 2.90515C73.0532 4.38675 73.0478 7.05799 73.0478 8.1512V67.1344C72.7636 65.7112 72.303 64.3559 71.7481 63.1608L58.2815 32.4898L45.6175 3.44972C45.833 2.67021 45.2552 1.87305 44.4269 1.87305H31.5286C31.1098 1.87305 30.7327 2.12971 30.5764 2.52218L0 79.6024H10.7569C10.6626 79.6323 10.5643 79.6595 10.4714 79.6907C8.67744 80.2991 7.22424 81.0338 6.11178 81.8961C4.99798 82.7585 4.18182 83.6697 3.65926 84.6298C3.1367 85.5913 2.87542 86.4034 2.87542 87.0702C2.87542 87.8158 3.03434 88.3929 3.35219 88.8044C3.66869 89.2159 4.04444 89.5106 4.47677 89.6858C4.90774 89.8623 5.36162 89.971 5.83838 90.009C6.31515 90.0484 6.71246 90.0674 7.0303 90.0674C8.07407 90.0674 8.98182 89.8813 9.75488 89.5092C10.5266 89.1371 10.9131 88.4608 10.9131 87.4803C10.9131 87.3622 10.8902 87.1476 10.8444 86.8339C10.7987 86.5202 10.7529 86.1875 10.7084 85.8344C10.6626 85.4813 10.6168 85.1486 10.5724 84.8349C10.5266 84.5212 10.5037 84.3053 10.5037 84.1885C10.5037 83.2094 10.6734 82.4244 11.0141 81.8364C11.3549 81.2484 11.798 80.788 12.3421 80.4553C12.8862 80.1226 13.4882 79.8971 14.1468 79.779C14.804 79.6608 15.4519 79.6024 16.0875 79.6024C17.4034 79.6024 18.4593 79.8672 19.2552 80.3955C20.0485 80.9252 20.6519 81.6693 21.0599 82.6295C21.468 83.591 21.7414 84.7263 21.8774 86.0395C22.0135 87.3527 22.0822 88.8126 22.0822 90.4191C22.0822 93.6729 21.7414 96.4555 21.0599 98.7683C20.3785 101.081 19.2431 103.296 17.6539 105.412C16.0646 107.529 13.9421 109.753 11.2862 112.085C8.75825 114.304 5.6431 116.943 1.94343 119.996C1.75488 120.15 1.56633 120.307 1.37643 120.464L0.96835 120.759V121.582H32.0256V109.528H31.0721C30.9805 111.018 30.629 112.165 30.0162 112.968C29.4034 113.772 28.699 114.36 27.9044 114.732C27.1098 115.105 26.3488 115.32 25.6229 115.378C24.8956 115.437 24.3731 115.467 24.0566 115.467H9.07205L19.1529 106.882L24.0566 102.531C25.5556 101.199 26.769 99.9253 27.6997 98.7099C28.6303 97.4958 29.3562 96.3578 29.8788 95.2999C30.4 94.242 30.7636 93.2818 30.9683 92.4195C31.1731 91.5571 31.2741 90.8129 31.2741 90.1855C31.2741 88.7352 31.0128 87.3242 30.4902 85.9526C29.9677 84.581 29.1286 83.3655 27.9704 82.3076C26.8121 81.2497 25.3253 80.3969 23.5098 79.7505C21.6929 79.104 19.5138 78.7808 16.971 78.7808C16.5455 78.7808 16.1333 78.793 15.7279 78.8093L17.5475 74.2219C19.2229 71.7883 21.3926 70.213 24.4633 69.0601C26.4862 68.3009 29.134 67.8433 34.7623 69.6223C39.4545 71.1053 42.967 72.6955 46.5064 74.939C48.7152 76.3391 51.1596 77.7922 53.6525 78.865C53.0074 78.8093 52.3367 78.7808 51.6377 78.7808C49.1394 78.7808 46.9939 79.1923 45.2013 80.0153C43.4074 80.8382 41.8976 81.8961 40.6721 83.1903C39.4465 84.4832 38.4579 85.9444 37.7091 87.57C36.9603 89.1969 36.3919 90.8238 36.0067 92.4507C35.6202 94.0776 35.3603 95.6068 35.2229 97.0368C35.0869 98.4681 35.0182 99.6537 35.0182 100.593C35.0182 101.339 35.0411 102.397 35.0869 103.769C35.1313 105.141 35.3131 106.63 35.6323 108.236C35.9488 109.844 36.4377 111.481 37.0963 113.146C37.7535 114.812 38.6963 116.33 39.9232 117.702C41.1488 119.075 42.7165 120.191 44.6222 121.053C46.5293 121.914 48.8673 122.346 51.6377 122.346C54.1347 122.346 56.2801 121.944 58.0741 121.14C59.8667 120.338 61.3778 119.28 62.6034 117.965C63.829 116.652 64.8175 115.192 65.5663 113.584C66.3152 111.978 66.8822 110.36 67.2687 108.733C67.6539 107.108 67.9152 105.579 68.0525 104.147C68.1886 102.717 68.2572 101.53 68.2572 100.591C68.2572 99.8465 68.2343 98.7968 68.1885 97.4455C68.1428 96.093 67.9609 94.6045 67.6444 92.9776C67.3266 91.3521 66.8377 89.6953 66.1805 88.01C65.5219 86.3247 64.5805 84.805 63.3535 83.4538C62.299 82.2913 60.9926 81.304 59.4343 80.4879C60.4606 80.621 61.433 80.6875 62.3529 80.6875C64.2141 80.6875 65.8519 80.4118 67.2633 79.8672C67.7333 79.6853 68.2343 79.6011 68.7367 79.6011H80.3946C79.3414 80.1633 78.3973 80.7663 77.5663 81.4113C75.6552 82.8929 74.2519 84.4574 73.3562 86.106C72.4593 87.756 72.0108 89.1521 72.0108 90.2955C72.0108 91.5748 72.2828 92.5675 72.8296 93.2737C73.3737 93.9799 74.0175 94.4851 74.7596 94.7879C75.499 95.0907 76.2801 95.2768 77.099 95.3433C77.9178 95.4112 78.5993 95.4438 79.1461 95.4438C80.9387 95.4438 82.497 95.1247 83.8236 94.485C85.1488 93.8468 85.8115 92.6857 85.8115 91.0017C85.8115 90.7994 85.771 90.4313 85.6943 89.8908C85.6162 89.3531 85.5367 88.78 85.4599 88.1743C85.3818 87.5686 85.3024 86.9969 85.2256 86.4577C85.1475 85.92 85.1084 85.5492 85.1084 85.3469C85.1084 83.6656 85.4007 82.3185 85.9852 81.3081C86.5697 80.2991 87.3306 79.5087 88.2653 78.9356C89.2013 78.3639 90.233 77.9769 91.3643 77.7745C92.4943 77.5722 93.604 77.4717 94.6976 77.4717C96.9576 77.4717 98.7704 77.9266 100.136 78.8351C101.499 79.7437 102.533 81.0229 103.235 82.6716C103.937 84.3216 104.404 86.2731 104.638 88.5274C104.84 90.4748 104.955 92.611 104.982 94.9332L111.122 79.5997H125.724C126.144 79.5997 126.523 79.3417 126.679 78.9479L128.555 74.2165C130.23 71.7829 132.4 70.2076 135.471 69.0546C137.494 68.2955 140.141 67.8378 145.77 69.6169C150.462 71.0998 153.974 72.6901 157.514 74.9335C161.133 77.2272 165.379 79.6622 169.441 80.3358C170.84 80.568 172.145 80.6834 173.358 80.6834C175.219 80.6834 176.857 80.4077 178.268 79.8632C178.738 79.6812 179.239 79.597 179.741 79.597H188.461L194.401 93.9188C194.894 93.912 195.417 93.897 195.977 93.8753C196.834 93.8427 197.632 93.673 198.374 93.3701C199.115 93.0673 199.737 92.5974 200.245 91.9564C200.752 91.3168 201.005 90.392 201.005 89.1806C201.005 88.9782 200.964 88.5926 200.888 88.0195C200.809 87.4477 200.712 86.8258 200.595 86.1522C200.478 85.48 200.361 84.8566 200.244 84.2849C200.127 83.7132 200.069 83.2922 200.069 83.0233C200.069 81.0039 200.888 79.5753 202.524 78.7319C204.162 77.8913 206.071 77.4703 208.255 77.4703C211.061 77.4703 213.224 77.9592 214.745 78.9343C216.265 79.9107 217.376 81.0895 218.078 82.4679C218.78 83.8476 219.189 85.2437 219.306 86.6574C219.424 88.0711 219.481 89.2499 219.481 90.191C219.481 93.9609 218.974 96.939 217.961 99.1254C216.947 101.313 215.739 102.997 214.335 104.173C212.932 105.352 211.488 106.142 210.008 106.546C208.527 106.949 207.319 107.252 206.383 107.454C204.298 107.805 202.331 108.183 200.482 108.588L201.03 109.91C202.663 109.555 204.368 109.373 206.148 109.373C209.968 109.373 212.912 109.962 214.978 111.14C217.042 112.319 218.545 113.815 219.48 115.632C220.416 117.449 220.96 119.418 221.118 121.538C221.273 123.658 221.352 125.661 221.352 127.545C221.352 130.439 221.157 133.216 220.768 135.874C220.377 138.533 219.558 140.871 218.312 142.891C217.654 143.957 216.847 144.909 215.895 145.749C215.044 146.502 214.077 147.164 212.991 147.737C210.691 148.949 207.63 149.554 203.81 149.554C200.224 149.554 197.182 149.017 194.688 147.94C192.193 146.864 190.127 145.567 188.49 144.053C186.853 142.539 185.605 140.923 184.747 139.206C183.888 137.49 183.344 135.993 183.11 134.714L181.239 135.219C182.018 138.181 183.169 140.655 184.69 142.639C186.21 144.625 188.023 146.223 190.128 147.435C192.233 148.646 194.59 149.522 197.204 150.06C199.815 150.597 202.563 150.868 205.449 150.868C209.962 150.868 213.957 150.398 217.434 149.458C218.222 149.245 218.983 149.008 219.717 148.748C223.693 147.334 226.968 145.552 229.541 143.397C232.113 141.243 234.023 138.838 235.271 136.179C236.517 133.522 237.142 130.979 237.142 128.557C237.142 125.259 236.362 122.448 234.803 120.126C233.242 117.804 231.177 115.852 228.605 114.27L228.61 114.276ZM21.3199 64.7239L43.2162 9.52824L52.1024 31.6043C52.1751 31.7673 59.4034 47.9903 62.0162 56.4399C63.2391 60.3918 64.3246 64.8651 61.7104 67.9465C60.1643 69.7703 58.2869 70.4222 56.3138 70.4222C53.3832 70.4222 50.2438 68.9827 47.6727 67.8039C47.4114 67.6844 47.1569 67.5676 46.9104 67.4562C41.0963 64.8244 34.8525 62.4166 28.5791 62.6203C26.136 62.7004 23.7279 63.3957 21.3199 64.7239ZM45.2431 67.8569C41.7872 66.2231 38.2384 64.8665 34.4067 64.034C32.4916 63.6252 30.5455 63.3713 28.5899 63.4093C28.5064 63.4107 28.4242 63.4161 28.3407 63.4188C28.4283 63.4148 28.5158 63.4093 28.6034 63.4066C34.7125 63.2083 40.862 65.5808 46.5899 68.1733C46.8364 68.2846 47.0896 68.4014 47.3495 68.5196C49.8842 69.682 53.1865 71.1962 56.3367 71.1962C58.4956 71.1962 60.5845 70.4833 62.303 68.4585C65.1744 65.0729 64.0444 60.3592 62.7596 56.2077C61.7737 53.0204 60.1374 48.7399 58.4741 44.6264C60.5791 49.6539 62.7071 54.9556 63.6256 57.9229C63.6256 57.927 63.6296 57.9351 63.631 57.9392C64.8027 61.3777 65.7172 65.4287 63.9906 68.5046C63.732 68.9691 63.4141 69.4023 63.037 69.807C61.4492 71.5099 59.4869 72.1455 57.2983 72.1061C56.5953 72.0966 55.8734 72.0138 55.1407 71.8766C52.7933 71.4366 50.404 70.3434 48.3111 69.3317C48.0431 69.2027 47.7805 69.0764 47.5246 68.9514C46.7636 68.5848 46.0027 68.2167 45.2418 67.8569H45.2431ZM48.1414 70.4453C47.6337 70.1859 47.13 69.9251 46.6263 69.6657C46.9468 69.8165 47.2687 69.9659 47.5892 70.1153C47.8478 70.2361 48.1118 70.3597 48.3811 70.4846C49.8828 71.1799 51.5771 71.9255 53.3279 72.4185C54.4215 72.7267 55.5205 72.9495 56.5966 73.0404C57.0115 73.0744 57.4236 73.0893 57.8303 73.0825C60.1993 73.0282 62.3596 72.2202 64.066 70.1777C66.8862 66.7922 66.0498 62.1504 64.7354 58.1809C64.6774 57.984 64.5428 57.6201 64.4835 57.4259C64.3744 57.0755 64.2492 56.6898 64.1091 56.2797C64.6195 57.5956 65.0168 58.682 65.2444 59.4181C65.2444 59.4208 65.2498 59.4317 65.2512 59.4344C66.536 62.8851 67.4088 67.1711 65.4195 70.3583C65.1273 70.8323 64.7744 71.2641 64.3677 71.662C62.7448 73.2482 60.6896 73.858 58.2869 73.786C57.5623 73.7643 56.8121 73.6801 56.0417 73.5402C53.6377 73.1029 51.1663 71.9757 48.9535 70.8554C48.6788 70.7169 48.4081 70.5797 48.1428 70.4439L48.1414 70.4453ZM51.8976 73.5225C52.7811 73.8661 53.6889 74.1717 54.6061 74.3998C55.7751 74.6904 56.9266 74.8846 58.0364 74.9539C58.4727 74.9797 58.9024 74.9865 59.3239 74.9702C61.9017 74.8629 64.1347 73.9585 65.829 71.8997C68.1185 69.1049 68.1185 65.5007 67.3199 62.164C68.4121 65.4178 68.835 69.2936 66.8431 72.2148C66.5158 72.6969 66.1306 73.1301 65.6916 73.5212C64.0364 74.9946 61.8869 75.5786 59.2687 75.4686C58.5226 75.4374 57.7441 75.3477 56.936 75.2065C55.266 74.9118 53.5542 74.2817 51.8963 73.5225H51.8976ZM58.8956 110.117C58.7811 112.783 58.4754 114.959 57.9758 116.644C57.4761 118.329 56.738 119.575 55.7616 120.377C54.7852 121.181 53.4114 121.583 51.6418 121.583C49.8721 121.583 48.497 121.181 47.5205 120.377C46.5441 119.575 45.8061 118.329 45.3064 116.644C44.8067 114.959 44.4997 112.783 44.3865 110.117C44.2734 107.453 44.2168 104.278 44.2168 100.592C44.2168 96.9064 44.2734 93.6838 44.3865 91.0384C44.4997 88.3929 44.8054 86.2269 45.3064 84.5416C45.8061 82.8563 46.5428 81.6123 47.5205 80.8084C48.497 80.0058 49.8707 79.6024 51.6418 79.6024C53.4128 79.6024 54.7852 79.965 55.7616 80.6902C56.738 81.4154 57.4747 82.6118 57.9758 84.2768C58.4754 85.9431 58.7811 88.1091 58.8956 90.7736C59.0088 93.4394 59.0653 96.7122 59.0653 100.592C59.0653 104.472 59.0074 107.451 58.8956 110.117ZM57.8343 76.8714C57.103 76.7465 56.3623 76.555 55.6202 76.316C55.7077 76.3364 55.7953 76.3608 55.8828 76.3798C57.1286 76.6528 58.3313 76.8198 59.4761 76.8647C59.9327 76.8823 60.3798 76.8796 60.8175 76.8565C63.6054 76.6949 65.9098 75.694 67.5906 73.6203C69.4397 71.328 69.8653 68.5182 69.5623 65.775C70.1683 68.5956 70.0377 71.6661 68.2694 74.0712C67.9084 74.5628 67.4909 74.9974 67.0195 75.3803C65.336 76.7451 63.0869 77.306 60.2545 77.1512C59.4869 77.1118 58.6801 77.0167 57.8343 76.8728V76.8714ZM69.6943 75.9249C67.8397 78.2838 64.7717 79.214 60.3502 78.755C60.5401 78.7645 60.7286 78.7727 60.9145 78.7754C61.3926 78.7835 61.8572 78.7727 62.3084 78.7414C65.3051 78.5255 67.6822 77.4296 69.3508 75.3382C70.8323 73.4764 71.4438 71.2899 71.4976 69.0818C71.701 71.4733 71.2593 73.9313 69.6929 75.9235L69.6943 75.9249ZM132.325 64.7225L154.221 9.52689L163.107 31.603C163.18 31.7659 170.408 47.9889 173.021 56.4386C174.244 60.3904 175.329 64.8638 172.715 67.9451C171.169 69.769 169.292 70.4208 167.319 70.4208C164.388 70.4208 161.248 68.9813 158.677 67.8025C158.416 67.683 158.163 67.5662 157.915 67.4549C152.101 64.823 145.857 62.4125 139.584 62.6189C137.141 62.6991 134.733 63.3944 132.325 64.7225ZM156.248 67.8555C152.792 66.2218 149.243 64.8638 145.413 64.0313C143.498 63.6225 141.552 63.3699 139.596 63.408C139.512 63.4093 139.43 63.4148 139.348 63.4175C139.436 63.4134 139.523 63.408 139.609 63.4052C145.721 63.2083 151.868 65.5794 157.596 68.1719C157.842 68.2833 158.096 68.4001 158.356 68.5182C160.89 69.6807 164.193 71.1949 167.343 71.1949C169.503 71.1949 171.591 70.4819 173.309 68.4557C176.18 65.0688 175.051 60.3565 173.766 56.2036C172.78 53.0163 171.143 48.7358 169.48 44.6224C171.585 49.6498 173.713 54.9529 174.632 57.9188C174.633 57.9242 174.636 57.9297 174.637 57.9351C175.818 61.3709 176.725 65.4246 174.997 68.5006C174.738 68.965 174.42 69.3982 174.043 69.8029C172.455 71.5059 170.493 72.1414 168.304 72.1021C167.601 72.0925 166.879 72.0097 166.147 71.8725C163.799 71.4325 161.41 70.3393 159.317 69.3276C159.049 69.1986 158.787 69.0723 158.531 68.9487C157.77 68.582 157.009 68.214 156.248 67.8541V67.8555ZM159.147 70.4439C158.64 70.1845 158.136 69.9251 157.634 69.6644C157.954 69.8151 158.276 69.9645 158.595 70.1139C158.854 70.2348 159.118 70.3583 159.387 70.4819C160.889 71.1772 162.583 71.9228 164.334 72.4158C165.428 72.724 166.527 72.9467 167.603 73.0377C168.018 73.0717 168.43 73.0866 168.836 73.0798C171.205 73.0255 173.366 72.2175 175.072 70.175C177.892 66.7881 177.056 62.1477 175.741 58.1782C175.684 57.9813 175.549 57.6173 175.49 57.4231C175.38 57.0728 175.255 56.6871 175.114 56.2756C175.624 57.5915 176.022 58.678 176.249 59.4154C176.252 59.4208 176.253 59.4262 176.256 59.4317C177.554 62.8783 178.413 67.1683 176.424 70.3556C176.132 70.8296 175.779 71.2614 175.372 71.6593C173.749 73.2455 171.694 73.8553 169.292 73.7833C168.567 73.7616 167.817 73.6774 167.046 73.5375C164.642 73.1002 162.171 71.973 159.96 70.8527C159.685 70.7141 159.414 70.577 159.15 70.4412L159.147 70.4439ZM165.612 74.3985C166.781 74.6891 167.933 74.8833 169.042 74.9525C169.479 74.9783 169.908 74.9851 170.33 74.9688C172.908 74.8616 175.141 73.9571 176.835 71.8983C179.135 69.0899 179.125 65.464 178.315 62.1138C179.428 65.3744 179.852 69.2774 177.851 72.2134C177.525 72.6955 177.138 73.1287 176.699 73.5198C175.044 74.9933 172.894 75.5786 170.276 75.4672C169.53 75.436 168.752 75.3464 167.943 75.2051C166.273 74.9104 164.562 74.2803 162.904 73.5212C163.787 73.8648 164.695 74.1703 165.612 74.3985ZM168.84 76.8701C168.109 76.7451 167.37 76.5537 166.626 76.3146C166.714 76.335 166.801 76.3595 166.889 76.3785C168.135 76.6514 169.337 76.8185 170.482 76.8633C170.939 76.8809 171.386 76.8782 171.824 76.8551C174.611 76.6935 176.916 75.6927 178.597 73.619C180.462 71.3076 180.879 68.468 180.56 65.7017C181.184 68.5413 181.059 71.6444 179.275 74.0698C178.914 74.5614 178.497 74.996 178.026 75.379C176.342 76.7438 174.093 77.3047 171.261 77.1498C170.493 77.1091 169.686 77.0154 168.84 76.8714V76.8701ZM180.702 75.9235C178.847 78.2824 175.779 79.2127 171.358 78.7537C171.547 78.7632 171.736 78.7713 171.922 78.774C172.4 78.7822 172.865 78.7713 173.316 78.7401C176.312 78.5242 178.69 77.4282 180.358 75.3369C181.84 73.4764 182.45 71.2886 182.505 69.0804C182.708 71.4719 182.267 73.93 180.7 75.9222L180.702 75.9235Z" fill="#DA4B3C"/>
<path d="M118.62 134.77C117.566 136.149 116.357 137.16 114.994 137.798C113.628 138.439 112.322 138.807 111.076 138.909C109.828 139.009 108.931 139.061 108.387 139.061H87.3212L91.565 128.463C90.0283 130.558 80.1306 140.424 69.4438 147.641L68.7421 148.146V149.56H122.071V128.863H120.434C120.276 131.422 119.674 133.391 118.621 134.77H118.62Z" fill="#DA4B3C"/>
<path d="M122.237 87.4749L120.778 105.508H122.543L122.753 101.996H124.275L124.473 105.508H126.308L124.85 87.4749H122.237ZM122.85 100.36L123.413 90.9161L123.523 88.9552L123.648 90.9161L124.182 100.36H122.85Z" fill="#DA4B3C"/>
<path d="M131.114 96.3632C131.487 96.0481 131.78 95.638 131.991 95.1274C132.249 94.5027 132.378 93.5969 132.378 92.41C132.378 91.2231 132.261 90.2426 132.026 89.5147C131.79 88.7868 131.414 88.2653 130.896 87.9489C130.378 87.6324 129.71 87.4749 128.896 87.4749H127.131V105.508H128.92V97.1549C129.161 97.1549 129.389 97.14 129.603 97.1115L130.614 105.508H132.356L131.114 96.3618V96.3632ZM130.403 94.4755C130.292 94.9495 130.136 95.2673 129.933 95.4248C129.728 95.5837 129.469 95.6625 129.156 95.6625H128.92V89.1602H129.156C129.469 89.1602 129.728 89.239 129.933 89.3979C130.136 89.5568 130.294 89.8691 130.403 90.3349C130.512 90.8021 130.567 91.4933 130.567 92.4113C130.567 93.3294 130.512 94.0016 130.403 94.4755Z" fill="#DA4B3C"/>
<path d="M136.286 105.508V89.1602H137.98V87.4749H132.733V89.1602H134.427V105.508H136.286Z" fill="#DA4B3C"/>
<path d="M141.157 105.508H142.945V97.4415H144.71V95.6611H142.945V89.1602H144.945V87.4749H141.157V105.508Z" fill="#DA4B3C"/>
<path d="M146.334 87.4749L144.875 105.508H146.64L146.85 101.996H148.372L148.57 105.508H150.405L148.947 87.4749H146.334ZM146.947 100.36L147.51 90.9161L147.62 88.9552L147.745 90.9161L148.279 100.36H146.947Z" fill="#DA4B3C"/>
<path d="M153.064 87.4749H151.228V105.508H153.064V87.4749Z" fill="#DA4B3C"/>
<path d="M159.24 95.1274C159.499 94.5027 159.628 93.5969 159.628 92.41C159.628 91.2231 159.511 90.2426 159.275 89.5147C159.04 88.7868 158.664 88.2653 158.145 87.9489C157.628 87.6324 156.96 87.4749 156.145 87.4749H154.381V105.508H156.17V97.1549C156.411 97.1549 156.638 97.14 156.853 97.1115L157.864 105.508H159.605L158.364 96.3618C158.737 96.0468 159.03 95.6367 159.24 95.126V95.1274ZM157.653 94.4755C157.542 94.9495 157.386 95.2673 157.182 95.4248C156.978 95.5837 156.719 95.6625 156.405 95.6625H156.17V89.1602H156.405C156.719 89.1602 156.978 89.239 157.182 89.3979C157.386 89.5568 157.543 89.8691 157.653 90.3349C157.762 90.8021 157.817 91.4933 157.817 92.4113C157.817 93.3294 157.762 94.0016 157.653 94.4755Z" fill="#DA4B3C"/>
<path d="M164.52 101.996H166.042L166.24 105.508H168.075L166.617 87.4749H164.005L162.547 105.508H164.311L164.521 101.996H164.52ZM165.181 90.9148L165.292 88.9538L165.417 90.9148L165.95 100.359H164.618L165.181 90.9148Z" fill="#DA4B3C"/>
<path d="M172.3 97.4062C171.995 96.6701 171.685 95.9463 171.371 95.2347C171.057 94.5231 170.795 93.7789 170.583 93.0048C170.372 92.2294 170.265 91.3915 170.265 90.4897C170.265 90.0158 170.335 89.6315 170.477 89.3395C170.618 89.0475 170.766 88.9008 170.924 88.9008C171.081 88.9008 171.213 89 171.324 89.1969C171.433 89.3952 171.519 89.7265 171.582 90.1937C171.644 90.6608 171.677 91.2896 171.677 92.08V93.2194H173.324V91.9849C173.324 90.7505 173.222 89.7985 173.018 89.1263C172.813 88.454 172.532 87.991 172.171 87.7384C171.81 87.4858 171.386 87.3581 170.901 87.3581C170.195 87.3581 169.622 87.6664 169.184 88.2829C168.745 88.8995 168.525 89.6586 168.525 90.5603C168.525 91.5884 168.632 92.5173 168.843 93.3484C169.055 94.1795 169.313 94.9617 169.62 95.6978C169.926 96.4338 170.236 97.1576 170.549 97.8692C170.863 98.5809 171.122 99.3128 171.327 100.064C171.53 100.815 171.632 101.617 171.632 102.472C171.632 102.74 171.609 102.997 171.562 103.243C171.515 103.489 171.448 103.69 171.362 103.849C171.275 104.008 171.154 104.086 170.997 104.086C170.855 104.086 170.726 103.987 170.609 103.79C170.492 103.593 170.401 103.265 170.338 102.806C170.275 102.347 170.244 101.722 170.244 100.932V100.007H168.549V101.004C168.549 102.222 168.656 103.171 168.867 103.851C169.079 104.532 169.374 104.999 169.749 105.251C170.127 105.504 170.549 105.632 171.021 105.632C171.554 105.632 171.997 105.481 172.35 105.181C172.703 104.881 172.966 104.481 173.138 103.983C173.31 103.485 173.397 102.951 173.397 102.382C173.397 101.418 173.29 100.531 173.079 99.7243C172.867 98.9176 172.609 98.1463 172.302 97.4102L172.3 97.4062Z" fill="#DA4B3C"/>
<path d="M176.171 87.4749H174.335V105.508H176.171V87.4749Z" fill="#DA4B3C"/>
<path d="M178.454 87.4749L176.995 105.508H178.76L178.97 101.996H180.492L180.69 105.508H182.525L181.067 87.4749H178.454ZM179.067 100.36L179.63 90.9161L179.74 88.9552L179.865 90.9161L180.399 100.36H179.067Z" fill="#DA4B3C"/>
<path d="M131.156 127.476H132.944V119.408H134.708V117.629H132.944V111.126H134.944V109.442H131.156V127.476Z" fill="#DA4B3C"/>
<path d="M139.063 109.442V120.524C139.063 121.694 139.042 122.64 139.003 123.359C138.964 124.079 138.913 124.637 138.85 125.032C138.787 125.428 138.704 125.697 138.603 125.839C138.501 125.982 138.388 126.052 138.263 126.052C138.105 126.052 137.98 125.982 137.886 125.839C137.791 125.697 137.713 125.428 137.65 125.032C137.587 124.637 137.533 124.079 137.486 123.359C137.438 122.64 137.415 121.694 137.415 120.524V109.442H135.604V121.449C135.604 123.062 135.698 124.315 135.887 125.209C136.075 126.103 136.361 126.725 136.746 127.072C137.13 127.42 137.636 127.594 138.264 127.594C138.892 127.594 139.374 127.42 139.758 127.072C140.141 126.725 140.424 126.104 140.605 125.209C140.785 124.315 140.875 123.062 140.875 121.449V109.442H139.063Z" fill="#DA4B3C"/>
<path d="M145.585 117.806L147.674 109.442H145.98L143.91 117.77V109.442H142.097V127.476H143.91V118.293L146.004 127.476H147.793L145.585 117.806Z" fill="#DA4B3C"/>
<path d="M150.687 125.838C150.593 125.695 150.514 125.426 150.451 125.031C150.388 124.636 150.334 124.078 150.287 123.358C150.24 122.638 150.217 121.693 150.217 120.522V109.441H148.405V121.447C148.405 123.061 148.5 124.314 148.688 125.208C148.877 126.101 149.162 126.723 149.547 127.071C149.931 127.419 150.438 127.592 151.065 127.592C151.693 127.592 152.175 127.419 152.559 127.071C152.943 126.723 153.226 126.103 153.406 125.208C153.587 124.314 153.677 123.061 153.677 121.447V109.441H151.865V120.522C151.865 121.693 151.845 122.638 151.806 123.358C151.767 124.078 151.716 124.636 151.653 125.031C151.589 125.426 151.507 125.695 151.406 125.838C151.304 125.98 151.191 126.051 151.065 126.051C150.908 126.051 150.782 125.98 150.688 125.838H150.687Z" fill="#DA4B3C"/>
<path d="M159.405 125.993C159.632 125.368 159.805 124.45 159.922 123.24C160.039 122.03 160.098 120.437 160.098 118.458C160.098 116.48 160.039 114.887 159.922 113.677C159.805 112.467 159.631 111.549 159.405 110.924C159.177 110.299 158.89 109.877 158.545 109.654C158.201 109.433 157.807 109.321 157.368 109.321C156.929 109.321 156.56 109.433 156.215 109.654C155.871 109.876 155.584 110.299 155.356 110.924C155.129 111.549 154.956 112.467 154.839 113.677C154.722 114.887 154.663 116.481 154.663 118.458C154.663 120.436 154.722 122.03 154.839 123.24C154.956 124.45 155.129 125.368 155.356 125.993C155.584 126.617 155.869 127.041 156.215 127.262C156.56 127.484 156.945 127.595 157.368 127.595C157.791 127.595 158.199 127.484 158.545 127.262C158.89 127.041 159.177 126.619 159.405 125.993ZM158.158 122.35C158.119 123.347 158.063 124.114 157.993 124.652C157.923 125.19 157.836 125.558 157.735 125.755C157.632 125.953 157.511 126.051 157.37 126.051C157.228 126.051 157.111 125.952 157.017 125.755C156.923 125.558 156.84 125.19 156.769 124.652C156.699 124.114 156.644 123.347 156.605 122.35C156.566 121.354 156.545 120.057 156.545 118.46C156.545 116.863 156.564 115.564 156.605 114.568C156.644 113.571 156.699 112.803 156.769 112.266C156.839 111.728 156.923 111.36 157.017 111.163C157.111 110.965 157.228 110.867 157.37 110.867C157.511 110.867 157.632 110.966 157.735 111.163C157.837 111.361 157.923 111.729 157.993 112.266C158.063 112.803 158.119 113.571 158.158 114.568C158.197 115.564 158.217 116.861 158.217 118.46C158.217 120.058 158.197 121.355 158.158 122.35Z" fill="#DA4B3C"/>
<path d="M166.758 109.442H165.064L162.994 117.77V109.442H161.181V127.476H162.994V118.293L165.088 127.476H166.877L164.669 117.806L166.758 109.442Z" fill="#DA4B3C"/>
<path d="M168.571 109.442L167.112 127.476H168.877L169.087 123.964H170.609L170.807 127.476H172.642L171.184 109.442H168.571ZM169.184 122.327L169.747 112.884L169.857 110.923L169.982 112.884L170.516 122.327H169.184Z" fill="#DA4B3C"/>
<path d="M143.451 142.584C143.756 141.746 144.058 140.939 144.357 140.164C144.655 139.388 144.906 138.614 145.11 137.839C145.313 137.063 145.415 136.225 145.415 135.324C145.415 133.932 145.207 132.912 144.792 132.263C144.376 131.615 143.791 131.29 143.038 131.29C142.286 131.29 141.674 131.631 141.25 132.31C140.826 132.991 140.614 134.114 140.614 135.679V137.293H142.308V135.798C142.308 134.722 142.37 133.959 142.497 133.508C142.622 133.057 142.78 132.832 142.967 132.832C143.17 132.832 143.34 133.045 143.473 133.473C143.607 133.9 143.674 134.556 143.674 135.442C143.674 136.248 143.568 137.016 143.356 137.744C143.145 138.472 142.889 139.208 142.591 139.95C142.294 140.695 141.995 141.497 141.697 142.358C141.399 143.221 141.143 144.185 140.932 145.254C140.721 146.321 140.614 147.528 140.614 148.873V149.442H145.18V147.756H142.407C142.45 146.899 142.541 146.108 142.684 145.384C142.888 144.356 143.143 143.423 143.449 142.584H143.451Z" fill="#DA4B3C"/>
<path d="M150.745 132.891C150.517 132.267 150.234 131.844 149.898 131.622C149.56 131.4 149.18 131.289 148.757 131.289C148.334 131.289 147.953 131.4 147.616 131.622C147.278 131.843 146.997 132.267 146.769 132.891C146.541 133.516 146.373 134.434 146.263 135.644C146.152 136.854 146.098 138.448 146.098 140.426C146.098 142.403 146.154 143.997 146.263 145.207C146.372 146.417 146.541 147.335 146.769 147.96C146.997 148.585 147.278 149.008 147.616 149.23C147.953 149.451 148.334 149.563 148.757 149.563C149.18 149.563 149.561 149.451 149.898 149.23C150.234 149.008 150.517 148.586 150.745 147.96C150.972 147.335 151.145 146.417 151.262 145.207C151.379 143.997 151.438 142.403 151.438 140.426C151.438 138.448 151.379 136.854 151.262 135.644C151.145 134.434 150.971 133.516 150.745 132.891ZM149.51 144.316C149.479 145.313 149.432 146.081 149.368 146.618C149.305 147.156 149.223 147.524 149.122 147.721C149.02 147.919 148.898 148.017 148.757 148.017C148.615 148.017 148.498 147.918 148.404 147.721C148.31 147.524 148.232 147.156 148.168 146.618C148.105 146.081 148.058 145.313 148.027 144.316C147.996 143.32 147.98 142.023 147.98 140.426C147.98 138.829 147.995 137.53 148.027 136.534C148.058 135.537 148.105 134.77 148.168 134.232C148.23 133.694 148.31 133.326 148.404 133.129C148.498 132.932 148.615 132.833 148.757 132.833C148.898 132.833 149.02 132.932 149.122 133.129C149.224 133.327 149.306 133.695 149.368 134.232C149.43 134.77 149.477 135.537 149.51 136.534C149.541 137.53 149.557 138.827 149.557 140.426C149.557 142.024 149.541 143.321 149.51 144.316Z" fill="#DA4B3C"/>
<path d="M155.028 142.584C155.333 141.746 155.635 140.939 155.934 140.164C156.232 139.388 156.484 138.614 156.687 137.839C156.89 137.063 156.993 136.225 156.993 135.324C156.993 133.932 156.784 132.912 156.369 132.263C155.953 131.615 155.368 131.29 154.615 131.29C153.863 131.29 153.251 131.631 152.827 132.31C152.403 132.991 152.191 134.114 152.191 135.679V137.293H153.886V135.798C153.886 134.722 153.947 133.959 154.074 133.508C154.199 133.057 154.357 132.832 154.544 132.832C154.747 132.832 154.917 133.045 155.051 133.473C155.184 133.9 155.251 134.556 155.251 135.442C155.251 136.248 155.145 137.016 154.933 137.744C154.722 138.472 154.466 139.208 154.168 139.95C153.871 140.695 153.572 141.497 153.274 142.358C152.976 143.221 152.721 144.185 152.509 145.254C152.298 146.321 152.191 147.528 152.191 148.873V149.442H156.757V147.756H153.984C154.027 146.899 154.119 146.108 154.261 145.384C154.465 144.356 154.721 143.423 155.026 142.584H155.028Z" fill="#DA4B3C"/>
<path d="M162.158 138.586C162.432 137.913 162.57 136.984 162.57 135.798C162.57 134.168 162.358 133.01 161.934 132.321C161.51 131.633 160.898 131.289 160.098 131.289C159.298 131.289 158.663 131.63 158.24 132.309C157.815 132.989 157.604 134.112 157.604 135.678V137.291H159.251V135.796C159.251 134.704 159.321 133.937 159.463 133.494C159.604 133.052 159.785 132.83 160.004 132.83C160.224 132.83 160.404 133.06 160.545 133.519C160.687 133.978 160.757 134.776 160.757 135.916C160.757 136.786 160.714 137.454 160.628 137.92C160.541 138.387 160.404 138.708 160.215 138.882C160.027 139.055 159.783 139.142 159.486 139.142H158.968V140.898H159.486C159.783 140.898 160.027 141.002 160.215 141.207C160.404 141.413 160.541 141.78 160.628 142.309C160.714 142.839 160.757 143.595 160.757 144.576C160.757 145.556 160.722 146.225 160.65 146.723C160.58 147.221 160.489 147.562 160.38 147.743C160.269 147.925 160.136 148.016 159.98 148.016C159.838 148.016 159.713 147.933 159.603 147.767C159.492 147.602 159.406 147.297 159.344 146.853C159.281 146.411 159.25 145.809 159.25 145.05V142.725H157.603V145.169C157.603 146.799 157.81 147.938 158.226 148.586C158.642 149.235 159.25 149.558 160.05 149.558C160.583 149.558 161.042 149.42 161.426 149.143C161.81 148.866 162.097 148.367 162.286 147.648C162.474 146.928 162.568 145.919 162.568 144.622C162.568 143.325 162.431 142.293 162.156 141.573C161.881 140.854 161.51 140.328 161.038 139.995C161.508 139.726 161.881 139.256 162.156 138.583L162.158 138.586Z" fill="#DA4B3C"/>
</g>
</g>
<defs>
<clipPath id="clip0_995_785">
<rect width="240" height="149" fill="white" transform="translate(0 0.5)"/>
</clipPath>
<clipPath id="clip1_995_785">
<rect width="240" height="149" fill="white" transform="translate(0 1.87305)"/>
</clipPath>
</defs>
</svg>
