<svg width="20" height="20" viewBox="0 0 20 20" fill="none" xmlns="http://www.w3.org/2000/svg">
<path d="M7.92773 4.5164C7.92773 5.5164 7.74773 6.36306 7.38773 7.0564C7.02773 7.76306 6.58773 8.28973 6.06773 8.6364C5.5344 8.98306 5.0144 9.1564 4.50773 9.1564L4.50773 10.0764C5.0144 10.0764 5.5344 10.2497 6.06773 10.5964C6.58773 10.9431 7.02773 11.4631 7.38773 12.1564C7.74773 12.8631 7.92773 13.7164 7.92773 14.7164L6.56773 14.7164C6.56773 13.7697 6.36773 12.9697 5.96773 12.3164C5.56773 11.6631 5.08107 11.1697 4.50773 10.8364C3.9344 10.5031 3.38107 10.3164 2.84773 10.2764L2.66773 10.2764L2.66773 8.9564L2.84773 8.9564C3.38107 8.9164 3.9344 8.72973 4.50773 8.3964C5.08107 8.06306 5.56773 7.56973 5.96773 6.9164C6.36773 6.26306 6.56773 5.46306 6.56773 4.5164L7.92773 4.5164ZM16.3277 10.2764L3.30773 10.2764L3.30773 8.9564L16.3277 8.9564L16.3277 10.2764Z" fill="#D9E2E4"/>
</svg>
