<svg width="16" height="17" viewBox="0 0 16 17" fill="none" xmlns="http://www.w3.org/2000/svg">
<g id="icon">
<path id="Vector" d="M13.1712 13.096L10.7531 10.6779C11.3353 9.9029 11.6495 8.95955 11.6484 7.99024C11.6484 5.51434 9.63411 3.5 7.15821 3.5C4.68231 3.5 2.66797 5.51434 2.66797 7.99024C2.66797 10.4661 4.68231 12.4805 7.15821 12.4805C8.12752 12.4816 9.07087 12.1673 9.84588 11.5851L12.264 14.0032C12.3864 14.1126 12.546 14.171 12.7101 14.1664C12.8742 14.1618 13.0304 14.0946 13.1465 13.9785C13.2625 13.8624 13.3298 13.7063 13.3344 13.5421C13.339 13.378 13.2806 13.2184 13.1712 13.096ZM3.95089 7.99024C3.95089 7.35589 4.139 6.73579 4.49142 6.20835C4.84385 5.68091 5.34476 5.26982 5.93082 5.02707C6.51688 4.78431 7.16177 4.7208 7.78392 4.84455C8.40608 4.96831 8.97757 5.27377 9.42612 5.72233C9.87467 6.17088 10.1801 6.74237 10.3039 7.36452C10.4276 7.98668 10.3641 8.63157 10.1214 9.21763C9.87863 9.80369 9.46754 10.3046 8.9401 10.657C8.41266 11.0094 7.79255 11.1976 7.15821 11.1976C6.30789 11.1965 5.49269 10.8583 4.89142 10.257C4.29015 9.65576 3.95191 8.84056 3.95089 7.99024Z" fill="#433F3E"/>
</g>
</svg>
