<svg width="16" height="17" viewBox="0 0 16 17" fill="none" xmlns="http://www.w3.org/2000/svg">
<path d="M4.00033 15.1694C3.63366 15.1694 3.31966 15.0388 3.05833 14.7774C2.79699 14.5161 2.66655 14.2023 2.66699 13.8361V7.16943C2.66699 6.80277 2.79766 6.48877 3.05899 6.22743C3.32033 5.9661 3.6341 5.83566 4.00033 5.8361H4.66699V4.50277C4.66699 3.58054 4.9921 2.79432 5.64233 2.1441C6.29255 1.49388 7.07855 1.16899 8.00033 1.16943C8.92255 1.16943 9.70877 1.49455 10.359 2.14477C11.0092 2.79499 11.3341 3.58099 11.3337 4.50277V5.8361H12.0003C12.367 5.8361 12.681 5.96677 12.9423 6.2281C13.2037 6.48943 13.3341 6.80321 13.3337 7.16943V13.8361C13.3337 14.2028 13.203 14.5168 12.9417 14.7781C12.6803 15.0394 12.3665 15.1699 12.0003 15.1694H4.00033ZM4.00033 13.8361H12.0003V7.16943H4.00033V13.8361ZM8.00033 11.8361C8.36699 11.8361 8.68099 11.7054 8.94233 11.4441C9.20366 11.1828 9.3341 10.869 9.33366 10.5028C9.33366 10.1361 9.20299 9.8221 8.94166 9.56077C8.68033 9.29943 8.36655 9.16899 8.00033 9.16943C7.63366 9.16943 7.31966 9.3001 7.05833 9.56143C6.79699 9.82277 6.66655 10.1365 6.66699 10.5028C6.66699 10.8694 6.79766 11.1834 7.05899 11.4448C7.32033 11.7061 7.6341 11.8365 8.00033 11.8361ZM6.00033 5.8361H10.0003V4.50277C10.0003 3.94721 9.80588 3.47499 9.41699 3.0861C9.0281 2.69721 8.55588 2.50277 8.00033 2.50277C7.44477 2.50277 6.97255 2.69721 6.58366 3.0861C6.19477 3.47499 6.00033 3.94721 6.00033 4.50277V5.8361Z" fill="black"/>
</svg>
