<svg width="10" height="10" viewBox="0 0 10 10" fill="none" xmlns="http://www.w3.org/2000/svg">
<g clip-path="url(#clip0_1391_33869)">
<path d="M8.33325 6.66656V1.66658L3.33325 1.66658L3.33325 6.66656L8.33325 6.66656ZM9.16659 6.66656C9.16659 6.88757 9.07879 7.09953 8.92251 7.25581C8.76623 7.41209 8.55427 7.49989 8.33325 7.49989L3.33325 7.49989C3.11224 7.49989 2.90028 7.41209 2.744 7.25581C2.58772 7.09953 2.49992 6.88757 2.49992 6.66656L2.49992 1.66658C2.49992 1.20408 2.87075 0.833252 3.33325 0.833252L8.33325 0.833252C8.55427 0.833252 8.76623 0.921049 8.92251 1.07733C9.07879 1.23361 9.16659 1.44557 9.16659 1.66658L9.16659 6.66656ZM6.66659 8.33322L6.66659 9.16655L1.66659 9.16655C1.44557 9.16655 1.23361 9.07875 1.07733 8.92247C0.921049 8.76619 0.833252 8.55423 0.833252 8.33322L0.833252 2.91658H1.66659L1.66659 8.33322H6.66659Z" fill="#ADADAD"/>
</g>
<defs>
<clipPath id="clip0_1391_33869">
<rect width="10" height="10" fill="white"/>
</clipPath>
</defs>
</svg>
