<svg width="24" height="24" viewBox="0 0 24 24" fill="none" xmlns="http://www.w3.org/2000/svg">
<path d="M23 5.81593C22.191 6.16505 21.3219 6.40094 20.4082 6.50756C21.3509 5.95822 22.0562 5.09361 22.3925 4.07507C21.5068 4.58741 20.5374 4.94805 19.5265 5.14129C18.8467 4.43444 17.9462 3.96593 16.965 3.80849C15.9837 3.65106 14.9766 3.81351 14.0999 4.27063C13.2231 4.72774 12.5259 5.45395 12.1164 6.3365C11.7069 7.21905 11.6081 8.20856 11.8353 9.15141C10.0406 9.06365 8.28485 8.60938 6.68208 7.81807C5.07931 7.02676 3.66531 5.9161 2.53184 4.55817C2.14428 5.20923 1.92143 5.96407 1.92143 6.76798C1.921 7.49169 2.104 8.20431 2.45421 8.84261C2.80442 9.48092 3.311 10.0252 3.92901 10.4271C3.21228 10.4049 2.51137 10.2163 1.88461 9.877V9.93362C1.88454 10.9486 2.24508 11.9324 2.90505 12.718C3.56502 13.5037 4.48377 14.0427 5.50542 14.2438C4.84054 14.419 4.14346 14.4448 3.46684 14.3193C3.75508 15.1926 4.31656 15.9564 5.07267 16.5035C5.82878 17.0507 6.74166 17.3539 7.68352 17.3707C6.08466 18.593 4.11008 19.256 2.07742 19.2531C1.71736 19.2532 1.3576 19.2327 1 19.1918C3.06326 20.4837 5.46505 21.1693 7.918 21.1667C16.2215 21.1667 20.7609 14.4693 20.7609 8.66076C20.7609 8.47205 20.756 8.28145 20.7473 8.09274C21.6302 7.47091 22.3924 6.70089 22.9981 5.81877L23 5.81593V5.81593Z" fill="black"/>
</svg>
