<svg width="14" height="15" viewBox="0 0 14 15" fill="none" xmlns="http://www.w3.org/2000/svg">
<path d="M3.50016 13.3359C3.17933 13.3359 2.90458 13.2216 2.67591 12.9929C2.44725 12.7643 2.33311 12.4897 2.3335 12.1693V6.33594C2.3335 6.0151 2.44783 5.74035 2.6765 5.51169C2.90516 5.28302 3.17972 5.16888 3.50016 5.16927H4.0835V4.0026C4.0835 3.19566 4.36797 2.50772 4.93691 1.93877C5.50586 1.36983 6.19361 1.08555 7.00016 1.08594C7.80711 1.08594 8.49505 1.37041 9.064 1.93935C9.63294 2.5083 9.91722 3.19605 9.91683 4.0026V5.16927H10.5002C10.821 5.16927 11.0957 5.2836 11.3244 5.51227C11.5531 5.74094 11.6672 6.01549 11.6668 6.33594V12.1693C11.6668 12.4901 11.5525 12.7649 11.3238 12.9935C11.0952 13.2222 10.8206 13.3363 10.5002 13.3359H3.50016ZM3.50016 12.1693H10.5002V6.33594H3.50016V12.1693ZM7.00016 10.4193C7.321 10.4193 7.59575 10.3049 7.82441 10.0763C8.05308 9.8476 8.16722 9.57305 8.16683 9.2526C8.16683 8.93177 8.0525 8.65702 7.82383 8.42835C7.59516 8.19969 7.32061 8.08555 7.00016 8.08594C6.67933 8.08594 6.40458 8.20027 6.17591 8.42894C5.94725 8.6576 5.83311 8.93216 5.8335 9.2526C5.8335 9.57344 5.94783 9.84819 6.1765 10.0769C6.40516 10.3055 6.67972 10.4197 7.00016 10.4193ZM5.25016 5.16927H8.75016V4.0026C8.75016 3.51649 8.58002 3.1033 8.23975 2.76302C7.89947 2.42274 7.48627 2.2526 7.00016 2.2526C6.51405 2.2526 6.10086 2.42274 5.76058 2.76302C5.4203 3.1033 5.25016 3.51649 5.25016 4.0026V5.16927Z" fill="#433F3E"/>
</svg>
