<svg width="18" height="19" viewBox="0 0 18 19" fill="none" xmlns="http://www.w3.org/2000/svg">
<path d="M18 12.75C18 12.9489 17.921 13.1397 17.7803 13.2803C17.6397 13.421 17.4489 13.5 17.25 13.5H15V15H16.5C16.6989 15 16.8897 15.079 17.0303 15.2197C17.171 15.3603 17.25 15.5511 17.25 15.75C17.25 15.9489 17.171 16.1397 17.0303 16.2803C16.8897 16.421 16.6989 16.5 16.5 16.5H15V18C15 18.1989 14.921 18.3897 14.7803 18.5303C14.6397 18.671 14.4489 18.75 14.25 18.75C14.0511 18.75 13.8603 18.671 13.7197 18.5303C13.579 18.3897 13.5 18.1989 13.5 18V12.75C13.5 12.5511 13.579 12.3603 13.7197 12.2197C13.8603 12.079 14.0511 12 14.25 12H17.25C17.4489 12 17.6397 12.079 17.7803 12.2197C17.921 12.3603 18 12.5511 18 12.75ZM5.625 14.625C5.625 15.3212 5.34844 15.9889 4.85616 16.4812C4.36387 16.9734 3.69619 17.25 3 17.25H2.25V18C2.25 18.1989 2.17098 18.3897 2.03033 18.5303C1.88968 18.671 1.69891 18.75 1.5 18.75C1.30109 18.75 1.11032 18.671 0.96967 18.5303C0.829018 18.3897 0.75 18.1989 0.75 18V12.75C0.75 12.5511 0.829018 12.3603 0.96967 12.2197C1.11032 12.079 1.30109 12 1.5 12H3C3.69619 12 4.36387 12.2766 4.85616 12.7688C5.34844 13.2611 5.625 13.9288 5.625 14.625ZM4.125 14.625C4.125 14.3266 4.00647 14.0405 3.7955 13.8295C3.58452 13.6185 3.29837 13.5 3 13.5H2.25V15.75H3C3.29837 15.75 3.58452 15.6315 3.7955 15.4205C4.00647 15.2095 4.125 14.9234 4.125 14.625ZM12.375 15.375C12.375 16.2701 12.0194 17.1285 11.3865 17.7615C10.7535 18.3944 9.89511 18.75 9 18.75H7.5C7.30109 18.75 7.11032 18.671 6.96967 18.5303C6.82902 18.3897 6.75 18.1989 6.75 18V12.75C6.75 12.5511 6.82902 12.3603 6.96967 12.2197C7.11032 12.079 7.30109 12 7.5 12H9C9.89511 12 10.7535 12.3556 11.3865 12.9885C12.0194 13.6215 12.375 14.4799 12.375 15.375ZM10.875 15.375C10.875 14.8777 10.6775 14.4008 10.3258 14.0492C9.97419 13.6975 9.49728 13.5 9 13.5H8.25V17.25H9C9.49728 17.25 9.97419 17.0525 10.3258 16.7008C10.6775 16.3492 10.875 15.8723 10.875 15.375ZM0.75 9V2.25C0.75 1.85218 0.908035 1.47064 1.18934 1.18934C1.47064 0.908035 1.85218 0.75 2.25 0.75H11.25C11.3485 0.749923 11.4461 0.769257 11.5371 0.806898C11.6282 0.844539 11.7109 0.899749 11.7806 0.969375L17.0306 6.21938C17.1003 6.28908 17.1555 6.37182 17.1931 6.46286C17.2307 6.55391 17.2501 6.65148 17.25 6.75V9C17.25 9.19891 17.171 9.38968 17.0303 9.53033C16.8897 9.67098 16.6989 9.75 16.5 9.75C16.3011 9.75 16.1103 9.67098 15.9697 9.53033C15.829 9.38968 15.75 9.19891 15.75 9V7.5H11.25C11.0511 7.5 10.8603 7.42098 10.7197 7.28033C10.579 7.13968 10.5 6.94891 10.5 6.75V2.25H2.25V9C2.25 9.19891 2.17098 9.38968 2.03033 9.53033C1.88968 9.67098 1.69891 9.75 1.5 9.75C1.30109 9.75 1.11032 9.67098 0.96967 9.53033C0.829018 9.38968 0.75 9.19891 0.75 9ZM12 6H14.6897L12 3.31031V6Z" fill="black"/>
</svg>
