<svg width="16" height="17" viewBox="0 0 16 17" fill="none" xmlns="http://www.w3.org/2000/svg">
<path d="M5.51167 10.2867C5.38901 10.2867 5.30634 10.2987 5.26367 10.3107V11.096C5.31434 11.108 5.37767 11.1113 5.465 11.1113C5.78434 11.1113 5.98101 10.95 5.98101 10.6773C5.98101 10.4333 5.81167 10.2867 5.51167 10.2867ZM7.83634 10.2947C7.703 10.2947 7.61634 10.3067 7.56501 10.3187V12.0587C7.61634 12.0707 7.699 12.0707 7.77367 12.0707C8.31834 12.0747 8.673 11.7747 8.673 11.14C8.677 10.5867 8.35367 10.2947 7.83634 10.2947Z" fill="#2F2B2B"/>
<path d="M9.33268 1.83331H3.99935C3.64573 1.83331 3.30659 1.97379 3.05654 2.22384C2.80649 2.47389 2.66602 2.81302 2.66602 3.16665V13.8333C2.66602 14.1869 2.80649 14.5261 3.05654 14.7761C3.30659 15.0262 3.64573 15.1666 3.99935 15.1666H11.9993C12.353 15.1666 12.6921 15.0262 12.9422 14.7761C13.1922 14.5261 13.3327 14.1869 13.3327 13.8333V5.83331L9.33268 1.83331ZM6.33135 11.2933C6.12535 11.4866 5.82135 11.5733 5.46735 11.5733C5.39871 11.5741 5.3301 11.57 5.26202 11.5613V12.512H4.66602V9.88798C4.93499 9.84786 5.20676 9.82957 5.47868 9.83331C5.85002 9.83331 6.11402 9.90398 6.29202 10.046C6.46135 10.1806 6.57602 10.4013 6.57602 10.6613C6.57535 10.9226 6.48868 11.1433 6.33135 11.2933ZM8.86935 12.1966C8.58935 12.4293 8.16335 12.54 7.64268 12.54C7.33068 12.54 7.11002 12.52 6.96002 12.5V9.88865C7.22908 9.84937 7.50077 9.83087 7.77268 9.83331C8.27735 9.83331 8.60535 9.92398 8.86135 10.1173C9.13802 10.3226 9.31135 10.65 9.31135 11.12C9.31135 11.6286 9.12535 11.98 8.86935 12.1966ZM11.3327 10.3466H10.3113V10.954H11.266V11.4433H10.3113V12.5126H9.70735V9.85331H11.3327V10.3466ZM9.33268 6.49998H8.66602V3.16665L11.9993 6.49998H9.33268Z" fill="#2F2B2B"/>
</svg>
