<svg width="16" height="17" viewBox="0 0 16 17" fill="none" xmlns="http://www.w3.org/2000/svg">
<g clip-path="url(#clip0_1420_16377)">
<path d="M2.66732 13.8327C2.30065 13.8327 1.98687 13.7022 1.72598 13.4413C1.46465 13.18 1.33398 12.866 1.33398 12.4993L1.33398 4.49935C1.33398 4.13268 1.46465 3.8189 1.72598 3.55802C1.98687 3.29668 2.30065 3.16602 2.66732 3.16602L6.66732 3.16602L8.00065 4.49935L13.334 4.49935C13.7007 4.49935 14.0147 4.63002 14.276 4.89135C14.5369 5.15224 14.6673 5.46602 14.6673 5.83268L14.6673 12.4993C14.6673 12.866 14.5369 13.18 14.276 13.4413C14.0147 13.7022 13.7007 13.8327 13.334 13.8327L2.66732 13.8327ZM9.33398 12.4993H10.6673V11.166H12.0007L12.0007 9.83268H10.6673V8.49935H12.0007V7.16602H10.6673V5.83268L9.33398 5.83268V7.16602L10.6673 7.16602V8.49935H9.33398V9.83268H10.6673L10.6673 11.166H9.33398V12.4993Z" fill="#2F2B2B"/>
</g>
<defs>
<clipPath id="clip0_1420_16377">
<rect width="16" height="16" fill="white" transform="translate(0 0.5)"/>
</clipPath>
</defs>
</svg>
