<svg width="30" height="34" viewBox="0 0 30 34" fill="none" xmlns="http://www.w3.org/2000/svg">
<g filter="url(#filter0_d_1473_17860)">
<path d="M22.6911 6.26871C21.3615 5.4021 20.4027 4.01492 20.1031 2.39871C20.0387 2.04959 20.0028 1.68995 20.0028 1.32227H15.7602L15.7533 18.325C15.6822 20.229 14.1149 21.7574 12.1941 21.7574C11.5968 21.7574 11.0347 21.6082 10.5395 21.3476C9.40425 20.7502 8.6274 19.5605 8.6274 18.1913C8.6274 16.2247 10.2275 14.6246 12.1935 14.6246C12.5605 14.6246 12.9127 14.6853 13.2458 14.7893V10.4581C12.901 10.4111 12.5506 10.382 12.1935 10.382C7.8877 10.382 4.38477 13.8849 4.38477 18.1913C4.38477 20.8332 5.70448 23.1712 7.71871 24.585C8.98704 25.4757 10.5302 26 12.1941 26C16.4999 26 20.0028 22.4971 20.0028 18.1913V9.56922C21.6667 10.7633 23.7057 11.4671 25.9056 11.4671V7.22444C24.7208 7.22444 23.6171 6.87223 22.6911 6.26871Z" fill="white"/>
</g>
<defs>
<filter id="filter0_d_1473_17860" x="-2" y="0.5" width="34" height="34" filterUnits="userSpaceOnUse" color-interpolation-filters="sRGB">
<feFlood flood-opacity="0" result="BackgroundImageFix"/>
<feColorMatrix in="SourceAlpha" type="matrix" values="0 0 0 0 0 0 0 0 0 0 0 0 0 0 0 0 0 0 127 0" result="hardAlpha"/>
<feOffset dy="4"/>
<feGaussianBlur stdDeviation="2"/>
<feComposite in2="hardAlpha" operator="out"/>
<feColorMatrix type="matrix" values="0 0 0 0 0 0 0 0 0 0 0 0 0 0 0 0 0 0 0.25 0"/>
<feBlend mode="normal" in2="BackgroundImageFix" result="effect1_dropShadow_1473_17860"/>
<feBlend mode="normal" in="SourceGraphic" in2="effect1_dropShadow_1473_17860" result="shape"/>
</filter>
</defs>
</svg>
