<svg width="114" height="71" viewBox="0 0 114 71" fill="none" xmlns="http://www.w3.org/2000/svg">
<path d="M2.17999 56.43H4.44L4.83002 58.23H6.62L4.37 49.73H2.25L0 58.23H1.79001L2.17999 56.43ZM3.32001 51.2L4.14001 55.02H2.47L3.29001 51.2H3.32001Z" fill="black"/>
<path d="M12.54 53.32C12.77 52.96 12.88 52.49 12.88 51.92C12.88 51.18 12.68 50.63 12.28 50.27C11.88 49.91 11.33 49.73 10.61 49.73H7.44V58.23H9.14999V54.63H10.07C10.43 54.63 10.68 54.73 10.83 54.92C10.98 55.11 11.06 55.37 11.08 55.71L11.13 57.34C11.13 57.51 11.15 57.67 11.18 57.82C11.2 57.98 11.26 58.11 11.35 58.23H13.21V58.16C13.05 58.07 12.95 57.91 12.9 57.67C12.87 57.43 12.85 57.09 12.83 56.63C12.83 56.4 12.81 56.19 12.81 56.01C12.81 55.83 12.79 55.65 12.77 55.49C12.72 55.01 12.6 54.67 12.4 54.45C12.2 54.24 11.89 54.1 11.46 54.03V54.01C11.94 53.91 12.3 53.68 12.53 53.31L12.54 53.32ZM10.84 53.15C10.62 53.34 10.3 53.44 9.89001 53.44H9.17999V50.99H9.98999C10.78 50.99 11.18 51.38 11.18 52.17C11.18 52.63 11.07 52.96 10.85 53.15H10.84Z" fill="black"/>
<path d="M17.22 58.23V51.13H19.08V49.73H13.65V51.13H15.5V58.23H17.22Z" fill="black"/>
<path d="M27.48 53.13H24.62V51.13H27.66V49.73H22.91V58.23H24.62V54.54H27.48V53.13Z" fill="black"/>
<path d="M34.04 58.23L31.79 49.73H29.67L27.42 58.23H29.21L29.6 56.43H31.86L32.25 58.23H34.04ZM29.9 55.03L30.72 51.21H30.74L31.56 55.03H29.89H29.9Z" fill="black"/>
<path d="M36.67 49.73H34.96V58.23H36.67V49.73Z" fill="black"/>
<path d="M43.27 53.32C43.5 52.96 43.61 52.49 43.61 51.92C43.61 51.18 43.41 50.63 43.01 50.27C42.61 49.91 42.06 49.73 41.34 49.73H38.17V58.23H39.88V54.63H40.8C41.16 54.63 41.41 54.73 41.56 54.92C41.71 55.11 41.79 55.37 41.81 55.71L41.86 57.34C41.86 57.51 41.88 57.67 41.91 57.82C41.93 57.98 41.99 58.11 42.08 58.23H43.94V58.16C43.78 58.07 43.68 57.91 43.63 57.67C43.6 57.43 43.58 57.09 43.56 56.63C43.56 56.4 43.54 56.19 43.54 56.01C43.54 55.83 43.52 55.65 43.5 55.49C43.45 55.01 43.33 54.67 43.13 54.45C42.93 54.24 42.62 54.1 42.19 54.03V54.01C42.67 53.91 43.03 53.68 43.26 53.31L43.27 53.32ZM41.57 53.15C41.35 53.34 41.03 53.44 40.62 53.44H39.91V50.99H40.72C41.51 50.99 41.91 51.38 41.91 52.17C41.91 52.63 41.8 52.96 41.58 53.15H41.57Z" fill="black"/>
<path d="M49.04 56.43H51.3L51.69 58.23H53.48L51.23 49.73H49.11L46.86 58.23H48.65L49.04 56.43ZM50.18 51.2L51 55.02H49.33L50.15 51.2H50.18Z" fill="black"/>
<path d="M56.02 51.13C56.1 51.04 56.2 50.96 56.32 50.91C56.44 50.86 56.61 50.83 56.8 50.83C57.13 50.83 57.37 50.94 57.51 51.16C57.65 51.38 57.72 51.69 57.72 52.09H59.36V51.85C59.36 51.45 59.29 51.1 59.16 50.81C59.03 50.52 58.85 50.28 58.61 50.1C58.37 49.92 58.1 49.78 57.78 49.69C57.46 49.61 57.11 49.57 56.73 49.57C55.91 49.57 55.27 49.78 54.8 50.19C54.33 50.6 54.1 51.23 54.1 52.07C54.1 52.42 54.14 52.73 54.23 52.99C54.32 53.26 54.45 53.49 54.64 53.69C54.83 53.89 55.06 54.07 55.34 54.22C55.62 54.37 55.95 54.51 56.33 54.64C56.62 54.74 56.86 54.83 57.05 54.92C57.24 55.01 57.4 55.11 57.52 55.22C57.64 55.33 57.72 55.46 57.78 55.6C57.83 55.74 57.86 55.9 57.86 56.09C57.86 56.45 57.75 56.71 57.54 56.88C57.33 57.05 57.09 57.14 56.83 57.14C56.61 57.14 56.42 57.11 56.28 57.05C56.14 56.99 56.02 56.9 55.93 56.79C55.84 56.68 55.78 56.54 55.75 56.38C55.72 56.22 55.7 56.04 55.7 55.84V55.59H53.99V55.94C53.99 56.73 54.2 57.33 54.61 57.75C55.03 58.17 55.72 58.38 56.69 58.38C57.66 58.38 58.34 58.18 58.86 57.77C59.38 57.36 59.64 56.71 59.64 55.81C59.64 55.55 59.62 55.31 59.57 55.1C59.52 54.89 59.44 54.69 59.31 54.51C59.18 54.33 59.02 54.16 58.82 54.01C58.61 53.85 58.35 53.71 58.02 53.56L56.7 52.99C56.33 52.84 56.1 52.67 55.99 52.5C55.88 52.32 55.82 52.1 55.82 51.84C55.82 51.71 55.83 51.59 55.86 51.47C55.89 51.35 55.94 51.25 56.02 51.15V51.13Z" fill="black"/>
<path d="M62.53 49.73H60.82V58.23H62.53V49.73Z" fill="black"/>
<path d="M65.7 49.73L63.45 58.23H65.24L65.63 56.43H67.89L68.28 58.23H70.07L67.82 49.73H65.7ZM65.93 55.03L66.75 51.21H66.77L67.59 55.03H65.92H65.93Z" fill="black"/>
<path d="M0.600006 70.26H2.31V66.56H5.17001V65.16H2.31V63.16H5.35001V61.75H0.600006V70.26Z" fill="black"/>
<path d="M9.72 67.68C9.72 67.89 9.70999 68.09 9.67999 68.27C9.64999 68.45 9.6 68.6 9.53 68.73C9.45 68.86 9.35001 68.96 9.23001 69.04C9.10001 69.12 8.94001 69.15 8.73001 69.15C8.52001 69.15 8.36999 69.11 8.23999 69.04C8.10999 68.96 8.00999 68.86 7.92999 68.73C7.84999 68.6 7.79999 68.44 7.76999 68.27C7.73999 68.09 7.73001 67.89 7.73001 67.68V61.75H6.01999V67.68C6.01999 68.25 6.1 68.72 6.25 69.07C6.4 69.43 6.60002 69.7 6.86002 69.9C7.11002 70.1 7.40001 70.22 7.73001 70.29C8.06001 70.36 8.38999 70.38 8.73999 70.38C9.08999 70.38 9.43 70.34 9.75 70.27C10.08 70.2 10.37 70.06 10.62 69.85C10.87 69.64 11.08 69.36 11.23 69.01C11.38 68.66 11.46 68.21 11.46 67.67V61.74H9.75V67.67L9.72 67.68Z" fill="black"/>
<path d="M18.28 61.75H16.42L14.25 65.16H14.23V61.75H12.52V70.26H14.23V67.73L14.86 66.77L16.61 70.26H18.54L15.97 65.4L18.28 61.75Z" fill="black"/>
<path d="M22.52 67.68C22.52 67.89 22.51 68.09 22.48 68.27C22.45 68.45 22.4 68.6 22.33 68.73C22.25 68.86 22.15 68.96 22.03 69.04C21.9 69.12 21.74 69.15 21.53 69.15C21.32 69.15 21.17 69.11 21.04 69.04C20.91 68.96 20.81 68.86 20.73 68.73C20.65 68.6 20.6 68.44 20.57 68.27C20.54 68.09 20.53 67.89 20.53 67.68V61.75H18.82V67.68C18.82 68.25 18.9 68.72 19.05 69.07C19.2 69.43 19.4 69.7 19.66 69.9C19.91 70.1 20.2 70.22 20.53 70.29C20.86 70.36 21.19 70.38 21.54 70.38C21.89 70.38 22.23 70.34 22.55 70.27C22.88 70.2 23.17 70.06 23.42 69.85C23.67 69.64 23.88 69.36 24.03 69.01C24.18 68.66 24.26 68.21 24.26 67.67V61.74H22.55V67.67L22.52 67.68Z" fill="black"/>
<path d="M30.44 62.83C30.24 62.44 29.95 62.14 29.56 61.92C29.18 61.7 28.67 61.59 28.02 61.59C27.37 61.59 26.87 61.7 26.48 61.92C26.1 62.14 25.81 62.44 25.6 62.83C25.4 63.22 25.27 63.69 25.21 64.23C25.15 64.77 25.12 65.37 25.12 66.01C25.12 66.65 25.15 67.26 25.21 67.8C25.27 68.34 25.4 68.8 25.6 69.19C25.8 69.58 26.09 69.88 26.48 70.08C26.86 70.29 27.37 70.39 28.02 70.39C28.67 70.39 29.18 70.29 29.56 70.08C29.94 69.87 30.23 69.58 30.44 69.19C30.65 68.8 30.77 68.34 30.83 67.8C30.89 67.26 30.92 66.67 30.92 66.01C30.92 65.35 30.89 64.77 30.83 64.23C30.77 63.69 30.64 63.22 30.44 62.83ZM29.17 67.47C29.14 67.87 29.09 68.2 29 68.45C28.91 68.7 28.8 68.88 28.64 69C28.49 69.11 28.28 69.17 28.03 69.17C27.78 69.17 27.57 69.11 27.42 69C27.27 68.88 27.15 68.7 27.06 68.45C26.98 68.2 26.92 67.87 26.89 67.47C26.86 67.07 26.85 66.58 26.85 66.01C26.85 65.44 26.86 64.95 26.89 64.56C26.92 64.16 26.97 63.84 27.06 63.58C27.14 63.33 27.26 63.14 27.42 63.03C27.58 62.92 27.78 62.86 28.03 62.86C28.28 62.86 28.49 62.92 28.64 63.03C28.8 63.15 28.91 63.33 29 63.58C29.08 63.83 29.14 64.16 29.17 64.56C29.2 64.96 29.21 65.44 29.21 66.01C29.21 66.58 29.2 67.07 29.17 67.47Z" fill="black"/>
<path d="M39.98 61.75L37.81 69.97L35.39 65.4L37.7 61.76H35.84L33.67 65.17H33.65V61.76H31.94V70.26H33.65V67.74L34.28 66.78L36.03 70.27H39.52L39.91 68.47H42.17L42.56 70.27H44.35L42.1 61.77H39.98V61.75ZM40.21 67.05L41.03 63.23H41.05L41.87 67.05H40.2H40.21Z" fill="black"/>
<path d="M49.71 68.36C49.85 68.14 50.05 67.92 50.31 67.69L51.26 66.81C51.5 66.6 51.7 66.39 51.87 66.19C52.04 65.99 52.17 65.78 52.28 65.57C52.38 65.36 52.46 65.13 52.51 64.9C52.56 64.67 52.58 64.41 52.58 64.14C52.58 63.4 52.37 62.83 51.96 62.44C51.55 62.04 50.91 61.84 50.06 61.84C49.15 61.84 48.49 62.05 48.07 62.47C47.65 62.89 47.44 63.49 47.44 64.28V64.6H49.08C49.08 64.38 49.08 64.17 49.11 63.97C49.13 63.77 49.17 63.6 49.24 63.45C49.31 63.3 49.4 63.18 49.53 63.09C49.65 63 49.82 62.96 50.04 62.96C50.6 62.96 50.87 63.31 50.87 64.01C50.87 64.22 50.86 64.42 50.84 64.58C50.82 64.75 50.78 64.9 50.72 65.04C50.66 65.18 50.57 65.33 50.45 65.47C50.33 65.61 50.18 65.77 49.99 65.93L49.3 66.57C48.99 66.86 48.72 67.14 48.48 67.42C48.25 67.7 48.05 67.99 47.9 68.28C47.74 68.57 47.63 68.88 47.55 69.21C47.47 69.54 47.44 69.88 47.44 70.26H52.63V68.93H49.45C49.49 68.77 49.58 68.58 49.72 68.36H49.71Z" fill="black"/>
<path d="M57.87 62.75C57.67 62.42 57.4 62.19 57.06 62.04C56.72 61.89 56.3 61.82 55.78 61.82C55.15 61.82 54.66 61.94 54.31 62.2C53.96 62.45 53.69 62.78 53.52 63.2C53.35 63.62 53.24 64.1 53.2 64.63C53.16 65.17 53.14 65.73 53.14 66.32C53.14 67.07 53.18 67.7 53.26 68.22C53.34 68.74 53.49 69.16 53.69 69.49C53.89 69.82 54.16 70.05 54.51 70.18C54.85 70.31 55.28 70.38 55.78 70.38C56.41 70.38 56.9 70.26 57.25 70.02C57.6 69.78 57.87 69.45 58.04 69.04C58.21 68.62 58.32 68.14 58.36 67.6C58.4 67.06 58.42 66.5 58.42 65.91C58.42 65.16 58.38 64.53 58.3 64.01C58.22 63.49 58.07 63.07 57.87 62.74V62.75ZM56.71 66.46C56.71 67 56.7 67.45 56.67 67.82C56.64 68.19 56.59 68.48 56.53 68.7C56.46 68.92 56.37 69.07 56.25 69.16C56.13 69.25 55.98 69.3 55.79 69.3C55.6 69.3 55.46 69.26 55.34 69.19C55.22 69.12 55.13 68.99 55.05 68.79C54.98 68.6 54.93 68.33 54.9 67.99C54.87 67.65 54.86 67.22 54.86 66.69V65.77C54.86 65.23 54.87 64.78 54.9 64.41C54.93 64.04 54.98 63.75 55.04 63.53C55.1 63.31 55.2 63.16 55.32 63.07C55.44 62.98 55.59 62.93 55.78 62.93C55.97 62.93 56.11 62.97 56.23 63.04C56.35 63.11 56.44 63.24 56.52 63.44C56.59 63.64 56.64 63.9 56.67 64.24C56.7 64.58 56.71 65.01 56.71 65.54V66.46Z" fill="black"/>
<path d="M61.14 68.36C61.28 68.14 61.48 67.92 61.74 67.69L62.69 66.81C62.93 66.6 63.13 66.39 63.3 66.19C63.47 65.99 63.6 65.78 63.71 65.57C63.81 65.36 63.89 65.13 63.94 64.9C63.99 64.67 64.01 64.41 64.01 64.14C64.01 63.4 63.8 62.83 63.39 62.44C62.98 62.04 62.34 61.84 61.49 61.84C60.58 61.84 59.92 62.05 59.5 62.47C59.08 62.89 58.87 63.49 58.87 64.28V64.6H60.51C60.51 64.38 60.51 64.17 60.54 63.97C60.56 63.77 60.6 63.6 60.67 63.45C60.74 63.3 60.83 63.18 60.96 63.09C61.08 63 61.25 62.96 61.47 62.96C62.03 62.96 62.3 63.31 62.3 64.01C62.3 64.22 62.29 64.42 62.27 64.58C62.25 64.75 62.21 64.9 62.15 65.04C62.09 65.18 62 65.33 61.88 65.47C61.76 65.61 61.61 65.77 61.42 65.93L60.73 66.57C60.42 66.86 60.15 67.14 59.91 67.42C59.68 67.7 59.48 67.99 59.33 68.28C59.17 68.57 59.06 68.88 58.98 69.21C58.9 69.54 58.87 69.88 58.87 70.26H64.06V68.93H60.88C60.92 68.77 61.01 68.58 61.15 68.36H61.14Z" fill="black"/>
<path d="M68.33 65.87V65.85C68.74 65.76 69.05 65.56 69.28 65.24C69.51 64.92 69.62 64.5 69.62 64C69.62 63.25 69.41 62.71 68.98 62.36C68.56 62.01 67.96 61.84 67.19 61.84C66.38 61.84 65.77 62.05 65.34 62.45C64.92 62.86 64.71 63.48 64.71 64.33H66.28C66.28 64.13 66.28 63.95 66.31 63.78C66.33 63.61 66.37 63.47 66.43 63.35C66.49 63.23 66.58 63.13 66.7 63.06C66.82 62.99 66.96 62.96 67.15 62.96C67.43 62.96 67.63 63.04 67.77 63.21C67.9 63.38 67.97 63.66 67.97 64.07C67.97 64.24 67.95 64.41 67.92 64.57C67.88 64.73 67.83 64.87 67.75 64.99C67.67 65.11 67.58 65.21 67.45 65.29C67.32 65.37 67.17 65.4 66.99 65.4H66.43V66.52H67C67.24 66.52 67.43 66.56 67.57 66.64C67.71 66.72 67.82 66.83 67.9 66.96C67.98 67.09 68.03 67.25 68.06 67.42C68.09 67.59 68.1 67.77 68.1 67.96C68.1 68.15 68.09 68.32 68.07 68.48C68.05 68.65 68.01 68.79 67.94 68.91C67.87 69.03 67.78 69.13 67.65 69.2C67.52 69.27 67.36 69.31 67.16 69.31C66.79 69.31 66.54 69.18 66.42 68.92C66.3 68.66 66.23 68.29 66.22 67.8H64.58V67.84C64.58 68.66 64.78 69.29 65.19 69.73C65.59 70.18 66.21 70.4 67.02 70.4C67.61 70.4 68.08 70.32 68.44 70.17C68.8 70.02 69.08 69.82 69.29 69.58C69.5 69.33 69.63 69.06 69.71 68.76C69.78 68.46 69.82 68.16 69.82 67.88C69.82 67.35 69.71 66.91 69.48 66.55C69.25 66.2 68.87 65.98 68.32 65.89L68.33 65.87Z" fill="black"/>
<path d="M0.480014 43.33H8.04999C8.29999 43.33 8.51 43.14 8.53 42.89C8.63 41.62 9 39.88 9.59 37.84L15.01 15.56C15.19 14.88 15.38 14.15 15.56 13.4C15.73 12.7 16.72 12.71 16.88 13.4C17.05 14.14 17.23 14.87 17.41 15.54C19.16 22.93 23.11 41.85 23.19 42.87C23.21 43.12 23.42 43.31 23.67 43.31H31.76C31.91 43.31 32.05 43.24 32.14 43.12C32.23 43 32.26 42.85 32.22 42.7L21.36 0.35C21.3 0.14 21.11 0 20.9 0H11.29C11.05 0 10.84 0.18 10.81 0.43C10.64 1.95 10.47 3.59 9.79999 6.4L0.0199921 42.72C-0.0200079 42.86 0.0200092 43.02 0.100009 43.14C0.190009 43.26 0.330014 43.33 0.480014 43.33Z" fill="black"/>
<path d="M34.96 42.84C34.96 43.11 35.18 43.32 35.44 43.32H42.75C42.89 43.32 43.03 43.26 43.12 43.14C43.21 43.03 43.25 42.88 43.22 42.74C43.02 41.73 42.87 38.95 42.87 37.63V25.23C42.87 24.86 43.17 24.57 43.53 24.57H49.53C51.44 24.57 54.74 24.68 55.7 24.87C55.73 24.87 55.76 24.87 55.79 24.87C55.9 24.87 56.01 24.83 56.1 24.76C56.21 24.67 56.28 24.53 56.28 24.39V18.71C56.28 18.44 56.06 18.23 55.8 18.23H42.87V7.26C42.87 6.89 43.17 6.6 43.53 6.6H53.06C54.82 6.6 57.11 6.7 58.08 6.9C58.11 6.9 58.14 6.9 58.17 6.9C58.28 6.9 58.39 6.86 58.48 6.79C58.59 6.7 58.66 6.56 58.66 6.42V0.48C58.66 0.21 58.44 0 58.18 0H35.08C34.94 0 34.8 0.07 34.71 0.18C34.62 0.29 34.58 0.44 34.61 0.58C34.8 1.46 34.96 3.9 34.96 5.8V42.84Z" fill="black"/>
<path d="M76.66 0.35C76.6 0.14 76.41 0 76.2 0H66.59C66.34 0 66.14 0.18 66.11 0.43C65.94 1.95 65.8 3.43 65.1 6.4L55.32 42.72C55.28 42.86 55.32 43.02 55.4 43.14C55.48 43.26 55.63 43.33 55.78 43.33H63.35C63.6 43.33 63.81 43.14 63.83 42.89C63.93 41.62 64.3 39.88 64.89 37.84L70.31 15.56C70.49 14.88 70.68 14.15 70.86 13.4C71.03 12.7 72.02 12.71 72.18 13.4C72.35 14.14 72.53 14.87 72.71 15.54C74.46 22.93 78.41 41.85 78.49 42.87C78.51 43.12 78.72 43.31 78.97 43.31H86.6C86.75 43.31 86.89 43.24 86.98 43.12C87.07 43 87.1 42.85 87.06 42.7L76.66 0.35Z" fill="black"/>
<path d="M113.03 0H89.93C89.79 0 89.65 0.07 89.56 0.18C89.47 0.29 89.43 0.44 89.46 0.58C89.65 1.46 89.81 3.9 89.81 5.8V42.84C89.81 43.11 90.03 43.32 90.29 43.32H97.6C97.74 43.32 97.88 43.26 97.97 43.14C98.06 43.03 98.1 42.88 98.07 42.74C97.87 41.73 97.72 38.95 97.72 37.63V25.23C97.72 24.86 98.02 24.57 98.38 24.57H104.38C106.29 24.57 109.59 24.68 110.55 24.87C110.58 24.87 110.61 24.87 110.64 24.87C110.75 24.87 110.86 24.83 110.95 24.76C111.06 24.67 111.13 24.53 111.13 24.39V18.71C111.13 18.44 110.91 18.23 110.65 18.23H97.72V7.26C97.72 6.89 98.02 6.6 98.38 6.6H107.91C109.67 6.6 111.96 6.7 112.93 6.9C112.96 6.9 112.99 6.9 113.02 6.9C113.13 6.9 113.24 6.86 113.33 6.79C113.44 6.7 113.51 6.56 113.51 6.42V0.48C113.51 0.21 113.29 0 113.03 0Z" fill="black"/>
</svg>
