<svg width="251" height="234" viewBox="0 0 251 234" fill="none" xmlns="http://www.w3.org/2000/svg">
<g clip-path="url(#clip0_1201_12377)">
<path d="M7.81191 150.041H15.9098L17.3221 156.49H23.7217L15.6596 125.966H8.06218L0 156.49H6.39969L7.81191 150.041ZM11.8162 131.286H11.9056L14.8551 145.007H8.88448L11.8341 131.286H11.8162Z" fill="black"/>
<path d="M44.9051 138.863C45.7274 137.573 46.1385 135.889 46.1385 133.847C46.1385 131.196 45.4235 129.226 44.0113 127.936C42.5812 126.646 40.5969 125.983 38.0406 125.983H26.6892V156.508H32.8386V143.592H36.1278C37.4149 143.592 38.3087 143.932 38.8629 144.613C39.3992 145.294 39.7031 146.243 39.7567 147.426L39.9176 153.283C39.9534 153.874 40.007 154.465 40.0964 155.021C40.1857 155.576 40.3824 156.06 40.6863 156.49H47.3362V156.239C46.7642 155.934 46.4067 155.343 46.2279 154.483C46.1206 153.624 46.0313 152.388 45.9776 150.757C45.9419 149.933 45.924 149.181 45.8883 148.518C45.8525 147.855 45.8168 147.229 45.7631 146.655C45.6022 144.954 45.1553 143.7 44.4403 142.929C43.7252 142.159 42.599 141.658 41.0796 141.443V141.353C42.8135 140.977 44.1006 140.153 44.9229 138.845L44.9051 138.863ZM38.8093 138.272C38.0048 138.971 36.8786 139.311 35.3949 139.311H32.8386V130.498H35.7346C38.5769 130.498 40.007 131.913 40.007 134.725C40.007 136.373 39.6137 137.555 38.8093 138.254V138.272Z" fill="black"/>
<path d="M68.3229 125.983H48.8736V131.035H55.5235V156.49H61.673V131.035H68.3229V125.983Z" fill="black"/>
<path d="M98.4443 138.2H88.2013V131.035H99.07V125.983H82.0518V156.49H88.2013V143.252H98.4443V138.2Z" fill="black"/>
<path d="M121.934 156.49L113.872 125.966H106.274L98.212 156.49H104.612L106.024 150.041H114.122L115.534 156.49H121.934ZM107.096 144.989L110.046 131.268H110.135L113.085 144.989H107.096Z" fill="black"/>
<path d="M131.372 125.983H125.223V156.508H131.372V125.983Z" fill="black"/>
<path d="M154.987 138.863C155.809 137.573 156.22 135.889 156.22 133.847C156.22 131.196 155.505 129.226 154.093 127.936C152.663 126.646 150.679 125.983 148.122 125.983H136.771V156.508H142.92V143.592H146.21C147.497 143.592 148.391 143.932 148.945 144.613C149.481 145.294 149.785 146.243 149.838 147.426L149.999 153.283C150.035 153.874 150.089 154.465 150.178 155.021C150.268 155.576 150.464 156.06 150.768 156.49H157.418V156.239C156.846 155.934 156.488 155.343 156.31 154.483C156.202 153.624 156.113 152.388 156.059 150.757C156.024 149.933 156.006 149.181 155.97 148.518C155.934 147.855 155.899 147.229 155.845 146.655C155.684 144.954 155.237 143.7 154.522 142.929C153.807 142.159 152.681 141.658 151.161 141.443V141.353C152.895 140.977 154.182 140.153 155.005 138.845L154.987 138.863ZM148.891 138.272C148.087 138.971 146.96 139.311 145.477 139.311H142.92V130.498H145.816C148.659 130.498 150.089 131.913 150.089 134.725C150.089 136.373 149.695 137.555 148.891 138.254V138.272Z" fill="black"/>
<path d="M175.938 125.983L167.876 156.508H174.275L175.687 150.059H183.785L185.198 156.508H191.597L183.535 125.983H175.938ZM176.742 145.007L179.692 131.286H179.781L182.731 145.007H176.742Z" fill="black"/>
<path d="M212.459 143.055C212.012 142.41 211.422 141.819 210.689 141.263C209.956 140.708 208.991 140.171 207.829 139.669L203.092 137.609C201.787 137.072 200.929 136.481 200.535 135.836C200.142 135.191 199.946 134.403 199.946 133.471C199.946 133.023 199.999 132.576 200.089 132.146C200.178 131.716 200.375 131.339 200.643 131.017C200.911 130.695 201.268 130.426 201.733 130.229C202.18 130.032 202.752 129.924 203.431 129.924C204.629 129.924 205.487 130.318 205.988 131.107C206.488 131.895 206.756 133.005 206.756 134.456H212.638V133.597C212.638 132.146 212.405 130.892 211.94 129.853C211.476 128.814 210.814 127.954 209.974 127.291C209.134 126.628 208.133 126.145 206.989 125.84C205.845 125.536 204.575 125.392 203.217 125.392C200.285 125.392 197.979 126.127 196.299 127.614C194.618 129.1 193.778 131.34 193.778 134.367C193.778 135.621 193.939 136.731 194.243 137.681C194.547 138.63 195.047 139.472 195.709 140.207C196.37 140.941 197.21 141.568 198.212 142.105C199.213 142.643 200.392 143.144 201.751 143.592C202.77 143.932 203.628 144.273 204.325 144.595C205.022 144.918 205.577 145.294 206.006 145.688C206.435 146.082 206.738 146.53 206.917 147.031C207.096 147.533 207.203 148.124 207.203 148.805C207.203 150.095 206.828 151.026 206.077 151.653C205.326 152.262 204.486 152.567 203.539 152.567C202.734 152.567 202.073 152.459 201.554 152.226C201.036 151.993 200.607 151.689 200.303 151.295C199.981 150.901 199.785 150.399 199.66 149.826C199.552 149.235 199.499 148.59 199.499 147.873V146.978H193.349V148.214C193.349 151.026 194.1 153.194 195.584 154.716C197.067 156.221 199.552 156.973 203.02 156.973C206.488 156.973 208.937 156.239 210.796 154.77C212.656 153.301 213.585 150.954 213.585 147.748C213.585 146.816 213.496 145.957 213.335 145.186C213.156 144.416 212.852 143.718 212.423 143.073L212.459 143.055Z" fill="black"/>
<path d="M224.007 125.983H217.857V156.508H224.007V125.983Z" fill="black"/>
<path d="M242.938 125.983H235.34L227.278 156.508H233.678L235.09 150.059H243.188L244.6 156.508H251L242.938 125.983ZM236.163 145.007L239.112 131.286H239.202L242.151 145.007H236.163Z" fill="black"/>
<path d="M19.1454 169.548V164.497H2.12727V195.003H8.27669V181.765H18.5019V176.714H8.27669V169.548H19.1454Z" fill="black"/>
<path d="M34.805 185.778C34.805 186.548 34.7514 187.247 34.662 187.891C34.5726 188.536 34.376 189.092 34.1078 189.557C33.8397 190.023 33.4822 190.399 33.0174 190.668C32.5705 190.937 31.9627 191.08 31.2298 191.08C30.4968 191.08 29.9248 190.937 29.46 190.668C28.9952 190.399 28.6198 190.023 28.3517 189.557C28.0835 189.092 27.9048 188.536 27.7975 187.891C27.6903 187.247 27.6545 186.548 27.6545 185.778V164.497H21.5051V185.778C21.5051 187.838 21.7732 189.504 22.3095 190.775C22.8458 192.065 23.5787 193.05 24.4904 193.749C25.4021 194.448 26.4389 194.913 27.6009 195.146C28.7628 195.379 29.9784 195.487 31.2298 195.487C32.4811 195.487 33.6967 195.361 34.8586 195.11C36.0206 194.86 37.0574 194.358 37.9691 193.624C38.8808 192.889 39.6137 191.886 40.15 190.614C40.6863 189.342 40.9544 187.748 40.9544 185.814V164.533H34.805V185.814V185.778Z" fill="black"/>
<path d="M50.9651 185.957L53.2354 182.482L59.4921 195.003H66.4102L57.2039 177.573L65.4627 164.497H58.8128L51.0545 176.714H50.9651V164.497H44.8336V195.003H50.9651V185.957Z" fill="black"/>
<path d="M80.6575 185.778C80.6575 186.548 80.6039 187.247 80.5145 187.891C80.4251 188.536 80.2285 189.092 79.9603 189.557C79.6922 190.023 79.3347 190.399 78.8699 190.668C78.423 190.937 77.8152 191.08 77.0823 191.08C76.3493 191.08 75.7773 190.937 75.3125 190.668C74.8477 190.399 74.4723 190.023 74.2042 189.557C73.936 189.092 73.7573 188.536 73.65 187.891C73.5428 187.247 73.507 186.548 73.507 185.778V164.497H67.3576V185.778C67.3576 187.838 67.6257 189.504 68.162 190.775C68.6983 192.065 69.4312 193.05 70.3429 193.749C71.2546 194.448 72.2914 194.913 73.4534 195.146C74.6153 195.379 75.8309 195.487 77.0823 195.487C78.3336 195.487 79.5492 195.361 80.7111 195.11C81.8731 194.86 82.9099 194.358 83.8216 193.624C84.7333 192.889 85.4662 191.886 86.0025 190.614C86.5388 189.342 86.8069 187.748 86.8069 185.814V164.533H80.6575V185.814V185.778Z" fill="black"/>
<path d="M109.027 168.348C108.294 166.951 107.257 165.858 105.899 165.07C104.54 164.282 102.699 163.888 100.393 163.888C98.0868 163.888 96.2634 164.282 94.887 165.07C93.5284 165.858 92.4737 166.951 91.7586 168.348C91.0257 169.745 90.5609 171.411 90.3464 173.364C90.1319 175.316 90.0246 177.448 90.0246 179.759C90.0246 182.07 90.1319 184.237 90.3464 186.172C90.5609 188.106 91.0257 189.772 91.7586 191.17C92.4916 192.567 93.5284 193.642 94.887 194.376C96.2456 195.11 98.0868 195.487 100.393 195.487C102.699 195.487 104.522 195.11 105.899 194.376C107.257 193.642 108.312 192.567 109.027 191.17C109.76 189.772 110.225 188.106 110.439 186.172C110.654 184.237 110.761 182.105 110.761 179.759C110.761 177.412 110.654 175.316 110.439 173.364C110.225 171.411 109.76 169.745 109.027 168.348ZM104.469 184.99C104.361 186.423 104.165 187.605 103.879 188.5C103.593 189.396 103.146 190.059 102.592 190.471C102.037 190.883 101.305 191.098 100.393 191.098C99.4812 191.098 98.7482 190.883 98.1941 190.471C97.6399 190.059 97.2109 189.396 96.907 188.5C96.6031 187.605 96.4065 186.44 96.3171 184.99C96.2277 183.539 96.1741 181.801 96.1741 179.759C96.1741 177.717 96.2277 175.961 96.3171 174.546C96.4065 173.131 96.621 171.949 96.907 171.035C97.2109 170.122 97.6399 169.459 98.1941 169.047C98.7482 168.635 99.4812 168.42 100.393 168.42C101.305 168.42 102.037 168.635 102.592 169.047C103.146 169.459 103.575 170.122 103.879 171.035C104.183 171.949 104.379 173.113 104.469 174.546C104.558 175.979 104.612 177.717 104.612 179.759C104.612 181.801 104.558 183.556 104.469 184.99Z" fill="black"/>
<path d="M143.224 164.497L135.43 193.982L126.76 177.573L135.037 164.497H128.387L120.629 176.714H120.539V164.497H114.39V195.021H120.539V185.957L122.792 182.5L129.066 195.021H141.562L142.974 188.572H151.072L152.484 195.021H158.884L150.822 164.497H143.224ZM144.029 183.521L146.978 169.799H147.068L150.017 183.521H144.029Z" fill="black"/>
<path d="M8.95599 226.709C9.4744 225.921 10.1716 225.115 11.0833 224.291L14.4976 221.12C15.3557 220.35 16.0707 219.598 16.6785 218.881C17.2684 218.147 17.7511 217.412 18.1265 216.642C18.5019 215.872 18.77 215.066 18.9309 214.224C19.0918 213.382 19.1812 212.486 19.1812 211.501C19.1812 208.85 18.4483 206.808 16.9645 205.393C15.4808 203.977 13.2105 203.261 10.1358 203.261C6.90022 203.261 4.52268 204.013 3.02108 205.518C1.51948 207.023 0.768677 209.19 0.768677 212.021V213.167H6.64995C6.64995 212.379 6.68571 211.608 6.75721 210.91C6.82872 210.193 6.9896 209.566 7.22199 209.029C7.45438 208.492 7.81191 208.062 8.24094 207.739C8.68784 207.417 9.27776 207.274 10.0464 207.274C12.0307 207.274 13.0318 208.527 13.0318 211.035C13.0318 211.806 12.996 212.486 12.9245 213.095C12.853 213.686 12.71 214.242 12.4776 214.761C12.2452 215.281 11.9234 215.782 11.5123 216.302C11.1011 216.821 10.547 217.377 9.86767 217.968L7.40075 220.278C6.29243 221.3 5.30924 222.321 4.48693 223.342C3.64675 224.345 2.94958 225.384 2.39541 226.441C1.84125 227.498 1.4301 228.608 1.16195 229.772C0.893811 230.937 0.750801 232.191 0.750801 233.534H19.3421V228.751H7.95492C8.09793 228.178 8.4197 227.497 8.93811 226.727L8.95599 226.709Z" fill="black"/>
<path d="M38.2015 206.593C37.4686 205.428 36.5032 204.587 35.3055 204.049C34.09 203.53 32.5705 203.261 30.7292 203.261C28.4768 203.261 26.7249 203.709 25.4557 204.604C24.1865 205.5 23.2391 206.7 22.6134 208.187C21.9877 209.674 21.5945 211.394 21.4693 213.346C21.3263 215.281 21.2548 217.305 21.2548 219.419C21.2548 222.106 21.3978 224.363 21.7017 226.244C22.0056 228.107 22.5062 229.629 23.2391 230.794C23.972 231.958 24.9373 232.782 26.1529 233.266C27.3685 233.749 28.9058 234 30.7113 234C32.9637 234 34.7156 233.57 35.9848 232.71C37.254 231.85 38.2015 230.686 38.8271 229.181C39.4528 227.695 39.8282 225.975 39.9712 224.022C40.1142 222.088 40.1857 220.064 40.1857 217.95C40.1857 215.263 40.0427 213.006 39.7388 211.125C39.4349 209.262 38.9344 207.739 38.2015 206.575V206.593ZM34.0363 219.92C34.0363 221.855 33.9827 223.485 33.8933 224.793C33.7861 226.1 33.6252 227.157 33.3749 227.927C33.1246 228.716 32.8029 229.271 32.3738 229.593C31.9448 229.916 31.3906 230.077 30.7113 230.077C30.032 230.077 29.5136 229.952 29.0846 229.701C28.6556 229.45 28.3159 228.966 28.0657 228.268C27.8154 227.569 27.6366 226.62 27.5294 225.402C27.4221 224.184 27.3864 222.625 27.3864 220.726V217.43C27.3864 215.496 27.44 213.866 27.5294 212.558C27.6366 211.25 27.7975 210.193 28.0478 209.423C28.2802 208.635 28.6198 208.08 29.0489 207.757C29.4779 207.435 30.032 207.274 30.7113 207.274C31.3906 207.274 31.9091 207.399 32.3381 207.65C32.7671 207.9 33.1068 208.384 33.357 209.083C33.6073 209.781 33.7861 210.731 33.8933 211.949C34.0006 213.167 34.0363 214.725 34.0363 216.624V219.92Z" fill="black"/>
<path d="M49.9104 226.709C50.4288 225.921 51.126 225.115 52.0377 224.291L55.452 221.12C56.3101 220.35 57.0251 219.598 57.6329 218.881C58.2229 218.147 58.7055 217.412 59.0809 216.642C59.4563 215.872 59.7244 215.066 59.8853 214.224C60.0462 213.382 60.1356 212.486 60.1356 211.501C60.1356 208.85 59.4027 206.808 57.919 205.393C56.4352 203.977 54.1649 203.261 51.0902 203.261C47.8546 203.261 45.4771 204.013 43.9755 205.518C42.4739 207.023 41.7231 209.19 41.7231 212.021V213.167H47.6044C47.6044 212.379 47.6401 211.608 47.7116 210.91C47.7831 210.193 47.944 209.566 48.1764 209.029C48.4088 208.492 48.7663 208.062 49.1954 207.739C49.6423 207.417 50.2322 207.274 51.0009 207.274C52.9851 207.274 53.9862 208.527 53.9862 211.035C53.9862 211.806 53.9504 212.486 53.8789 213.095C53.8074 213.686 53.6644 214.242 53.432 214.761C53.1996 215.281 52.8779 215.782 52.4667 216.302C52.0556 216.821 51.5014 217.377 50.8221 217.968L48.3552 220.278C47.2468 221.3 46.2637 222.321 45.4413 223.342C44.6012 224.345 43.904 225.384 43.3498 226.441C42.7957 227.498 42.3845 228.608 42.1164 229.772C41.8482 230.937 41.7052 232.191 41.7052 233.534H60.2965V228.751H48.9093C49.0523 228.178 49.3741 227.497 49.8925 226.727L49.9104 226.709Z" fill="black"/>
<path d="M75.67 217.699C77.118 217.394 78.2442 216.66 79.0665 215.496C79.8709 214.349 80.2821 212.845 80.2821 211.035C80.2821 208.348 79.5134 206.396 77.9939 205.142C76.4745 203.888 74.3293 203.261 71.5764 203.261C68.6804 203.261 66.4638 203.995 64.9622 205.464C63.4606 206.933 62.7098 209.172 62.7098 212.2H68.3408C68.3408 211.483 68.3765 210.838 68.448 210.229C68.5196 209.638 68.6626 209.119 68.895 208.671C69.1273 208.223 69.4491 207.883 69.8603 207.65C70.2714 207.417 70.8077 207.291 71.4513 207.291C72.4523 207.291 73.1852 207.596 73.6679 208.187C74.1506 208.778 74.4008 209.817 74.4008 211.268C74.4008 211.895 74.3293 212.486 74.2042 213.059C74.079 213.633 73.8824 214.134 73.6143 214.582C73.3461 215.03 72.9886 215.388 72.5417 215.657C72.0948 215.926 71.5585 216.069 70.8971 216.069H68.895V220.081H70.9328C71.7909 220.081 72.4702 220.225 72.9886 220.511C73.507 220.798 73.9003 221.174 74.1863 221.658C74.4723 222.141 74.669 222.697 74.7584 223.306C74.8656 223.915 74.9014 224.56 74.9014 225.258C74.9014 225.957 74.8656 226.548 74.7941 227.139C74.7226 227.73 74.5617 228.25 74.3293 228.698C74.0791 229.146 73.7394 229.486 73.3104 229.737C72.8813 229.987 72.2736 230.113 71.5406 230.113C70.1999 230.113 69.324 229.647 68.8771 228.716C68.4302 227.784 68.1978 226.441 68.1799 224.685H62.2986V224.811C62.2986 227.748 63.0316 230.005 64.4795 231.6C65.9275 233.194 68.1263 234 71.0401 234C73.1495 234 74.8477 233.731 76.1348 233.194C77.4219 232.656 78.4408 231.94 79.1917 231.062C79.9246 230.184 80.4251 229.199 80.6754 228.107C80.9257 227.032 81.0508 225.975 81.0508 224.936C81.0508 223.019 80.6396 221.443 79.8352 220.171C79.0308 218.899 77.6364 218.111 75.67 217.806V217.699Z" fill="black"/>
<path d="M0.858059 77.6179H14.3904C14.8373 77.6179 15.2127 77.2775 15.2484 76.8297C15.4272 74.5547 16.0886 71.4378 17.1433 67.7835L26.8322 27.8729C27.154 26.6548 27.4936 25.3472 27.8154 24.0037C28.1193 22.7498 29.889 22.7677 30.1751 24.0037C30.479 25.3292 30.8007 26.6369 31.1225 27.8371C34.2508 41.0749 41.3119 74.9667 41.455 76.7938C41.4907 77.2417 41.8661 77.582 42.313 77.582H56.7749C57.043 77.582 57.2933 77.4566 57.4542 77.2417C57.6151 77.0267 57.6687 76.758 57.5972 76.4893L38.1836 0.626962C38.0763 0.268698 37.7367 0 37.3434 0H20.1644C19.7353 0 19.3599 0.322437 19.3063 0.770267C19.0024 3.49307 18.6985 6.43084 17.5008 11.4644L0.0357524 76.5251C-0.0357524 76.7759 0.0357524 77.0625 0.178762 77.2775C0.321772 77.4925 0.589915 77.6179 0.858059 77.6179Z" fill="black"/>
<path d="M62.4953 76.7401C62.4953 77.2238 62.8885 77.5999 63.3533 77.5999H76.4208C76.6711 77.5999 76.9214 77.4925 77.0823 77.2775C77.2431 77.0805 77.3147 76.8118 77.261 76.561C76.9035 74.7517 76.6354 69.7719 76.6354 67.4073V45.195C76.6354 44.5322 77.1716 44.0127 77.8152 44.0127H88.5409C91.9553 44.0127 97.8544 44.2098 99.5705 44.5501C99.6242 44.5501 99.6778 44.5501 99.7314 44.5501C99.9281 44.5501 100.125 44.4784 100.286 44.3531C100.482 44.1918 100.607 43.9411 100.607 43.6903V33.5156C100.607 33.0319 100.214 32.6557 99.7493 32.6557H76.6354V13.005C76.6354 12.3422 77.1716 11.8227 77.8152 11.8227H94.8512C97.9974 11.8227 102.091 12.0018 103.825 12.3601C103.879 12.3601 103.932 12.3601 103.986 12.3601C104.183 12.3601 104.379 12.2884 104.54 12.1631C104.737 12.0018 104.862 11.7511 104.862 11.5003V0.859833C104.88 0.39409 104.487 0 104.004 0H62.7098C62.4595 0 62.2092 0.125392 62.0484 0.322437C61.8875 0.519482 61.816 0.78818 61.8696 1.03896C62.2092 2.61533 62.4953 6.98614 62.4953 10.3897V76.7401Z" fill="black"/>
<path d="M99.0343 77.2775C99.1951 77.4925 99.4454 77.6179 99.7136 77.6179H113.246C113.693 77.6179 114.068 77.2775 114.104 76.8297C114.283 74.5547 114.944 71.4378 115.999 67.7835L125.688 27.8729C126.009 26.6548 126.349 25.3472 126.671 24.0037C126.975 22.7498 128.745 22.7677 129.031 24.0037C129.334 25.3292 129.656 26.6369 129.978 27.8371C133.106 41.0749 140.167 74.9667 140.31 76.7938C140.346 77.2417 140.722 77.582 141.169 77.582H154.808C155.076 77.582 155.326 77.4566 155.487 77.2417C155.648 77.0267 155.702 76.758 155.63 76.4893L137.039 0.626962C136.932 0.250785 136.592 0 136.217 0H119.038C118.591 0 118.233 0.322437 118.18 0.770267C117.876 3.49307 117.626 6.14422 116.374 11.4644L98.8913 76.5251C98.8197 76.7759 98.8913 77.0625 99.0343 77.2775Z" fill="black"/>
<path d="M175.115 77.2954C175.276 77.0984 175.348 76.8297 175.294 76.5789C174.937 74.7697 174.669 69.7898 174.669 67.4252V45.2129C174.669 44.5501 175.205 44.0306 175.848 44.0306H186.574C189.988 44.0306 195.888 44.2277 197.604 44.568C197.657 44.568 197.711 44.568 197.765 44.568C197.961 44.568 198.158 44.4964 198.319 44.371C198.515 44.2098 198.641 43.959 198.641 43.7082V33.5335C198.641 33.0498 198.247 32.6737 197.783 32.6737H174.669V13.005C174.669 12.3422 175.205 11.8227 175.848 11.8227H192.884C196.031 11.8227 200.124 12.0018 201.858 12.3601C201.912 12.3601 201.966 12.3601 202.019 12.3601C202.216 12.3601 202.412 12.2884 202.573 12.1631C202.77 12.0018 202.895 11.7511 202.895 11.5003V0.859833C202.895 0.39409 202.52 0 202.037 0H160.743C160.493 0 160.242 0.125392 160.082 0.322437C159.921 0.519482 159.849 0.78818 159.903 1.03896C160.242 2.61533 160.528 6.98614 160.528 10.3897V76.7401C160.528 77.2238 160.922 77.5999 161.387 77.5999H174.454C174.704 77.5999 174.955 77.4925 175.115 77.2775V77.2954Z" fill="black"/>
</g>
<defs>
<clipPath id="clip0_1201_12377">
<rect width="251" height="234" fill="white"/>
</clipPath>
</defs>
</svg>
