<svg width="255" height="44" viewBox="0 0 255 44" fill="none" xmlns="http://www.w3.org/2000/svg">
<path d="M131.946 19.2304L132.676 22.5704H135.996L131.806 6.76038H127.866L123.676 22.5704H126.996L127.726 19.2304H131.946ZM129.816 9.51038H129.856L131.386 16.6204H128.286L129.816 9.51038Z" fill="black"/>
<path d="M140.736 15.8804H142.446C143.106 15.8804 143.586 16.0604 143.866 16.4104C144.146 16.7604 144.306 17.2504 144.336 17.8704L144.426 20.9004C144.436 21.2104 144.466 21.5104 144.516 21.8004C144.556 22.0904 144.666 22.3404 144.826 22.5604H148.276V22.4304C147.986 22.2704 147.786 21.9704 147.696 21.5204C147.636 21.0804 147.596 20.4404 147.566 19.5904C147.546 19.1604 147.536 18.7704 147.526 18.4304C147.516 18.0804 147.486 17.7604 147.456 17.4704C147.366 16.5804 147.136 15.9404 146.766 15.5404C146.396 15.1404 145.816 14.8804 145.016 14.7604V14.7204C145.916 14.5304 146.576 14.1004 147.006 13.4204C147.436 12.7504 147.646 11.8804 147.646 10.8204C147.646 9.4504 147.276 8.4204 146.536 7.7504C145.796 7.0804 144.766 6.74039 143.436 6.74039H137.546V22.5504H140.736V15.8604V15.8804ZM140.736 9.1004H142.246C143.726 9.1004 144.456 9.83037 144.456 11.2904C144.456 12.1504 144.246 12.7504 143.836 13.1204C143.426 13.4804 142.836 13.6604 142.066 13.6604H140.736V9.1004Z" fill="black"/>
<path d="M152.526 22.5704H155.716V9.37039H159.166V6.76038H149.066V9.37039H152.526V22.5704Z" fill="black"/>
<path d="M174.806 13.0904H169.486V9.37039H175.136V6.76038H166.296V22.5704H169.486V15.7104H174.806V13.0904Z" fill="black"/>
<path d="M187.006 22.5704L182.816 6.76038H178.876L174.686 22.5704H178.006L178.736 19.2304H182.946L183.676 22.5704H187.006ZM179.296 16.6104L180.826 9.5004H180.866L182.396 16.6104H179.296Z" fill="black"/>
<path d="M191.906 6.76038H188.716V22.5704H191.906V6.76038Z" fill="black"/>
<path d="M197.906 15.8804H199.616C200.276 15.8804 200.756 16.0604 201.036 16.4104C201.316 16.7604 201.476 17.2504 201.506 17.8704L201.596 20.9004C201.606 21.2104 201.636 21.5104 201.686 21.8004C201.726 22.0904 201.836 22.3404 201.996 22.5604H205.446V22.4304C205.156 22.2704 204.956 21.9704 204.866 21.5204C204.806 21.0804 204.766 20.4404 204.736 19.5904C204.716 19.1604 204.706 18.7704 204.696 18.4304C204.686 18.0804 204.656 17.7604 204.626 17.4704C204.536 16.5804 204.306 15.9404 203.936 15.5404C203.566 15.1404 202.986 14.8804 202.186 14.7604V14.7204C203.086 14.5304 203.746 14.1004 204.176 13.4204C204.606 12.7504 204.816 11.8804 204.816 10.8204C204.816 9.4504 204.446 8.4204 203.706 7.7504C202.966 7.0804 201.936 6.74039 200.606 6.74039H194.716V22.5504H197.906V15.8604V15.8804ZM197.906 9.1004H199.416C200.896 9.1004 201.626 9.83037 201.626 11.2904C201.626 12.1504 201.416 12.7504 201.006 13.1204C200.596 13.4804 200.006 13.6604 199.236 13.6604H197.906V9.1004Z" fill="black"/>
<path d="M219.116 19.2304L219.846 22.5704H223.166L218.976 6.76038H215.036L210.846 22.5704H214.166L214.896 19.2304H219.116ZM216.986 9.51038H217.026L218.556 16.6204H215.456L216.986 9.51038Z" fill="black"/>
<path d="M229.126 22.8104C230.856 22.8104 232.196 22.4304 233.166 21.6704C234.136 20.9104 234.616 19.7004 234.616 18.0304C234.616 17.5404 234.576 17.1004 234.486 16.7004C234.396 16.3004 234.236 15.9404 234.006 15.6004C233.776 15.2704 233.466 14.9604 233.086 14.6704C232.706 14.3804 232.206 14.1104 231.606 13.8404L229.146 12.7804C228.466 12.5004 228.026 12.1904 227.816 11.8604C227.606 11.5304 227.506 11.1204 227.506 10.6304C227.506 10.3904 227.536 10.1704 227.586 9.9404C227.636 9.7104 227.736 9.5204 227.876 9.3504C228.016 9.1804 228.206 9.0404 228.436 8.9404C228.666 8.8404 228.966 8.7804 229.326 8.7804C229.946 8.7804 230.386 8.98038 230.656 9.39038C230.926 9.80038 231.056 10.3804 231.056 11.1304H234.116V10.6904C234.116 9.9404 233.996 9.2904 233.746 8.7504C233.506 8.2104 233.166 7.77038 232.726 7.42038C232.286 7.07038 231.776 6.82038 231.176 6.67038C230.576 6.51038 229.926 6.4404 229.216 6.4404C227.696 6.4404 226.496 6.82039 225.626 7.59039C224.756 8.36039 224.316 9.52039 224.316 11.0904C224.316 11.7404 224.396 12.3104 224.556 12.8104C224.716 13.3104 224.976 13.7404 225.316 14.1204C225.666 14.5004 226.096 14.8304 226.606 15.1104C227.126 15.3904 227.736 15.6504 228.446 15.8904C228.976 16.0704 229.426 16.2404 229.786 16.4104C230.146 16.5804 230.436 16.7704 230.656 16.9704C230.876 17.1804 231.036 17.4104 231.136 17.6704C231.236 17.9304 231.276 18.2304 231.276 18.5904C231.276 19.2504 231.076 19.7504 230.686 20.0604C230.296 20.3804 229.856 20.5404 229.366 20.5404C228.956 20.5404 228.606 20.4804 228.336 20.3604C228.066 20.2404 227.846 20.0804 227.686 19.8704C227.526 19.6604 227.416 19.4104 227.356 19.1104C227.296 18.8104 227.266 18.4704 227.266 18.1004V17.6404H224.076V18.2804C224.076 19.7404 224.466 20.8604 225.236 21.6504C226.006 22.4304 227.296 22.8204 229.096 22.8204L229.126 22.8104Z" fill="black"/>
<path d="M240.006 6.76038H236.816V22.5704H240.006V6.76038Z" fill="black"/>
<path d="M249.976 19.2304L250.706 22.5704H254.026L249.836 6.76038H245.896L241.706 22.5704H245.026L245.756 19.2304H249.976ZM247.846 9.51038H247.886L249.416 16.6204H246.316L247.846 9.51038Z" fill="black"/>
<path d="M124.796 43.7304H127.986V36.8704H133.296V34.2604H127.986V30.5304H133.636V27.9204H124.796V43.7304Z" fill="black"/>
<path d="M141.756 38.9504C141.756 39.3504 141.726 39.7104 141.676 40.0504C141.626 40.3904 141.526 40.6704 141.386 40.9104C141.246 41.1504 141.056 41.3504 140.826 41.4904C140.586 41.6304 140.276 41.7004 139.896 41.7004C139.516 41.7004 139.216 41.6304 138.976 41.4904C138.736 41.3504 138.536 41.1604 138.396 40.9104C138.256 40.6704 138.156 40.3804 138.106 40.0504C138.056 39.7204 138.026 39.3504 138.026 38.9504V27.9204H134.836V38.9504C134.836 40.0104 134.976 40.8804 135.256 41.5404C135.536 42.2004 135.916 42.7204 136.386 43.0804C136.856 43.4404 137.396 43.6804 138.006 43.8004C138.616 43.9204 139.236 43.9804 139.886 43.9804C140.536 43.9804 141.166 43.9104 141.766 43.7804C142.366 43.6504 142.906 43.3904 143.386 43.0104C143.856 42.6304 144.236 42.1104 144.516 41.4504C144.796 40.7904 144.936 39.9604 144.936 38.9604V27.9304H141.746V38.9604L141.756 38.9504Z" fill="black"/>
<path d="M157.686 27.9204H154.226L150.196 34.2604H150.156V27.9204H146.966V43.7304H150.156V39.0404L151.326 37.2404L154.586 43.7304H158.166L153.386 34.7004L157.686 27.9204Z" fill="black"/>
<path d="M165.566 38.9504C165.566 39.3504 165.536 39.7104 165.486 40.0504C165.436 40.3904 165.336 40.6704 165.196 40.9104C165.056 41.1504 164.866 41.3504 164.636 41.4904C164.396 41.6304 164.086 41.7004 163.706 41.7004C163.326 41.7004 163.026 41.6304 162.786 41.4904C162.546 41.3504 162.346 41.1604 162.206 40.9104C162.066 40.6704 161.966 40.3804 161.916 40.0504C161.866 39.7204 161.836 39.3504 161.836 38.9504V27.9204H158.646V38.9504C158.646 40.0104 158.786 40.8804 159.066 41.5404C159.346 42.2004 159.726 42.7204 160.196 43.0804C160.666 43.4404 161.206 43.6804 161.816 43.8004C162.426 43.9204 163.046 43.9804 163.696 43.9804C164.346 43.9804 164.976 43.9104 165.576 43.7804C166.176 43.6504 166.716 43.3904 167.196 43.0104C167.666 42.6304 168.046 42.1104 168.326 41.4504C168.606 40.7904 168.746 39.9604 168.746 38.9604V27.9304H165.556V38.9604L165.566 38.9504Z" fill="black"/>
<path d="M180.306 29.9104C179.926 29.1904 179.386 28.6204 178.676 28.2204C177.966 27.8204 177.016 27.6104 175.816 27.6104C174.616 27.6104 173.666 27.8104 172.956 28.2204C172.246 28.6304 171.706 29.1904 171.326 29.9104C170.946 30.6304 170.706 31.5004 170.596 32.5104C170.486 33.5204 170.426 34.6304 170.426 35.8204C170.426 37.0104 170.476 38.1404 170.596 39.1404C170.706 40.1404 170.946 41.0104 171.326 41.7304C171.706 42.4504 172.246 43.0104 172.956 43.3904C173.666 43.7704 174.616 43.9704 175.816 43.9704C177.016 43.9704 177.966 43.7804 178.676 43.3904C179.386 43.0004 179.926 42.4504 180.306 41.7304C180.686 41.0104 180.926 40.1404 181.036 39.1404C181.146 38.1404 181.206 37.0304 181.206 35.8204C181.206 34.6104 181.146 33.5204 181.036 32.5104C180.926 31.5004 180.686 30.6304 180.306 29.9104ZM177.936 38.5404C177.886 39.2904 177.786 39.8904 177.626 40.3604C177.466 40.8204 177.246 41.1604 176.966 41.3804C176.676 41.5904 176.296 41.7004 175.826 41.7004C175.356 41.7004 174.976 41.5904 174.686 41.3804C174.396 41.1704 174.176 40.8304 174.016 40.3604C173.866 39.8904 173.756 39.2904 173.706 38.5404C173.656 37.7904 173.626 36.8904 173.626 35.8304C173.626 34.7704 173.656 33.8704 173.706 33.1304C173.756 32.3904 173.866 31.7904 174.016 31.3104C174.176 30.8404 174.396 30.4904 174.686 30.2804C174.976 30.0704 175.356 29.9604 175.826 29.9604C176.296 29.9604 176.676 30.0704 176.966 30.2804C177.256 30.4904 177.476 30.8404 177.626 31.3104C177.786 31.7804 177.886 32.3904 177.936 33.1304C177.986 33.8704 178.016 34.7704 178.016 35.8304C178.016 36.8904 177.986 37.8004 177.936 38.5404Z" fill="black"/>
<path d="M198.056 27.9204L194.006 43.2004L189.506 34.6904L193.806 27.9104H190.356L186.326 34.2404H186.286V27.9104H183.096V43.7204H186.286V39.0204L187.456 37.2304L190.706 43.7204H197.196L197.926 40.3804H202.136L202.866 43.7204H206.186L201.996 27.9104H198.056V27.9204ZM198.476 37.7804L200.006 30.6704H200.046L201.576 37.7804H198.476Z" fill="black"/>
<path d="M216.146 40.2004C216.416 39.7904 216.776 39.3804 217.256 38.9504L219.026 37.3104C219.466 36.9104 219.846 36.5204 220.156 36.1504C220.466 35.7704 220.716 35.3904 220.906 34.9904C221.096 34.5904 221.236 34.1704 221.326 33.7404C221.416 33.3004 221.456 32.8404 221.456 32.3304C221.456 30.9604 221.076 29.9004 220.306 29.1604C219.536 28.4204 218.356 28.0504 216.766 28.0504C215.086 28.0504 213.846 28.4404 213.066 29.2204C212.286 30.0004 211.896 31.1304 211.896 32.5904V33.1904H214.956C214.956 32.7804 214.976 32.3904 215.016 32.0204C215.056 31.6504 215.136 31.3304 215.256 31.0504C215.376 30.7704 215.556 30.5504 215.786 30.3904C216.016 30.2304 216.326 30.1504 216.726 30.1504C217.756 30.1504 218.276 30.8004 218.276 32.1004C218.276 32.5004 218.256 32.8504 218.216 33.1604C218.176 33.4704 218.106 33.7604 217.986 34.0204C217.866 34.2804 217.706 34.5504 217.486 34.8204C217.276 35.0904 216.986 35.3704 216.636 35.6804L215.356 36.8804C214.776 37.4104 214.276 37.9404 213.836 38.4604C213.396 38.9804 213.036 39.5204 212.746 40.0704C212.456 40.6204 212.246 41.1904 212.106 41.8004C211.966 42.4104 211.896 43.0604 211.896 43.7504H221.556V41.2704H215.646C215.716 40.9804 215.886 40.6204 216.156 40.2204L216.146 40.2004Z" fill="black"/>
<path d="M231.336 29.7804C230.956 29.1804 230.456 28.7404 229.826 28.4604C229.196 28.1904 228.406 28.0504 227.446 28.0504C226.276 28.0504 225.366 28.2804 224.706 28.7504C224.046 29.2204 223.556 29.8304 223.236 30.6104C222.906 31.3904 222.716 32.2804 222.636 33.2804C222.566 34.2804 222.526 35.3304 222.526 36.4204C222.526 37.8104 222.606 38.9904 222.756 39.9504C222.916 40.9204 223.176 41.7004 223.556 42.3104C223.936 42.9204 224.436 43.3404 225.076 43.5904C225.716 43.8404 226.496 43.9704 227.446 43.9704C228.616 43.9704 229.526 43.7504 230.186 43.3104C230.846 42.8704 231.336 42.2604 231.656 41.4804C231.976 40.7004 232.176 39.8204 232.256 38.8104C232.326 37.8104 232.366 36.7604 232.366 35.6704C232.366 34.2804 232.286 33.1004 232.136 32.1404C231.986 31.1704 231.716 30.3904 231.336 29.7804ZM229.176 36.6904C229.176 37.6904 229.146 38.5404 229.096 39.2204C229.046 39.9004 228.956 40.4404 228.826 40.8504C228.706 41.2604 228.526 41.5404 228.306 41.7104C228.086 41.8804 227.796 41.9604 227.446 41.9604C227.096 41.9604 226.826 41.8904 226.606 41.7604C226.386 41.6304 226.206 41.3804 226.076 41.0204C225.946 40.6604 225.846 40.1604 225.796 39.5404C225.746 38.9104 225.716 38.1004 225.716 37.1204V35.4104C225.716 34.4104 225.746 33.5604 225.796 32.8804C225.846 32.2004 225.936 31.6604 226.066 31.2504C226.196 30.8404 226.366 30.5604 226.586 30.3904C226.806 30.2204 227.096 30.1404 227.446 30.1404C227.796 30.1404 228.066 30.2104 228.286 30.3404C228.506 30.4704 228.686 30.7204 228.816 31.0804C228.946 31.4404 229.036 31.9404 229.096 32.5604C229.146 33.1904 229.176 34.0004 229.176 34.9804V36.6904Z" fill="black"/>
<path d="M237.416 40.2004C237.686 39.7904 238.046 39.3804 238.526 38.9504L240.296 37.3104C240.736 36.9104 241.116 36.5204 241.426 36.1504C241.736 35.7704 241.986 35.3904 242.176 34.9904C242.366 34.5904 242.506 34.1704 242.596 33.7404C242.686 33.3004 242.726 32.8404 242.726 32.3304C242.726 30.9604 242.346 29.9004 241.576 29.1604C240.806 28.4204 239.626 28.0504 238.036 28.0504C236.356 28.0504 235.116 28.4404 234.336 29.2204C233.556 30.0004 233.166 31.1304 233.166 32.5904V33.1904H236.226C236.226 32.7804 236.246 32.3904 236.286 32.0204C236.326 31.6504 236.406 31.3304 236.526 31.0504C236.646 30.7704 236.826 30.5504 237.056 30.3904C237.286 30.2304 237.596 30.1504 237.996 30.1504C239.026 30.1504 239.546 30.8004 239.546 32.1004C239.546 32.5004 239.526 32.8504 239.486 33.1604C239.446 33.4704 239.376 33.7604 239.256 34.0204C239.136 34.2804 238.976 34.5504 238.756 34.8204C238.546 35.0904 238.256 35.3704 237.906 35.6804L236.626 36.8804C236.046 37.4104 235.546 37.9404 235.106 38.4604C234.666 38.9804 234.306 39.5204 234.016 40.0704C233.726 40.6204 233.516 41.1904 233.376 41.8004C233.236 42.4104 233.166 43.0604 233.166 43.7504H242.826V41.2704H236.916C236.986 40.9804 237.156 40.6204 237.426 40.2204L237.416 40.2004Z" fill="black"/>
<path d="M250.786 35.5804V35.5404C251.536 35.3804 252.126 35.0004 252.546 34.4004C252.966 33.8004 253.176 33.0304 253.176 32.0904C253.176 30.7004 252.776 29.6804 251.996 29.0304C251.206 28.3804 250.096 28.0604 248.666 28.0604C247.156 28.0604 246.016 28.4404 245.236 29.2004C244.456 29.9604 244.066 31.1204 244.066 32.6904H246.986C246.986 32.3204 247.006 31.9804 247.046 31.6704C247.086 31.3604 247.156 31.0904 247.276 30.8604C247.396 30.6304 247.556 30.4504 247.776 30.3304C247.986 30.2104 248.266 30.1404 248.606 30.1404C249.126 30.1404 249.506 30.3004 249.756 30.6104C250.006 30.9204 250.136 31.4504 250.136 32.2004C250.136 32.5304 250.106 32.8404 250.036 33.1304C249.966 33.4304 249.866 33.6904 249.726 33.9204C249.586 34.1504 249.396 34.3304 249.176 34.4704C248.946 34.6104 248.666 34.6804 248.326 34.6804H247.286V36.7604H248.346C248.786 36.7604 249.146 36.8304 249.406 36.9804C249.666 37.1304 249.876 37.3304 250.026 37.5804C250.176 37.8304 250.276 38.1204 250.326 38.4304C250.376 38.7504 250.406 39.0804 250.406 39.4404C250.406 39.8004 250.386 40.1104 250.356 40.4104C250.316 40.7204 250.236 40.9904 250.116 41.2204C249.996 41.4504 249.816 41.6304 249.586 41.7604C249.356 41.8904 249.046 41.9604 248.666 41.9604C247.976 41.9604 247.506 41.7204 247.286 41.2404C247.056 40.7604 246.936 40.0604 246.916 39.1504H243.856V39.2204C243.856 40.7404 244.236 41.9104 244.986 42.7404C245.736 43.5704 246.876 43.9804 248.396 43.9804C249.486 43.9804 250.366 43.8404 251.046 43.5604C251.726 43.2804 252.246 42.9104 252.626 42.4504C253.006 41.9904 253.266 41.4804 253.406 40.9204C253.546 40.3604 253.606 39.8104 253.606 39.2804C253.606 38.2904 253.396 37.4704 252.976 36.8104C252.556 36.1504 251.836 35.7404 250.816 35.5804H250.786Z" fill="black"/>
<path d="M21.3557 0.760376C21.2957 0.550376 21.1057 0.4104 20.8957 0.4104H11.2857C11.0457 0.4104 10.8357 0.590393 10.8057 0.840393C10.6357 2.36039 10.4657 4.00039 9.79569 6.81039L0.0156922 43.1204C-0.0243078 43.2604 0.0156922 43.4204 0.0956922 43.5404C0.175692 43.6604 0.325692 43.7304 0.475692 43.7304H8.04569C8.29569 43.7304 8.50569 43.5404 8.52569 43.2904C8.62569 42.0204 8.99569 40.2804 9.58569 38.2404L15.0057 15.9604C15.1857 15.2804 15.3757 14.5504 15.5557 13.8004C15.7257 13.1004 16.7157 13.1104 16.8757 13.8004C17.0457 14.5404 17.2257 15.2704 17.4057 15.9404C19.1557 23.3304 23.1057 42.2504 23.1857 43.2704C23.2057 43.5204 23.4157 43.7104 23.6657 43.7104H31.7557C31.9057 43.7104 32.0457 43.6404 32.1357 43.5204C32.2257 43.4004 32.2557 43.2504 32.2157 43.1004L21.3357 0.740387L21.3557 0.760376Z" fill="black"/>
<path d="M55.8057 25.2804C55.9157 25.2804 56.0257 25.2404 56.1157 25.1704C56.2257 25.0804 56.2957 24.9404 56.2957 24.8004V19.1204C56.2957 18.8504 56.0757 18.6404 55.8157 18.6404H42.8857V7.6604C42.8857 7.2904 43.1857 7.0004 43.5457 7.0004H53.0757C54.8357 7.0004 57.1257 7.10038 58.0957 7.30038C58.1257 7.30038 58.1557 7.30038 58.1857 7.30038C58.2957 7.30038 58.4057 7.2604 58.4957 7.1904C58.6057 7.1004 58.6757 6.9604 58.6757 6.8204V0.880402C58.6757 0.610402 58.4557 0.400391 58.1957 0.400391H35.0957C34.9557 0.400391 34.8157 0.470383 34.7257 0.580383C34.6357 0.690383 34.5957 0.840377 34.6257 0.980377C34.8157 1.86038 34.9757 4.30038 34.9757 6.20038V43.2404C34.9757 43.5104 35.1957 43.7204 35.4557 43.7204H42.7657C42.9057 43.7204 43.0457 43.6604 43.1357 43.5404C43.2257 43.4304 43.2657 43.2804 43.2357 43.1404C43.0357 42.1304 42.8857 39.3504 42.8857 38.0304V25.6304C42.8857 25.2604 43.1857 24.9704 43.5457 24.9704H49.5457C51.4557 24.9704 54.7557 25.0804 55.7157 25.2704C55.7457 25.2704 55.7757 25.2704 55.8057 25.2704V25.2804Z" fill="black"/>
<path d="M76.6557 0.760376C76.5957 0.550376 76.4057 0.4104 76.1957 0.4104H66.5857C66.3357 0.4104 66.1357 0.590393 66.1057 0.840393C65.9357 2.36039 65.7957 3.84039 65.0957 6.81039L55.3157 43.1304C55.2757 43.2704 55.3157 43.4304 55.3957 43.5504C55.4757 43.6704 55.6257 43.7404 55.7757 43.7404H63.3457C63.5957 43.7404 63.8057 43.5504 63.8257 43.3004C63.9257 42.0304 64.2957 40.2904 64.8857 38.2504L70.3057 15.9704C70.4857 15.2904 70.6757 14.5604 70.8557 13.8104C71.0257 13.1104 72.0157 13.1204 72.1757 13.8104C72.3457 14.5504 72.5257 15.2804 72.7057 15.9504C74.4557 23.3404 78.4057 42.2604 78.4857 43.2804C78.5057 43.5304 78.7157 43.7204 78.9657 43.7204H86.5957C86.7457 43.7204 86.8857 43.6504 86.9757 43.5304C87.0657 43.4104 87.0957 43.2604 87.0557 43.1104L76.6457 0.750397L76.6557 0.760376Z" fill="black"/>
<path d="M113.016 0.4104H89.9157C89.7757 0.4104 89.6357 0.480393 89.5457 0.590393C89.4557 0.700393 89.4157 0.850387 89.4457 0.990387C89.6357 1.87039 89.7957 4.31039 89.7957 6.21039V43.2504C89.7957 43.5204 90.0157 43.7304 90.2757 43.7304H97.5857C97.7257 43.7304 97.8657 43.6704 97.9557 43.5504C98.0457 43.4404 98.0857 43.2904 98.0557 43.1504C97.8557 42.1404 97.7057 39.3604 97.7057 38.0404V25.6404C97.7057 25.2704 98.0057 24.9804 98.3657 24.9804H104.366C106.276 24.9804 109.576 25.0904 110.536 25.2804C110.566 25.2804 110.596 25.2804 110.626 25.2804C110.736 25.2804 110.846 25.2404 110.936 25.1704C111.046 25.0804 111.116 24.9404 111.116 24.8004V19.1204C111.116 18.8504 110.896 18.6404 110.636 18.6404H97.7057V7.6604C97.7057 7.2904 98.0057 7.0004 98.3657 7.0004H107.896C109.656 7.0004 111.946 7.10038 112.916 7.30038C112.946 7.30038 112.976 7.30038 113.006 7.30038C113.116 7.30038 113.226 7.2604 113.316 7.1904C113.426 7.1004 113.496 6.9604 113.496 6.8204V0.880402C113.496 0.610402 113.276 0.400391 113.016 0.400391V0.4104Z" fill="black"/>
</svg>
