<svg width="141" height="132" viewBox="0 0 141 132" fill="none" xmlns="http://www.w3.org/2000/svg">
<path d="M4.37 84.7405H8.9L9.69 88.3405H13.27L8.76 71.3005H4.51L0 88.3405H3.58L4.37 84.7405ZM6.61 74.2705H6.66L8.31 81.9305H4.97L6.62 74.2705H6.61Z" fill="black"/>
<path d="M25.12 78.5005C25.58 77.7805 25.81 76.8405 25.81 75.7005C25.81 74.2205 25.41 73.1205 24.62 72.4005C23.82 71.6805 22.71 71.3105 21.28 71.3105H14.93V88.3505H18.37V81.1405H20.21C20.93 81.1405 21.43 81.3305 21.74 81.7105C22.04 82.0905 22.21 82.6205 22.24 83.2805L22.33 86.5505C22.35 86.8805 22.38 87.2105 22.43 87.5205C22.48 87.8305 22.59 88.1005 22.76 88.3405H26.48V88.2005C26.16 88.0305 25.96 87.7005 25.86 87.2205C25.8 86.7405 25.75 86.0505 25.72 85.1405C25.7 84.6805 25.69 84.2605 25.67 83.8905C25.65 83.5205 25.63 83.1705 25.6 82.8505C25.51 81.9005 25.26 81.2005 24.86 80.7705C24.46 80.3405 23.83 80.0605 22.98 79.9405V79.8905C23.95 79.6805 24.67 79.2205 25.13 78.4905L25.12 78.5005ZM21.71 78.1705C21.26 78.5605 20.63 78.7505 19.8 78.7505H18.37V73.8305H19.99C21.58 73.8305 22.38 74.6205 22.38 76.1905C22.38 77.1105 22.16 77.7705 21.71 78.1605V78.1705Z" fill="black"/>
<path d="M38.22 71.3105H27.34V74.1305H31.06V88.3405H34.5V74.1305H38.22V71.3105Z" fill="black"/>
<path d="M55.07 78.1305H49.34V74.1305H55.42V71.3105H45.9V88.3405H49.34V80.9505H55.07V78.1305Z" fill="black"/>
<path d="M68.21 88.3405L63.7 71.3005H59.45L54.94 88.3405H58.52L59.31 84.7405H63.84L64.63 88.3405H68.21ZM59.91 81.9205L61.56 74.2605H61.61L63.26 81.9205H59.91Z" fill="black"/>
<path d="M73.49 71.3105H70.05V88.3505H73.49V71.3105Z" fill="black"/>
<path d="M86.7 78.5005C87.16 77.7805 87.39 76.8405 87.39 75.7005C87.39 74.2205 86.99 73.1205 86.2 72.4005C85.4 71.6805 84.29 71.3105 82.86 71.3105H76.51V88.3505H79.95V81.1405H81.79C82.51 81.1405 83.01 81.3305 83.32 81.7105C83.62 82.0905 83.79 82.6205 83.82 83.2805L83.91 86.5505C83.93 86.8805 83.96 87.2105 84.01 87.5205C84.06 87.8305 84.17 88.1005 84.34 88.3405H88.06V88.2005C87.74 88.0305 87.54 87.7005 87.44 87.2205C87.38 86.7405 87.33 86.0505 87.3 85.1405C87.28 84.6805 87.27 84.2605 87.25 83.8905C87.23 83.5205 87.21 83.1705 87.18 82.8505C87.09 81.9005 86.84 81.2005 86.44 80.7705C86.04 80.3405 85.41 80.0605 84.56 79.9405V79.8905C85.53 79.6805 86.25 79.2205 86.71 78.4905L86.7 78.5005ZM83.29 78.1705C82.84 78.5605 82.21 78.7505 81.38 78.7505H79.95V73.8305H81.57C83.16 73.8305 83.96 74.6205 83.96 76.1905C83.96 77.1105 83.74 77.7705 83.29 78.1605V78.1705Z" fill="black"/>
<path d="M98.42 71.3105L93.91 88.3505H97.49L98.28 84.7505H102.81L103.6 88.3505H107.18L102.67 71.3105H98.42ZM98.87 81.9305L100.52 74.2705H100.57L102.22 81.9305H98.87Z" fill="black"/>
<path d="M118.85 80.8405C118.6 80.4805 118.27 80.1505 117.86 79.8405C117.45 79.5305 116.91 79.2305 116.26 78.9505L113.61 77.8005C112.88 77.5005 112.4 77.1705 112.18 76.8105C111.96 76.4505 111.85 76.0105 111.85 75.4905C111.85 75.2405 111.88 74.9905 111.93 74.7505C111.98 74.5105 112.09 74.3005 112.24 74.1205C112.39 73.9405 112.59 73.7905 112.85 73.6805C113.1 73.5705 113.42 73.5105 113.8 73.5105C114.47 73.5105 114.95 73.7305 115.23 74.1705C115.51 74.6105 115.66 75.2305 115.66 76.0405H118.95V75.5605C118.95 74.7505 118.82 74.0505 118.56 73.4705C118.3 72.8905 117.93 72.4105 117.46 72.0405C116.99 71.6705 116.43 71.4005 115.79 71.2305C115.15 71.0605 114.44 70.9805 113.68 70.9805C112.04 70.9805 110.75 71.3905 109.81 72.2205C108.87 73.0505 108.4 74.3005 108.4 75.9905C108.4 76.6905 108.49 77.3105 108.66 77.8405C108.83 78.3705 109.11 78.8405 109.48 79.2505C109.85 79.6605 110.32 80.0105 110.88 80.3105C111.44 80.6105 112.1 80.8905 112.86 81.1405C113.43 81.3305 113.91 81.5205 114.3 81.7005C114.69 81.8805 115 82.0905 115.24 82.3105C115.48 82.5305 115.65 82.7805 115.75 83.0605C115.85 83.3405 115.91 83.6705 115.91 84.0505C115.91 84.7705 115.7 85.2905 115.28 85.6405C114.86 85.9805 114.39 86.1505 113.86 86.1505C113.41 86.1505 113.04 86.0905 112.75 85.9605C112.46 85.8305 112.22 85.6605 112.05 85.4405C111.87 85.2205 111.76 84.9405 111.69 84.6205C111.63 84.2905 111.6 83.9305 111.6 83.5305V83.0305H108.16V83.7205C108.16 85.2905 108.58 86.5005 109.41 87.3505C110.24 88.1905 111.63 88.6105 113.57 88.6105C115.51 88.6105 116.88 88.2005 117.92 87.3805C118.96 86.5605 119.48 85.2505 119.48 83.4605C119.48 82.9405 119.43 82.4605 119.34 82.0305C119.24 81.6005 119.07 81.2105 118.83 80.8505L118.85 80.8405Z" fill="black"/>
<path d="M125.31 71.3105H121.87V88.3505H125.31V71.3105Z" fill="black"/>
<path d="M135.9 71.3105H131.65L127.14 88.3505H130.72L131.51 84.7505H136.04L136.83 88.3505H140.41L135.9 71.3105ZM132.11 81.9305L133.76 74.2705H133.81L135.46 81.9305H132.11Z" fill="black"/>
<path d="M10.71 95.6305V92.8105H1.19V109.84H4.63V102.45H10.35V99.6305H4.63V95.6305H10.71Z" fill="black"/>
<path d="M19.47 104.69C19.47 105.12 19.44 105.51 19.39 105.87C19.34 106.23 19.23 106.54 19.08 106.8C18.93 107.06 18.73 107.27 18.47 107.42C18.22 107.57 17.88 107.65 17.47 107.65C17.06 107.65 16.74 107.57 16.48 107.42C16.22 107.27 16.01 107.06 15.86 106.8C15.71 106.54 15.61 106.23 15.55 105.87C15.49 105.51 15.47 105.12 15.47 104.69V92.8105H12.03V104.69C12.03 105.84 12.18 106.77 12.48 107.48C12.78 108.2 13.19 108.75 13.7 109.14C14.21 109.53 14.79 109.79 15.44 109.92C16.09 110.05 16.77 110.11 17.47 110.11C18.17 110.11 18.85 110.04 19.5 109.9C20.15 109.76 20.73 109.48 21.24 109.07C21.75 108.66 22.16 108.1 22.46 107.39C22.76 106.68 22.91 105.79 22.91 104.71V92.8305H19.47V104.71V104.69Z" fill="black"/>
<path d="M28.51 104.79L29.78 102.85L33.28 109.84H37.15L32 100.11L36.62 92.8105H32.9L28.56 99.6305H28.51V92.8105H25.08V109.84H28.51V104.79Z" fill="black"/>
<path d="M45.12 104.69C45.12 105.12 45.09 105.51 45.04 105.87C44.99 106.23 44.88 106.54 44.73 106.8C44.58 107.06 44.38 107.27 44.12 107.42C43.87 107.57 43.53 107.65 43.12 107.65C42.71 107.65 42.39 107.57 42.13 107.42C41.87 107.27 41.66 107.06 41.51 106.8C41.36 106.54 41.26 106.23 41.2 105.87C41.14 105.51 41.12 105.12 41.12 104.69V92.8105H37.68V104.69C37.68 105.84 37.83 106.77 38.13 107.48C38.43 108.2 38.84 108.75 39.35 109.14C39.86 109.53 40.44 109.79 41.09 109.92C41.74 110.05 42.42 110.11 43.12 110.11C43.82 110.11 44.5 110.04 45.15 109.9C45.8 109.76 46.38 109.48 46.89 109.07C47.4 108.66 47.81 108.1 48.11 107.39C48.41 106.68 48.56 105.79 48.56 104.71V92.8305H45.12V104.71V104.69Z" fill="black"/>
<path d="M60.99 94.9605C60.58 94.1805 60 93.5705 59.24 93.1305C58.48 92.6905 57.45 92.4705 56.16 92.4705C54.87 92.4705 53.85 92.6905 53.08 93.1305C52.32 93.5705 51.73 94.1805 51.33 94.9605C50.92 95.7405 50.66 96.6705 50.54 97.7605C50.42 98.8505 50.36 100.04 50.36 101.33C50.36 102.62 50.42 103.83 50.54 104.91C50.66 105.99 50.92 106.92 51.33 107.7C51.74 108.48 52.32 109.08 53.08 109.49C53.84 109.9 54.87 110.11 56.16 110.11C57.45 110.11 58.47 109.9 59.24 109.49C60 109.08 60.59 108.48 60.99 107.7C61.4 106.92 61.66 105.99 61.78 104.91C61.9 103.83 61.96 102.64 61.96 101.33C61.96 100.02 61.9 98.8505 61.78 97.7605C61.66 96.6705 61.4 95.7405 60.99 94.9605ZM58.44 104.25C58.38 105.05 58.27 105.71 58.11 106.21C57.95 106.71 57.7 107.08 57.39 107.31C57.08 107.54 56.67 107.66 56.16 107.66C55.65 107.66 55.24 107.54 54.93 107.31C54.62 107.08 54.38 106.71 54.21 106.21C54.04 105.71 53.93 105.06 53.88 104.25C53.83 103.44 53.8 102.47 53.8 101.33C53.8 100.19 53.83 99.2105 53.88 98.4205C53.93 97.6305 54.05 96.9705 54.21 96.4605C54.38 95.9505 54.62 95.5805 54.93 95.3505C55.24 95.1205 55.65 95.0005 56.16 95.0005C56.67 95.0005 57.08 95.1205 57.39 95.3505C57.7 95.5805 57.94 95.9505 58.11 96.4605C58.28 96.9705 58.39 97.6205 58.44 98.4205C58.49 99.2205 58.52 100.19 58.52 101.33C58.52 102.47 58.49 103.45 58.44 104.25Z" fill="black"/>
<path d="M80.12 92.8105L75.76 109.27L70.91 100.11L75.54 92.8105H71.82L67.48 99.6305H67.43V92.8105H63.99V109.85H67.43V104.79L68.69 102.86L72.2 109.85H79.19L79.98 106.25H84.51L85.3 109.85H88.88L84.37 92.8105H80.12ZM80.57 103.43L82.22 95.7705H82.27L83.92 103.43H80.57Z" fill="black"/>
<path d="M5.01 127.54C5.3 127.1 5.69 126.65 6.2 126.19L8.11 124.42C8.59 123.99 8.99 123.57 9.33 123.17C9.66 122.76 9.93 122.35 10.14 121.92C10.35 121.49 10.5 121.04 10.59 120.57C10.68 120.1 10.73 119.6 10.73 119.05C10.73 117.57 10.32 116.43 9.49 115.64C8.66 114.85 7.39 114.45 5.67 114.45C3.86 114.45 2.53 114.87 1.69 115.71C0.85 116.55 0.43 117.76 0.43 119.34V119.98H3.72C3.72 119.54 3.74 119.11 3.78 118.72C3.82 118.32 3.91 117.97 4.04 117.67C4.17 117.37 4.37 117.13 4.61 116.95C4.86 116.77 5.19 116.69 5.62 116.69C6.73 116.69 7.29 117.39 7.29 118.79C7.29 119.22 7.27 119.6 7.23 119.94C7.19 120.27 7.11 120.58 6.98 120.87C6.85 121.16 6.67 121.44 6.44 121.73C6.21 122.02 5.9 122.33 5.52 122.66L4.14 123.95C3.52 124.52 2.97 125.09 2.51 125.66C2.04 126.22 1.65 126.8 1.34 127.39C1.03 127.98 0.8 128.6 0.65 129.25C0.5 129.9 0.42 130.6 0.42 131.35H10.82V128.68H4.45C4.53 128.36 4.71 127.98 5 127.55L5.01 127.54Z" fill="black"/>
<path d="M21.37 116.31C20.96 115.66 20.42 115.19 19.75 114.89C19.07 114.6 18.22 114.45 17.19 114.45C15.93 114.45 14.95 114.7 14.24 115.2C13.53 115.7 13 116.37 12.65 117.2C12.3 118.03 12.08 118.99 12.01 120.08C11.93 121.16 11.89 122.29 11.89 123.47C11.89 124.97 11.97 126.23 12.14 127.28C12.31 128.32 12.59 129.17 13 129.82C13.41 130.47 13.95 130.93 14.63 131.2C15.31 131.47 16.17 131.61 17.18 131.61C18.44 131.61 19.42 131.37 20.13 130.89C20.84 130.41 21.37 129.76 21.72 128.92C22.07 128.09 22.28 127.13 22.36 126.04C22.44 124.96 22.48 123.83 22.48 122.65C22.48 121.15 22.4 119.89 22.23 118.84C22.06 117.8 21.78 116.95 21.37 116.3V116.31ZM19.04 123.75C19.04 124.83 19.01 125.74 18.96 126.47C18.9 127.2 18.81 127.79 18.67 128.22C18.53 128.66 18.35 128.97 18.11 129.15C17.87 129.33 17.56 129.42 17.18 129.42C16.8 129.42 16.51 129.35 16.27 129.21C16.03 129.07 15.84 128.8 15.7 128.41C15.56 128.02 15.46 127.49 15.4 126.81C15.34 126.13 15.32 125.26 15.32 124.2V122.36C15.32 121.28 15.35 120.37 15.4 119.64C15.46 118.91 15.55 118.32 15.69 117.89C15.82 117.45 16.01 117.14 16.25 116.96C16.49 116.78 16.8 116.69 17.18 116.69C17.56 116.69 17.85 116.76 18.09 116.9C18.33 117.04 18.52 117.31 18.66 117.7C18.8 118.09 18.9 118.62 18.96 119.3C19.02 119.98 19.04 120.85 19.04 121.91V123.75Z" fill="black"/>
<path d="M27.92 127.54C28.21 127.1 28.6 126.65 29.11 126.19L31.02 124.42C31.5 123.99 31.9 123.57 32.24 123.17C32.57 122.76 32.84 122.35 33.05 121.92C33.26 121.49 33.41 121.04 33.5 120.57C33.59 120.1 33.64 119.6 33.64 119.05C33.64 117.57 33.23 116.43 32.4 115.64C31.57 114.85 30.3 114.45 28.58 114.45C26.77 114.45 25.44 114.87 24.6 115.71C23.76 116.55 23.34 117.76 23.34 119.34V119.98H26.63C26.63 119.54 26.65 119.11 26.69 118.72C26.73 118.32 26.82 117.97 26.95 117.67C27.08 117.37 27.28 117.13 27.52 116.95C27.77 116.77 28.1 116.69 28.53 116.69C29.64 116.69 30.2 117.39 30.2 118.79C30.2 119.22 30.18 119.6 30.14 119.94C30.1 120.27 30.02 120.58 29.89 120.87C29.76 121.16 29.58 121.44 29.35 121.73C29.12 122.02 28.81 122.33 28.43 122.66L27.05 123.95C26.43 124.52 25.88 125.09 25.42 125.66C24.95 126.22 24.56 126.8 24.25 127.39C23.94 127.98 23.71 128.6 23.56 129.25C23.41 129.9 23.33 130.6 23.33 131.35H33.73V128.68H27.36C27.44 128.36 27.62 127.98 27.91 127.55L27.92 127.54Z" fill="black"/>
<path d="M42.33 122.51C43.14 122.34 43.77 121.93 44.23 121.28C44.68 120.64 44.91 119.8 44.91 118.79C44.91 117.29 44.48 116.2 43.63 115.5C42.78 114.8 41.58 114.45 40.04 114.45C38.42 114.45 37.18 114.86 36.34 115.68C35.5 116.5 35.08 117.75 35.08 119.44H38.23C38.23 119.04 38.25 118.68 38.29 118.34C38.33 118.01 38.41 117.72 38.54 117.47C38.67 117.22 38.85 117.03 39.08 116.9C39.31 116.77 39.61 116.7 39.97 116.7C40.53 116.7 40.94 116.87 41.21 117.2C41.48 117.53 41.62 118.11 41.62 118.92C41.62 119.27 41.58 119.6 41.51 119.92C41.44 120.24 41.33 120.52 41.18 120.77C41.03 121.02 40.83 121.22 40.58 121.37C40.33 121.52 40.03 121.6 39.66 121.6H38.54V123.84H39.68C40.16 123.84 40.54 123.92 40.83 124.08C41.12 124.24 41.34 124.45 41.5 124.72C41.66 124.99 41.77 125.3 41.82 125.64C41.88 125.98 41.9 126.34 41.9 126.73C41.9 127.12 41.88 127.45 41.84 127.78C41.8 128.11 41.71 128.4 41.58 128.65C41.44 128.9 41.25 129.09 41.01 129.23C40.77 129.37 40.43 129.44 40.02 129.44C39.27 129.44 38.78 129.18 38.53 128.66C38.28 128.14 38.15 127.39 38.14 126.41H34.85V126.48C34.85 128.12 35.26 129.38 36.07 130.27C36.88 131.16 38.11 131.61 39.74 131.61C40.92 131.61 41.87 131.46 42.59 131.16C43.31 130.86 43.88 130.46 44.3 129.97C44.71 129.48 44.99 128.93 45.13 128.32C45.27 127.72 45.34 127.13 45.34 126.55C45.34 125.48 45.11 124.6 44.66 123.89C44.21 123.18 43.43 122.74 42.33 122.57V122.51Z" fill="black"/>
<path d="M0.48 44.3105H8.05C8.3 44.3105 8.51 44.1205 8.53 43.8705C8.63 42.6005 9 40.8605 9.59 38.8205L15.01 16.5405C15.19 15.8605 15.38 15.1305 15.56 14.3805C15.73 13.6805 16.72 13.6905 16.88 14.3805C17.05 15.1205 17.23 15.8505 17.41 16.5205C19.16 23.9105 23.11 42.8305 23.19 43.8505C23.21 44.1005 23.42 44.2905 23.67 44.2905H31.76C31.91 44.2905 32.05 44.2205 32.14 44.1005C32.23 43.9805 32.26 43.8305 32.22 43.6805L21.36 1.33047C21.3 1.13047 21.11 0.980469 20.89 0.980469H11.28C11.04 0.980469 10.83 1.16047 10.8 1.41047C10.63 2.93047 10.46 4.57047 9.79 7.38047L0.02 43.7005C-0.02 43.8405 0.02 44.0005 0.1 44.1205C0.18 44.2405 0.33 44.3105 0.48 44.3105Z" fill="black"/>
<path d="M34.96 43.8205C34.96 44.0905 35.18 44.3005 35.44 44.3005H42.75C42.89 44.3005 43.03 44.2405 43.12 44.1205C43.21 44.0105 43.25 43.8605 43.22 43.7205C43.02 42.7105 42.87 39.9305 42.87 38.6105V26.2105C42.87 25.8405 43.17 25.5505 43.53 25.5505H49.53C51.44 25.5505 54.74 25.6605 55.7 25.8505C55.73 25.8505 55.76 25.8505 55.79 25.8505C55.9 25.8505 56.01 25.8105 56.1 25.7405C56.21 25.6505 56.28 25.5105 56.28 25.3705V19.6905C56.28 19.4205 56.06 19.2105 55.8 19.2105H42.87V8.24047C42.87 7.87047 43.17 7.58047 43.53 7.58047H53.06C54.82 7.58047 57.11 7.68047 58.08 7.88047C58.11 7.88047 58.14 7.88047 58.17 7.88047C58.28 7.88047 58.39 7.84047 58.48 7.77047C58.59 7.68047 58.66 7.54047 58.66 7.40047V1.46047C58.67 1.20047 58.45 0.980469 58.18 0.980469H35.08C34.94 0.980469 34.8 1.05047 34.71 1.16047C34.62 1.27047 34.58 1.42047 34.61 1.56047C34.8 2.44047 34.96 4.88047 34.96 6.78047V43.8205Z" fill="black"/>
<path d="M55.4 44.1205C55.49 44.2405 55.63 44.3105 55.78 44.3105H63.35C63.6 44.3105 63.81 44.1205 63.83 43.8705C63.93 42.6005 64.3 40.8605 64.89 38.8205L70.31 16.5405C70.49 15.8605 70.68 15.1305 70.86 14.3805C71.03 13.6805 72.02 13.6905 72.18 14.3805C72.35 15.1205 72.53 15.8505 72.71 16.5205C74.46 23.9105 78.41 42.8305 78.49 43.8505C78.51 44.1005 78.72 44.2905 78.97 44.2905H86.6C86.75 44.2905 86.89 44.2205 86.98 44.1005C87.07 43.9805 87.1 43.8305 87.06 43.6805L76.66 1.33047C76.6 1.12047 76.41 0.980469 76.2 0.980469H66.59C66.34 0.980469 66.14 1.16047 66.11 1.41047C65.94 2.93047 65.8 4.41047 65.1 7.38047L55.32 43.7005C55.28 43.8405 55.32 44.0005 55.4 44.1205Z" fill="black"/>
<path d="M97.96 44.1305C98.05 44.0205 98.09 43.8705 98.06 43.7305C97.86 42.7205 97.71 39.9405 97.71 38.6205V26.2205C97.71 25.8505 98.01 25.5605 98.37 25.5605H104.37C106.28 25.5605 109.58 25.6705 110.54 25.8605C110.57 25.8605 110.6 25.8605 110.63 25.8605C110.74 25.8605 110.85 25.8205 110.94 25.7505C111.05 25.6605 111.12 25.5205 111.12 25.3805V19.7005C111.12 19.4305 110.9 19.2205 110.64 19.2205H97.71V8.24047C97.71 7.87047 98.01 7.58047 98.37 7.58047H107.9C109.66 7.58047 111.95 7.68047 112.92 7.88047C112.95 7.88047 112.98 7.88047 113.01 7.88047C113.12 7.88047 113.23 7.84047 113.32 7.77047C113.43 7.68047 113.5 7.54047 113.5 7.40047V1.46047C113.5 1.20047 113.29 0.980469 113.02 0.980469H89.92C89.78 0.980469 89.64 1.05047 89.55 1.16047C89.46 1.27047 89.42 1.42047 89.45 1.56047C89.64 2.44047 89.8 4.88047 89.8 6.78047V43.8205C89.8 44.0905 90.02 44.3005 90.28 44.3005H97.59C97.73 44.3005 97.87 44.2405 97.96 44.1205V44.1305Z" fill="black"/>
</svg>
