<svg width="592" height="131" viewBox="0 0 592 131" fill="none" xmlns="http://www.w3.org/2000/svg">
<path d="M305.732 40.3361C306.226 38.2421 309.121 38.2562 309.588 40.3572C310.088 42.592 310.603 44.7634 311.124 46.7797C316.228 68.9453 329.537 125.762 329.777 128.822C329.832 129.576 330.442 130.154 331.176 130.154H354.803C355.242 130.154 355.653 129.943 355.921 129.583C356.188 129.223 356.277 128.758 356.161 128.328L320.879 1.17991C320.715 0.552343 320.159 0.115255 319.521 0.115255L293.206 0.115255C292.492 0.115255 291.889 0.66517 291.813 1.39845C291.319 5.96691 290.832 10.8948 288.863 19.3056L260.312 128.328C260.202 128.758 260.284 129.223 260.552 129.583C260.819 129.943 261.231 130.147 261.67 130.147H283.794C284.528 130.147 285.138 129.583 285.193 128.828C285.488 125.014 286.558 119.797 288.301 113.671L304.141 46.8149C304.676 44.7635 305.211 42.5778 305.732 40.329V40.3361Z" fill="white"/>
<path d="M362.876 17.578V128.706C362.876 129.504 363.504 130.154 364.275 130.154H383.76C384.177 130.154 384.579 129.956 384.845 129.624C385.112 129.285 385.214 128.847 385.132 128.423C384.545 125.385 384.115 117.29 384.115 113.313V76.0134C384.115 74.9114 384.975 74.0143 386.047 74.0143H406.979C412.541 74.0143 422.123 74.3323 424.922 74.9045C425.01 74.9256 425.107 74.9328 425.195 74.9328C425.516 74.9328 425.83 74.8197 426.082 74.6007C426.41 74.3251 426.594 73.9155 426.594 73.4844V56.4032C426.594 55.6049 425.966 54.9551 425.195 54.9551H384.122V21.9367C384.122 20.8346 384.982 19.9375 386.054 19.9375H415.489C420.594 19.9375 427.25 20.2484 430.088 20.8346C430.177 20.8558 430.273 20.8629 430.362 20.8629C430.683 20.8629 430.997 20.7499 431.249 20.538C431.577 20.2624 431.76 19.8528 431.76 19.4219V1.56339C431.76 0.765266 431.133 0.115255 430.362 0.115255L363.244 0.115255C362.821 0.115255 362.425 0.313052 362.159 0.652213C361.893 0.991186 361.791 1.43628 361.879 1.86018C362.418 4.50222 362.889 11.8419 362.889 17.5711L362.876 17.578Z" fill="white"/>
<path d="M492.869 130.154H515.116C515.555 130.154 515.966 129.942 516.234 129.583C516.501 129.223 516.591 128.758 516.474 128.328L482.584 1.17991C482.419 0.552343 481.865 0.115255 481.228 0.115255L454.943 0.115255C454.231 0.115255 453.627 0.66517 453.545 1.39845C453.051 5.96691 452.64 10.3943 450.606 19.3056L422.087 128.328C421.978 128.758 422.06 129.223 422.328 129.583C422.595 129.942 423.007 130.147 423.446 130.147H445.543C446.275 130.147 446.885 129.583 446.939 128.828C447.234 125.014 448.303 119.797 450.044 113.671L465.865 46.8149C466.399 44.7635 466.934 42.5778 467.455 40.329C467.948 38.235 470.839 38.2491 471.305 40.3501C471.806 42.5849 472.319 44.7563 472.84 46.7726C477.938 68.9381 491.231 125.755 491.471 128.814C491.526 129.569 492.136 130.147 492.869 130.147V130.154Z" fill="white"/>
<path d="M590.576 0.122379L522.909 0.122379C522.483 0.122379 522.085 0.320177 521.816 0.659151C521.547 0.998312 521.445 1.4434 521.535 1.86712C522.078 4.50916 522.553 11.849 522.553 17.578V128.706C522.553 129.504 523.185 130.154 523.963 130.154H543.608C544.027 130.154 544.432 129.956 544.701 129.624C544.97 129.285 545.074 128.847 544.99 128.423C544.4 125.386 543.966 117.29 543.966 113.313V76.0135C543.966 74.9115 544.833 74.0144 545.913 74.0144H567.016C572.623 74.0144 582.284 74.3323 585.105 74.9045C585.195 74.9257 585.292 74.9327 585.382 74.9327C585.705 74.9327 586.021 74.8198 586.276 74.6008C586.607 74.3252 586.791 73.9156 586.791 73.4845V56.4033C586.791 55.605 586.159 54.9552 585.382 54.9552H543.972V21.9367C543.972 20.8347 544.84 19.9375 545.919 19.9375H575.596C580.743 19.9375 587.451 20.2484 590.314 20.8347C590.404 20.8558 590.501 20.863 590.59 20.863C590.912 20.863 591.23 20.7499 591.484 20.5381C591.814 20.2625 592 19.8528 592 19.422V1.56339C592 0.765268 591.367 0.115255 590.59 0.115255L590.576 0.122379Z" fill="white"/>
<path d="M84.9626 129.578H80.4812V122.844H68.5037V118.494L79.0146 101.722H84.9626V118.829H87.9366L87.4885 122.844H84.9626V129.578ZM80.4812 118.829V112.137C80.4812 109.292 80.4812 107.285 80.6034 105.486C79.0961 108.456 75.022 115.064 72.9036 118.829H80.4812Z" fill="white"/>
<path d="M64.4374 129.536H46.5933V129.327C46.5933 125.855 47.8969 121.505 54.619 116.109C58.0819 113.265 59.4264 112.01 59.4264 109.334C59.4264 106.991 58.1634 105.193 55.5561 105.193C52.7857 105.193 51.5635 107.075 51.2784 110.086H46.6747C46.9192 105.486 49.4858 101.345 55.7598 101.345C61.4226 101.345 64.3151 104.9 64.3151 109.292C64.3151 113.056 62.767 115.189 57.8782 118.954C55.0264 121.17 53.0709 123.429 52.3783 125.437H65.0485L64.4374 129.536Z" fill="white"/>
<path d="M32.8467 101.345C39.7317 101.345 42.0946 107.242 42.0946 114.98C42.0946 122.76 40.1799 129.954 32.7652 129.954C25.1875 129.954 23.3542 122.76 23.3542 115.189C23.3542 107.702 26.0431 101.345 32.8467 101.345ZM32.8059 105.109C29.4652 105.109 28.243 108.79 28.243 115.064C28.243 121.714 29.2615 126.148 32.7652 126.148C36.4725 126.148 37.2058 121.631 37.2058 115.064C37.2058 109.041 36.1466 105.109 32.8059 105.109Z" fill="white"/>
<path d="M18.7777 129.536H0.933589V129.327C0.933589 125.855 2.23727 121.505 8.95937 116.109C12.4223 113.265 13.7667 112.01 13.7667 109.334C13.7667 106.991 12.5037 105.193 9.89639 105.193C7.12607 105.193 5.90387 107.075 5.61869 110.086H1.01507C1.25951 105.486 3.82613 101.345 10.1001 101.345C15.7629 101.345 18.6555 104.9 18.6555 109.292C18.6555 113.056 17.1074 115.189 12.2186 118.954C9.36677 121.17 7.41125 123.429 6.71867 125.437H19.3888L18.7777 129.536Z" fill="white"/>
<path d="M177.914 71.9114H168.299L166.099 79.3565H161.21C162.106 76.5959 168.951 53.8005 169.969 50.6636H176.325L185.491 79.3565H180.277L177.914 71.9114ZM169.317 67.6451H176.895C174.94 61.2875 173.636 57.1048 173.025 54.5534H172.984C172.251 57.8159 170.906 62.2913 169.317 67.6451Z" fill="white"/>
<path d="M137.547 79.3565V50.6636H142.395V64.299C145.41 60.4928 150.095 54.6371 153.273 50.6636H159.18L149.321 62.3331L159.75 79.3565H153.843L145.899 65.6792L142.395 69.5691V79.3565H137.547Z" fill="white"/>
<path d="M119.053 50.1995C127.242 50.1995 131.112 56.8917 131.112 64.7969C131.112 73.0785 127.283 79.7289 118.686 79.7289C110.335 79.7289 106.587 73.0785 106.587 64.7969C106.587 57.5609 110.375 50.1995 119.053 50.1995ZM118.849 54.2985C113.838 54.2985 111.72 58.9412 111.72 64.7551C111.72 70.8617 114.083 75.6718 118.89 75.6718C124.064 75.6718 126.06 71.0709 126.06 64.8387C126.06 59.1085 124.064 54.2985 118.849 54.2985Z" fill="white"/>
<path d="M79.3049 50.6636H84.2752V68.9417C84.2752 72.6224 85.3752 75.6758 89.9381 75.6758C94.4195 75.6758 95.4787 72.7479 95.4787 68.8999V50.6636H100.49V69.0672C100.49 75.0902 98.0046 79.7747 89.8158 79.7747C81.9123 79.7747 79.3049 75.4666 79.3049 69.1508V50.6636Z" fill="white"/>
<path d="M54.0286 79.3565V50.6636H58.8766V64.299C61.8914 60.4928 66.5765 54.6371 69.7542 50.6636H75.6615L65.8024 62.3331L76.2319 79.3565H70.3246L62.3803 65.6792L58.8766 69.5691V79.3565H54.0286Z" fill="white"/>
<path d="M25.4163 50.6636H30.3865V68.9417C30.3865 72.6224 31.4865 75.6758 36.0494 75.6758C40.5308 75.6758 41.59 72.7479 41.59 68.8999V50.6636H46.601V69.0672C46.601 75.0902 44.1159 79.7748 35.9272 79.7748C28.0236 79.7748 25.4163 75.4666 25.4163 69.1508V50.6636Z" fill="white"/>
<path d="M2.82763 79.3565V50.6636H20.2236V54.888H7.67569V62.9187H19.4495V67.1013H7.67569V79.3565H2.82763Z" fill="white"/>
<path d="M265.955 21.697H256.34L254.141 29.1421H249.252C250.148 26.3816 256.992 3.58621 258.011 0.449229H264.366L273.533 29.1421H268.318L265.955 21.697ZM257.359 17.4307H264.937C262.981 11.0731 261.677 6.89049 261.066 4.33908H261.026C260.292 7.60154 258.948 12.077 257.359 17.4307Z" fill="white"/>
<path d="M239.498 0.449229H244.428V29.1421H239.498V0.449229Z" fill="white"/>
<path d="M213.317 20.8455H218.205C218.653 23.8152 220.568 25.5719 223.665 25.5719C226.924 25.5719 228.39 24.0243 228.39 21.5984C228.39 18.796 226.883 17.6249 222.565 16.2864C216.291 14.4461 214.05 12.2293 214.05 8.08846C214.05 2.98563 217.961 0.0996094 223.216 0.0996094C229.694 0.0996094 232.464 3.69668 232.75 8.13028H227.901C227.535 5.70435 226.313 4.03129 223.176 4.03129C220.405 4.03129 219.02 5.36974 219.02 7.58654C219.02 9.92882 220.446 10.6817 224.602 11.9365C231.65 14.0696 233.442 16.9138 233.442 21.0128C233.442 25.6974 230.346 29.5454 223.461 29.5454C217.431 29.5454 213.642 26.3666 213.317 20.8455Z" fill="white"/>
<path d="M202.286 21.697H192.671L190.471 29.1421H185.582C186.479 26.3816 193.323 3.58621 194.341 0.449229L200.697 0.449229L209.863 29.1421H204.649L202.286 21.697ZM193.69 17.4307H201.267C199.312 11.0731 198.008 6.89049 197.397 4.33908H197.356C196.623 7.60154 195.278 12.077 193.69 17.4307Z" fill="white"/>
<path d="M159.851 16.887H155.654V29.1421H150.806V0.449229H161.684C166.858 0.449229 170.525 3.04247 170.525 8.06163C170.525 12.077 168.365 13.9592 166.084 14.7957C168.895 15.8413 169.995 18.1418 169.995 21.8225V22.4917C169.995 25.085 170.117 27.5109 170.362 29.1421H165.595C165.188 27.971 165.065 25.796 165.065 22.4499V21.7389C165.065 18.1836 163.802 16.887 159.851 16.887ZM155.654 4.50639V12.8298H160.217C163.273 12.8298 165.595 11.9515 165.595 8.4799C165.595 5.67753 163.68 4.50639 161.032 4.50639H155.654Z" fill="white"/>
<path d="M138.083 0.449229L143.012 0.449229V29.1421H138.083V0.449229Z" fill="white"/>
<path d="M125.638 21.697H116.023L113.823 29.1421H108.934C109.831 26.3816 116.675 3.58621 117.693 0.449229H124.049L133.215 29.1421H128.001L125.638 21.697ZM117.042 17.4307H124.619C122.664 11.0731 121.36 6.89049 120.749 4.33908H120.708C119.975 7.60154 118.63 12.077 117.042 17.4307Z" fill="white"/>
<path d="M90.2458 29.1421V0.449229L107.642 0.449229V4.67369H95.0939V12.7044H106.868V16.887H95.0939V29.1421H90.2458Z" fill="white"/>
<path d="M60.6224 29.1421V4.67369H52.8411V0.449229L73.4148 0.449229V4.67369H65.5927V29.1421H60.6224Z" fill="white"/>
<path d="M38.222 16.887H34.0258V29.1421H29.1777V0.449229H40.0553C45.2293 0.449229 48.8959 3.04247 48.8959 8.06163C48.8959 12.077 46.7367 13.9592 44.4552 14.7957C47.2663 15.8413 48.3663 18.1418 48.3663 21.8225V22.4917C48.3663 25.085 48.4885 27.5109 48.7329 29.1421H43.9663C43.5589 27.971 43.4367 25.796 43.4367 22.4499V21.7389C43.4367 18.1836 42.1738 16.887 38.222 16.887ZM34.0258 4.50639V12.8298H38.5887C41.6442 12.8298 43.9663 11.9515 43.9663 8.4799C43.9663 5.67753 42.0516 4.50639 39.4035 4.50639H34.0258Z" fill="white"/>
<path d="M16.7034 21.697H7.08876L4.8888 29.1421H0C0.896279 26.3816 7.7406 3.58621 8.75909 0.449229H15.1145L24.281 29.1421H19.0663L16.7034 21.697ZM8.10725 17.4307H15.6849C13.7294 11.0731 12.4257 6.89049 11.8146 4.33908H11.7739C11.0405 7.60154 9.69611 12.077 8.10725 17.4307Z" fill="white"/>
</svg>
