<svg width="681" height="316" viewBox="0 0 681 316" fill="none" xmlns="http://www.w3.org/2000/svg">
<path d="M14.7079 0.0200195C23.5519 0.0200195 29.6239 5.03602 29.6239 24.44V33.416H17.7439V25.1C17.7439 14.804 16.6879 10.844 14.9719 10.844C13.6519 10.844 12.5959 13.616 12.5959 17.708C12.5959 41.336 29.8879 57.968 29.8879 83.048C29.8879 92.948 25.2679 101.66 15.2359 101.66C6.39191 101.66 0.319908 96.644 0.319908 77.24V69.584H12.1999V76.58C12.1999 86.876 13.2559 90.836 14.9719 90.836C16.6879 90.836 17.3479 87.272 17.3479 83.708C17.3479 62.06 0.0559082 45.824 0.0559082 18.368C0.0559082 7.94002 5.99591 0.0200195 14.7079 0.0200195Z" fill="white"/>
<path d="M57.1047 89.12V101H33.8727V0.680017H57.1047V12.56H46.9407V42.26H55.7847V54.8H46.9407V89.12H57.1047Z" fill="white"/>
<path d="M61.0719 101V0.680017H72.1599C87.2079 0.680017 93.1479 8.60002 93.1479 29.324C93.1479 48.992 87.7359 57.176 74.1399 57.968V101H61.0719ZM79.9479 29.324C79.9479 14.672 78.0999 12.56 74.1399 12.56V46.088C78.0999 46.088 79.9479 43.844 79.9479 29.324Z" fill="white"/>
<path d="M138.952 22.46C138.952 45.296 124.168 59.156 121.792 89.12H137.236V101H108.988V97.04C108.988 59.42 126.412 45.296 126.412 23.12C126.412 14.936 125.224 10.844 123.64 10.844C122.056 10.844 120.868 14.804 120.868 25.1V33.416H108.988V24.44C108.988 7.01602 114.268 0.0200195 124.3 0.0200195C133.672 0.0200195 138.952 6.75202 138.952 22.46Z" fill="white"/>
<path d="M171.178 22.46C171.178 45.296 156.394 59.156 154.018 89.12H169.462V101H141.214V97.04C141.214 59.42 158.638 45.296 158.638 23.12C158.638 14.936 157.45 10.844 155.866 10.844C154.282 10.844 153.094 14.804 153.094 25.1V33.416H141.214V24.44C141.214 7.01602 146.494 0.0200195 156.526 0.0200195C165.898 0.0200195 171.178 6.75202 171.178 22.46Z" fill="white"/>
<path d="M175.025 62.06V48.86H199.049V62.06H175.025Z" fill="white"/>
<path d="M196.882 62.06V48.86H220.906V62.06H196.882Z" fill="white"/>
<path d="M255.04 22.46C255.04 45.296 240.256 59.156 237.88 89.12H253.324V101H225.076V97.04C225.076 59.42 242.5 45.296 242.5 23.12C242.5 14.936 241.312 10.844 239.728 10.844C238.144 10.844 236.956 14.804 236.956 25.1V33.416H225.076V24.44C225.076 7.01602 230.356 0.0200195 240.388 0.0200195C249.76 0.0200195 255.04 6.75202 255.04 22.46Z" fill="white"/>
<path d="M281.686 101H269.146L269.41 82.124H252.646V74.864L262.942 0.680017H281.686V70.904H286.966V82.124H281.686V101ZM263.602 70.904H269.542L270.334 14.408L263.602 70.904Z" fill="white"/>
<path d="M19.2518 108.68L21.2318 147.488L22.1558 162.8L23.0798 147.488L25.0598 108.68H43.4078V209H31.3958L32.0558 140.096V117.392L30.2078 140.096L27.3038 177.716H17.0078L14.1038 140.096L12.2558 117.392V140.096L12.9158 209H0.903809V108.68H19.2518Z" fill="black"/>
<path d="M54.1277 108.68H72.8717L79.9997 209H66.7997L66.2717 191.444H60.3317L59.6717 209H46.9997L54.1277 108.68ZM62.4437 134.684L60.7277 179.564H65.7437L64.2917 134.684L63.3677 120.296L62.4437 134.684Z" fill="black"/>
<path d="M83.5327 108.68H94.6207C109.537 108.68 115.609 116.468 115.609 136.664C115.609 147.356 113.365 153.56 109.009 157.52L115.609 209H103.069L98.1847 163.196C97.6567 163.196 97.1287 163.196 96.6007 163.328V209H83.5327V108.68ZM102.409 136.664C102.409 122.54 100.429 120.56 96.6007 120.56V152.768C100.561 152.768 102.409 150.524 102.409 136.664Z" fill="black"/>
<path d="M133.216 209H119.884V108.68H133.216V209Z" fill="black"/>
<path d="M157.31 108.68L162.59 177.584L164.438 200.288V177.584L163.118 108.68H175.13V209H156.782L151.502 140.096L149.654 117.392V140.096L150.974 209H138.962V108.68H157.31Z" fill="black"/>
<path d="M204.218 197.12V209H180.986V108.68H204.218V120.56H194.054V150.26H202.898V162.8H194.054V197.12H204.218Z" fill="black"/>
<path d="M258.014 108.68L259.994 147.488L260.918 162.8L261.842 147.488L263.822 108.68H282.17V209H270.158L270.818 140.096V117.392L268.97 140.096L266.066 177.716H255.77L252.866 140.096L251.018 117.392V140.096L251.678 209H239.666V108.68H258.014Z" fill="black"/>
<path d="M311.237 197.12V209H288.005V108.68H311.237V120.56H301.073V150.26H309.917V162.8H301.073V197.12H311.237Z" fill="black"/>
<path d="M328.009 108.02C336.853 108.02 342.925 113.036 342.925 132.44V141.416H331.045V133.1C331.045 122.804 329.989 118.844 328.273 118.844C326.953 118.844 325.897 121.616 325.897 125.708C325.897 149.336 343.189 165.968 343.189 191.048C343.189 200.948 338.569 209.66 328.537 209.66C319.693 209.66 313.621 204.644 313.621 185.24V177.584H325.501V184.58C325.501 194.876 326.557 198.836 328.273 198.836C329.989 198.836 330.649 195.272 330.649 191.708C330.649 170.06 313.357 153.824 313.357 126.368C313.357 115.94 319.297 108.02 328.009 108.02Z" fill="black"/>
<path d="M359.977 108.02C368.821 108.02 374.893 113.036 374.893 132.44V141.416H363.013V133.1C363.013 122.804 361.957 118.844 360.241 118.844C358.921 118.844 357.865 121.616 357.865 125.708C357.865 149.336 375.157 165.968 375.157 191.048C375.157 200.948 370.537 209.66 360.505 209.66C351.661 209.66 345.589 204.644 345.589 185.24V177.584H357.469V184.58C357.469 194.876 358.525 198.836 360.241 198.836C361.957 198.836 362.617 195.272 362.617 191.708C362.617 170.06 345.325 153.824 345.325 126.368C345.325 115.94 351.265 108.02 359.977 108.02Z" fill="black"/>
<path d="M402.374 197.12V209H379.142V108.68H402.374V120.56H392.21V150.26H401.054V162.8H392.21V197.12H402.374Z" fill="black"/>
<path d="M450.89 209H437.822V108.68H461.054V120.56H450.89V152.9H459.734V165.44H450.89V209Z" fill="black"/>
<path d="M464.106 174.68V108.68H477.174V168.08C477.174 194.744 478.098 198.836 480.078 198.836C482.058 198.836 482.982 194.744 482.982 168.08V108.68H496.05V174.68C496.05 202.796 491.43 209.66 480.078 209.66C468.726 209.66 464.106 202.796 464.106 174.68Z" fill="black"/>
<path d="M501.373 209V108.68H514.573V154.616L523.021 108.68H534.901L526.057 154.88L535.561 209H523.021L514.573 158.576V209H501.373Z" fill="black"/>
<path d="M538.356 174.68V108.68H551.424V168.08C551.424 194.744 552.348 198.836 554.328 198.836C556.308 198.836 557.232 194.744 557.232 168.08V108.68H570.3V174.68C570.3 202.796 565.68 209.66 554.328 209.66C542.976 209.66 538.356 202.796 538.356 174.68Z" fill="black"/>
<path d="M574.435 158.84C574.435 114.488 580.243 108.02 590.935 108.02C601.627 108.02 607.435 114.488 607.435 158.84C607.435 203.192 601.627 209.66 590.935 209.66C580.243 209.66 574.435 203.192 574.435 158.84ZM593.839 158.84C593.839 125.048 593.179 118.844 590.935 118.844C588.823 118.844 588.031 125.048 588.031 158.84C588.031 192.632 588.823 198.836 590.935 198.836C593.179 198.836 593.839 192.632 593.839 158.84Z" fill="black"/>
<path d="M612.103 209V108.68H625.303V154.616L633.751 108.68H645.631L636.787 154.88L646.291 209H633.751L625.303 158.576V209H612.103Z" fill="black"/>
<path d="M654.499 108.68H673.243L680.371 209H667.171L666.643 191.444H660.703L660.043 209H647.371L654.499 108.68ZM662.815 134.684L661.099 179.564H666.115L664.663 134.684L663.739 120.296L662.815 134.684Z" fill="black"/>
<path d="M19.9118 315V268.8H14.1038V315H0.903809V214.68H14.1038V256.26H19.9118V214.68H33.1118V315H19.9118Z" fill="black"/>
<path d="M68.8952 262.992V315H57.1472L55.6952 309.456C53.7152 313.284 50.1512 315.66 46.5872 315.66C40.9112 315.66 37.2152 311.7 37.2152 294.012C37.2152 277.248 41.3072 271.704 55.6952 269.592V263.652C55.6952 251.772 54.7712 248.076 53.0552 248.076C51.4712 248.076 50.5472 251.772 50.5472 263.652H38.2712V262.992C38.2712 242.532 45.0032 237.252 53.5832 237.252C61.6352 237.252 68.8952 242.532 68.8952 262.992ZM55.6952 278.832C51.6032 279.228 50.5472 281.736 50.5472 292.56C50.5472 302.856 51.2072 305.496 53.3192 305.496C54.1112 305.496 54.6392 305.364 55.6952 304.968V278.832Z" fill="black"/>
<path d="M73.7297 315V214.68H87.0617V315H73.7297Z" fill="black"/>
<path d="M92.2922 315V214.68H105.624V315H92.2922Z" fill="black"/>
<path d="M156.343 241.344C156.343 252.696 153.175 259.428 147.763 262.464C153.175 265.896 156.739 273.552 156.739 285.96C156.739 307.476 149.875 315 135.355 315H124.267V214.68H135.355C150.271 214.68 156.343 222.732 156.343 241.344ZM143.143 241.344C143.143 229.068 141.295 226.56 137.335 226.56V256.26C141.295 256.26 143.143 254.016 143.143 241.344ZM143.143 285.96C143.143 271.704 141.295 268.8 137.335 268.8V303.12C141.427 303.12 143.143 300.744 143.143 285.96Z" fill="black"/>
<path d="M181.009 26.0003H179.07V0.593262H184.084V2.3985H181.009V12.4276H183.75V14.2997H181.009V26.0003Z" fill="white"/>
<path d="M187.545 14.0991H187.244V26.0003H185.305V0.593262H187.545C190.821 0.593262 192.225 2.33164 192.225 7.44647C192.225 10.6892 191.523 12.3273 190.32 13.1965L192.158 26.0003H190.253L188.648 14.0322C188.314 14.0657 187.946 14.0991 187.545 14.0991ZM187.879 2.3985H187.244V12.461H187.879C189.417 12.461 190.253 11.525 190.253 7.44647C190.253 3.30111 189.417 2.3985 187.879 2.3985Z" fill="white"/>
<path d="M195.798 26.0003H193.826V0.593262H195.798V26.0003Z" fill="white"/>
<path d="M294.577 0.425781C296.483 0.425781 297.786 1.82985 297.786 7.24555V8.54933H295.981V7.31242C295.981 3.36764 295.413 2.09729 294.61 2.09729C293.975 2.09729 293.407 3.16706 293.407 4.73828C293.407 11.5581 297.853 14.4999 297.853 21.7209C297.853 24.0944 296.917 26.1671 294.811 26.1671C292.906 26.1671 291.568 24.7964 291.568 19.3807V18.4113H293.374V19.3139C293.374 23.2586 293.942 24.529 294.778 24.529C295.613 24.529 295.948 23.1584 295.948 21.8211C295.948 15.1685 291.501 12.1932 291.501 4.83858C291.501 2.33131 292.738 0.425781 294.577 0.425781Z" fill="white"/>
<path d="M299.314 17.6758V0.592932H301.287V16.7063C301.287 23.0915 301.821 24.529 302.791 24.529C303.794 24.529 304.329 23.0915 304.329 16.7063V0.592932H306.268V17.6758C306.268 24.3618 305.231 26.1671 302.791 26.1671C300.384 26.1671 299.314 24.3618 299.314 17.6758Z" fill="white"/>
<path d="M311.07 0.592932L314.446 22.0217L314.647 24.7964V22.0217L314.413 0.592932H316.252V25.9999H313.477L310.1 4.60456L309.866 1.82985V4.60456L310.134 25.9999H308.295V0.592932H311.07Z" fill="white"/>
<path d="M493.816 76.3648L492.295 77.8692L488.684 74.2253L485.057 77.8692L483.519 76.3648L487.163 72.7209L483.519 69.0938L485.057 67.5894L488.684 71.2166L492.295 67.5894L493.816 69.0938L490.189 72.7209L493.816 76.3648ZM494.835 71.4004V73.8743H492.412V71.4004H494.835ZM484.639 71.4004V73.8743H482.216V71.4004H484.639ZM487.447 66.4193H489.921V68.843H487.447V66.4193ZM487.447 76.6156H489.921V79.0393H487.447V76.6156Z" fill="white"/>
<path d="M495.881 69.7958C495.859 69.1272 495.937 68.5087 496.115 67.9404C496.293 67.361 496.561 66.8595 496.917 66.436C497.274 66.0015 497.72 65.6672 498.255 65.4331C498.801 65.188 499.425 65.0654 500.127 65.0654C500.662 65.0654 501.169 65.149 501.648 65.3161C502.138 65.4833 502.567 65.7229 502.935 66.0349C503.302 66.3469 503.592 66.7313 503.804 67.1882C504.027 67.6451 504.138 68.1577 504.138 68.726C504.138 69.3166 504.044 69.8236 503.854 70.2471C503.665 70.6705 503.414 71.0494 503.102 71.3837C502.79 71.7069 502.433 72.0022 502.032 72.2696C501.642 72.5371 501.247 72.8045 500.845 73.072C500.444 73.3283 500.054 73.6068 499.675 73.9077C499.296 74.2086 498.962 74.5596 498.672 74.9608H504.205V77H495.614C495.614 76.3203 495.708 75.7297 495.898 75.2282C496.098 74.7268 496.366 74.281 496.7 73.891C497.034 73.4898 497.424 73.1221 497.87 72.7878C498.327 72.4535 498.806 72.1136 499.308 71.7682C499.564 71.5899 499.837 71.4116 500.127 71.2333C500.416 71.0439 500.678 70.8377 500.912 70.6148C501.157 70.392 501.358 70.1412 501.514 69.8626C501.681 69.5841 501.765 69.2665 501.765 68.9099C501.765 68.3416 501.598 67.9014 501.263 67.5894C500.94 67.2662 500.522 67.1047 500.01 67.1047C499.664 67.1047 499.369 67.1882 499.124 67.3554C498.89 67.5114 498.7 67.7231 498.555 67.9906C498.411 68.2469 498.305 68.5366 498.238 68.8597C498.182 69.1718 498.154 69.4838 498.154 69.7958H495.881Z" fill="white"/>
<path d="M507.275 71.0996C507.275 71.4339 507.286 71.8406 507.309 72.3198C507.331 72.7878 507.398 73.2447 507.509 73.6904C507.632 74.125 507.821 74.4983 508.077 74.8103C508.334 75.1223 508.701 75.2783 509.181 75.2783C509.671 75.2783 510.044 75.1223 510.301 74.8103C510.568 74.4983 510.757 74.125 510.869 73.6904C510.991 73.2447 511.064 72.7878 511.086 72.3198C511.108 71.8406 511.12 71.4339 511.12 71.0996C511.12 70.899 511.114 70.6594 511.103 70.3808C511.103 70.0911 511.081 69.7958 511.036 69.4949C511.003 69.194 510.947 68.8987 510.869 68.609C510.802 68.3081 510.696 68.0407 510.551 67.8067C510.406 67.5727 510.223 67.3832 510 67.2384C509.777 67.0935 509.504 67.0211 509.181 67.0211C508.857 67.0211 508.584 67.0935 508.362 67.2384C508.15 67.3832 507.972 67.5727 507.827 67.8067C507.693 68.0407 507.587 68.3081 507.509 68.609C507.431 68.8987 507.375 69.194 507.342 69.4949C507.309 69.7958 507.286 70.0911 507.275 70.3808C507.275 70.6594 507.275 70.899 507.275 71.0996ZM504.902 71.0996C504.902 69.9629 505.013 69.0102 505.236 68.2413C505.47 67.4612 505.782 66.8372 506.172 66.3692C506.562 65.9012 507.013 65.5669 507.526 65.3663C508.05 65.1657 508.601 65.0654 509.181 65.0654C509.771 65.0654 510.323 65.1657 510.835 65.3663C511.359 65.5669 511.816 65.9012 512.206 66.3692C512.607 66.8372 512.919 67.4612 513.142 68.2413C513.376 69.0102 513.493 69.9629 513.493 71.0996C513.493 72.2696 513.376 73.2502 513.142 74.0414C512.919 74.8215 512.607 75.4455 512.206 75.9135C511.816 76.3815 511.359 76.7159 510.835 76.9164C510.323 77.117 509.771 77.2173 509.181 77.2173C508.601 77.2173 508.05 77.117 507.526 76.9164C507.013 76.7159 506.562 76.3815 506.172 75.9135C505.782 75.4455 505.47 74.8215 505.236 74.0414C505.013 73.2502 504.902 72.2696 504.902 71.0996Z" fill="white"/>
<path d="M514.457 69.7958C514.435 69.1272 514.513 68.5087 514.691 67.9404C514.869 67.361 515.137 66.8595 515.493 66.436C515.85 66.0015 516.296 65.6672 516.831 65.4331C517.377 65.188 518.001 65.0654 518.703 65.0654C519.237 65.0654 519.745 65.149 520.224 65.3161C520.714 65.4833 521.143 65.7229 521.511 66.0349C521.878 66.3469 522.168 66.7313 522.38 67.1882C522.603 67.6451 522.714 68.1577 522.714 68.726C522.714 69.3166 522.62 69.8236 522.43 70.2471C522.241 70.6705 521.99 71.0494 521.678 71.3837C521.366 71.7069 521.009 72.0022 520.608 72.2696C520.218 72.5371 519.823 72.8045 519.421 73.072C519.02 73.3283 518.63 73.6068 518.251 73.9077C517.872 74.2086 517.538 74.5596 517.248 74.9608H522.781V77H514.19C514.19 76.3203 514.284 75.7297 514.474 75.2282C514.674 74.7268 514.942 74.281 515.276 73.891C515.61 73.4898 516 73.1221 516.446 72.7878C516.903 72.4535 517.382 72.1136 517.884 71.7682C518.14 71.5899 518.413 71.4116 518.703 71.2333C518.992 71.0439 519.254 70.8377 519.488 70.6148C519.733 70.392 519.934 70.1412 520.09 69.8626C520.257 69.5841 520.341 69.2665 520.341 68.9099C520.341 68.3416 520.174 67.9014 519.839 67.5894C519.516 67.2662 519.098 67.1047 518.586 67.1047C518.24 67.1047 517.945 67.1882 517.7 67.3554C517.466 67.5114 517.276 67.7231 517.131 67.9906C516.987 68.2469 516.881 68.5366 516.814 68.8597C516.758 69.1718 516.73 69.4838 516.73 69.7958H514.457Z" fill="white"/>
<path d="M526.938 70.0298C527.194 70.0521 527.467 70.0521 527.757 70.0298C528.046 70.0075 528.314 69.9462 528.559 69.8459C528.815 69.7345 529.021 69.5785 529.177 69.3779C529.345 69.1773 529.428 68.9099 529.428 68.5756C529.428 68.0741 529.261 67.6897 528.927 67.4222C528.592 67.1548 528.208 67.0211 527.773 67.0211C527.172 67.0211 526.715 67.2217 526.403 67.6228C526.102 68.0128 525.957 68.5087 525.968 69.1105H523.712C523.734 68.5087 523.84 67.9627 524.029 67.4724C524.23 66.9709 524.503 66.5419 524.848 66.1853C525.205 65.8287 525.628 65.5557 526.119 65.3663C526.609 65.1657 527.155 65.0654 527.757 65.0654C528.225 65.0654 528.693 65.1378 529.161 65.2827C529.629 65.4164 530.047 65.6226 530.414 65.9012C530.793 66.1797 531.1 66.5196 531.334 66.9208C531.568 67.3219 531.685 67.7844 531.685 68.3081C531.685 68.8765 531.545 69.3779 531.267 69.8125C530.999 70.2471 530.593 70.5424 530.047 70.6984V70.7318C530.693 70.8767 531.2 71.1887 531.568 71.6679C531.935 72.147 532.119 72.7209 532.119 73.3895C532.119 74.0024 531.997 74.5485 531.752 75.0276C531.518 75.5068 531.2 75.908 530.799 76.2311C530.398 76.5543 529.935 76.7994 529.411 76.9666C528.888 77.1337 528.342 77.2173 527.773 77.2173C527.116 77.2173 526.514 77.1226 525.968 76.9331C525.433 76.7437 524.976 76.4707 524.597 76.1141C524.219 75.7464 523.923 75.3006 523.712 74.7769C523.511 74.2532 523.416 73.6514 523.427 72.9717H525.684C525.695 73.2837 525.745 73.5846 525.834 73.8743C525.924 74.1529 526.052 74.398 526.219 74.6097C526.386 74.8103 526.592 74.9719 526.837 75.0945C527.094 75.2171 527.394 75.2783 527.74 75.2783C528.275 75.2783 528.726 75.1168 529.094 74.7936C529.462 74.4593 529.645 74.008 529.645 73.4397C529.645 72.9939 529.556 72.6541 529.378 72.4201C529.211 72.1861 528.994 72.0189 528.726 71.9186C528.459 71.8072 528.163 71.7459 527.84 71.7347C527.528 71.7125 527.227 71.7013 526.938 71.7013V70.0298Z" fill="white"/>
<path d="M536.894 64.7812H538.8L534.136 77.2675H532.247L536.894 64.7812Z" fill="white"/>
<path d="M543.13 71.367C543.454 71.367 543.732 71.3113 543.966 71.1999C544.2 71.0773 544.395 70.9157 544.551 70.7151C544.707 70.5145 544.824 70.2861 544.902 70.0298C544.98 69.7624 545.019 69.4838 545.019 69.194C545.019 68.9266 544.975 68.6647 544.886 68.4084C544.808 68.141 544.685 67.907 544.518 67.7064C544.362 67.4947 544.167 67.3275 543.933 67.2049C543.699 67.0824 543.431 67.0211 543.13 67.0211C542.852 67.0211 542.601 67.0824 542.378 67.2049C542.155 67.3275 541.966 67.4891 541.81 67.6897C541.654 67.8903 541.537 68.1187 541.459 68.375C541.381 68.6313 541.342 68.8932 541.342 69.1606C541.342 69.4392 541.375 69.7122 541.442 69.9797C541.52 70.236 541.632 70.47 541.777 70.6817C541.921 70.8823 542.105 71.0494 542.328 71.1831C542.562 71.3057 542.83 71.367 543.13 71.367ZM541.426 73.9913C541.504 74.3813 541.682 74.7212 541.96 75.0109C542.239 75.3006 542.584 75.4455 542.997 75.4455C543.431 75.4455 543.788 75.3229 544.067 75.0778C544.345 74.8215 544.568 74.515 544.735 74.1584C544.902 73.7907 545.019 73.4007 545.086 72.9884C545.164 72.5761 545.214 72.2083 545.237 71.8852L545.203 71.8517C544.88 72.3198 544.501 72.6541 544.067 72.8547C543.632 73.0552 543.13 73.1555 542.562 73.1555C542.061 73.1555 541.57 73.0497 541.091 72.8379C540.612 72.6151 540.205 72.3198 539.871 71.952C539.559 71.5955 539.331 71.1887 539.186 70.7318C539.041 70.275 538.968 69.8125 538.968 69.3445C538.968 68.7427 539.063 68.1856 539.253 67.673C539.453 67.1492 539.732 66.6979 540.088 66.319C540.456 65.929 540.891 65.6226 541.392 65.3997C541.894 65.1768 542.451 65.0654 543.064 65.0654C543.955 65.0654 544.685 65.2437 545.253 65.6003C545.833 65.9457 546.295 66.4082 546.641 66.9876C546.986 67.556 547.226 68.2023 547.359 68.9266C547.493 69.6509 547.56 70.3808 547.56 71.1163C547.56 71.8406 547.476 72.5649 547.309 73.2892C547.142 74.0136 546.875 74.671 546.507 75.2616C546.139 75.8411 545.666 76.3147 545.086 76.6824C544.507 77.039 543.799 77.2173 542.963 77.2173C542.462 77.2173 541.994 77.1449 541.559 77C541.125 76.8663 540.74 76.6601 540.406 76.3815C540.072 76.103 539.799 75.7631 539.587 75.3619C539.375 74.9608 539.236 74.5039 539.169 73.9913H541.426Z" fill="white"/>
<path d="M552.385 64.7812H554.291L549.627 77.2675H547.738L552.385 64.7812Z" fill="white"/>
<path d="M554.727 69.7958C554.704 69.1272 554.782 68.5087 554.961 67.9404C555.139 67.361 555.406 66.8595 555.763 66.436C556.12 66.0015 556.565 65.6672 557.1 65.4331C557.646 65.188 558.27 65.0654 558.972 65.0654C559.507 65.0654 560.014 65.149 560.493 65.3161C560.984 65.4833 561.413 65.7229 561.78 66.0349C562.148 66.3469 562.438 66.7313 562.65 67.1882C562.873 67.6451 562.984 68.1577 562.984 68.726C562.984 69.3166 562.889 69.8236 562.7 70.2471C562.51 70.6705 562.26 71.0494 561.948 71.3837C561.636 71.7069 561.279 72.0022 560.878 72.2696C560.488 72.5371 560.092 72.8045 559.691 73.072C559.29 73.3283 558.9 73.6068 558.521 73.9077C558.142 74.2086 557.808 74.5596 557.518 74.9608H563.051V77H554.459C554.459 76.3203 554.554 75.7297 554.743 75.2282C554.944 74.7268 555.211 74.281 555.546 73.891C555.88 73.4898 556.27 73.1221 556.716 72.7878C557.173 72.4535 557.652 72.1136 558.153 71.7682C558.41 71.5899 558.683 71.4116 558.972 71.2333C559.262 71.0439 559.524 70.8377 559.758 70.6148C560.003 70.392 560.204 70.1412 560.36 69.8626C560.527 69.5841 560.61 69.2665 560.61 68.9099C560.61 68.3416 560.443 67.9014 560.109 67.5894C559.786 67.2662 559.368 67.1047 558.855 67.1047C558.51 67.1047 558.215 67.1882 557.969 67.3554C557.735 67.5114 557.546 67.7231 557.401 67.9906C557.256 68.2469 557.15 68.5366 557.084 68.8597C557.028 69.1718 557 69.4838 557 69.7958H554.727Z" fill="white"/>
<path d="M569.949 77H567.575V69.4113H564.633V67.6228C565.045 67.634 565.441 67.6061 565.82 67.5392C566.21 67.4612 566.555 67.3331 566.856 67.1548C567.168 66.9654 567.43 66.7202 567.642 66.4193C567.854 66.1185 567.993 65.7452 568.06 65.2994H569.949V77Z" fill="white"/>
<path d="M577.749 64.7812C577.114 65.9625 576.651 67.1938 576.362 68.4753C576.072 69.7456 575.927 71.0383 575.927 72.3532C575.927 73.6904 576.066 74.9998 576.345 76.2813C576.635 77.5628 577.097 78.8108 577.732 80.0254H575.76C575.058 78.8777 574.512 77.6686 574.122 76.3983C573.743 75.1279 573.553 73.8353 573.553 72.5204C573.553 71.8963 573.598 71.2444 573.687 70.5647C573.787 69.8738 573.927 69.1885 574.105 68.5087C574.294 67.829 574.523 67.1715 574.79 66.5363C575.069 65.9012 575.392 65.3161 575.76 64.7812H577.749Z" fill="white"/>
<path d="M581.425 67.2718H577.848V65.0654H587.626V67.2718H584.049V77H581.425V67.2718Z" fill="white"/>
<path d="M588.751 65.0654H591.125V69.5618H591.175C591.476 69.0603 591.86 68.6982 592.328 68.4753C592.796 68.2413 593.253 68.1243 593.699 68.1243C594.334 68.1243 594.852 68.2134 595.253 68.3917C595.666 68.5589 595.989 68.7985 596.223 69.1105C596.457 69.4113 596.619 69.7846 596.708 70.2304C596.808 70.665 596.858 71.1497 596.858 71.6846V77H594.485V72.1192C594.485 71.406 594.373 70.8767 594.15 70.5313C593.927 70.1747 593.532 69.9964 592.963 69.9964C592.317 69.9964 591.849 70.1914 591.559 70.5814C591.27 70.9603 591.125 71.5899 591.125 72.4702V77H588.751V65.0654Z" fill="white"/>
<path d="M606.766 77H604.51V75.7965H604.46C604.159 76.298 603.769 76.6601 603.29 76.883C602.81 77.1059 602.32 77.2173 601.819 77.2173C601.184 77.2173 600.66 77.1337 600.247 76.9666C599.846 76.7994 599.529 76.5654 599.295 76.2645C599.061 75.9525 598.894 75.5792 598.793 75.1446C598.704 74.6989 598.66 74.2086 598.66 73.6737V68.3583H601.033V73.2391C601.033 73.9523 601.145 74.4872 601.367 74.8438C601.59 75.1892 601.986 75.3619 602.554 75.3619C603.2 75.3619 603.669 75.1725 603.958 74.7936C604.248 74.4036 604.393 73.7684 604.393 72.8881V68.3583H606.766V77Z" fill="white"/>
<path d="M607.565 80.0254C608.178 78.8442 608.629 77.624 608.919 76.3648C609.22 75.0945 609.37 73.8018 609.37 72.4869C609.37 71.1497 609.225 69.8348 608.936 68.5422C608.646 67.2495 608.195 65.9959 607.582 64.7812H609.537C610.239 65.929 610.78 67.1437 611.159 68.4251C611.549 69.7066 611.744 71.0048 611.744 72.3198C611.744 72.9438 611.699 73.6013 611.61 74.2922C611.521 74.9719 611.382 75.6517 611.192 76.3314C611.014 77 610.785 77.6519 610.507 78.2871C610.228 78.9222 609.905 79.5017 609.537 80.0254H607.565Z" fill="white"/>
<path d="M621.041 70.6817H623.08C623.381 70.6817 623.671 70.6594 623.949 70.6148C624.228 70.5703 624.473 70.4867 624.685 70.3641C624.897 70.2304 625.064 70.0465 625.186 69.8125C625.32 69.5785 625.387 69.272 625.387 68.8932C625.387 68.5143 625.32 68.2079 625.186 67.9738C625.064 67.7398 624.897 67.5615 624.685 67.439C624.473 67.3052 624.228 67.2161 623.949 67.1715C623.671 67.1269 623.381 67.1047 623.08 67.1047H621.041V70.6817ZM618.417 65.0654H623.799C624.546 65.0654 625.181 65.1768 625.705 65.3997C626.228 65.6114 626.652 65.8956 626.975 66.2522C627.309 66.6088 627.549 67.0155 627.694 67.4724C627.85 67.9293 627.928 68.4029 627.928 68.8932C627.928 69.3723 627.85 69.8459 627.694 70.314C627.549 70.7708 627.309 71.1776 626.975 71.5342C626.652 71.8908 626.228 72.1805 625.705 72.4033C625.181 72.6151 624.546 72.7209 623.799 72.7209H621.041V77H618.417V65.0654Z" fill="white"/>
<path d="M629.315 68.3583H631.571V69.9629H631.605C631.716 69.6955 631.867 69.4503 632.056 69.2275C632.246 68.9935 632.463 68.7985 632.708 68.6424C632.953 68.4753 633.215 68.3471 633.494 68.258C633.772 68.1688 634.062 68.1243 634.363 68.1243C634.519 68.1243 634.692 68.1521 634.881 68.2079V70.4142C634.77 70.392 634.636 70.3752 634.48 70.3641C634.324 70.3418 634.173 70.3307 634.029 70.3307C633.594 70.3307 633.226 70.4031 632.925 70.548C632.624 70.6928 632.379 70.8934 632.19 71.1497C632.012 71.3949 631.883 71.6846 631.805 72.0189C631.727 72.3532 631.688 72.7154 631.688 73.1054V77H629.315V68.3583Z" fill="white"/>
<path d="M641.335 71.7515C641.223 71.1497 641.023 70.6928 640.733 70.3808C640.454 70.0688 640.025 69.9128 639.446 69.9128C639.067 69.9128 638.749 69.9797 638.493 70.1134C638.248 70.236 638.047 70.392 637.891 70.5814C637.746 70.7708 637.641 70.9714 637.574 71.1831C637.518 71.3949 637.485 71.5843 637.473 71.7515H641.335ZM637.473 73.2558C637.507 74.0247 637.702 74.5819 638.058 74.9273C638.415 75.2728 638.928 75.4455 639.596 75.4455C640.075 75.4455 640.488 75.3285 640.833 75.0945C641.179 74.8493 641.39 74.593 641.468 74.3256H643.558C643.223 75.3619 642.711 76.103 642.02 76.5487C641.329 76.9944 640.493 77.2173 639.513 77.2173C638.833 77.2173 638.22 77.1114 637.674 76.8997C637.128 76.6768 636.665 76.3648 636.287 75.9637C635.908 75.5625 635.612 75.0833 635.401 74.5262C635.2 73.969 635.1 73.3561 635.1 72.6875C635.1 72.0412 635.206 71.4394 635.417 70.8823C635.629 70.3251 635.93 69.8459 636.32 69.4448C636.71 69.0325 637.173 68.7093 637.707 68.4753C638.253 68.2413 638.855 68.1243 639.513 68.1243C640.248 68.1243 640.889 68.2691 641.435 68.5589C641.981 68.8375 642.427 69.2163 642.772 69.6955C643.129 70.1747 643.385 70.7207 643.541 71.3336C643.697 71.9465 643.753 72.5872 643.708 73.2558H637.473Z" fill="white"/>
<path d="M649.896 77H647.255L644.297 68.3583H646.787L648.609 74.2587H648.643L650.465 68.3583H652.822L649.896 77Z" fill="white"/>
<path d="M656.24 67.0211H653.867V65.0654H656.24V67.0211ZM653.867 68.3583H656.24V77H653.867V68.3583Z" fill="white"/>
<path d="M663.926 71.7515C663.815 71.1497 663.614 70.6928 663.324 70.3808C663.046 70.0688 662.617 69.9128 662.037 69.9128C661.658 69.9128 661.341 69.9797 661.085 70.1134C660.839 70.236 660.639 70.392 660.483 70.5814C660.338 70.7708 660.232 70.9714 660.165 71.1831C660.11 71.3949 660.076 71.5843 660.065 71.7515H663.926ZM660.065 73.2558C660.098 74.0247 660.293 74.5819 660.65 74.9273C661.007 75.2728 661.519 75.4455 662.188 75.4455C662.667 75.4455 663.079 75.3285 663.425 75.0945C663.77 74.8493 663.982 74.593 664.06 74.3256H666.149C665.815 75.3619 665.302 76.103 664.611 76.5487C663.921 76.9944 663.085 77.2173 662.104 77.2173C661.424 77.2173 660.812 77.1114 660.266 76.8997C659.719 76.6768 659.257 76.3648 658.878 75.9637C658.499 75.5625 658.204 75.0833 657.992 74.5262C657.792 73.969 657.691 73.3561 657.691 72.6875C657.691 72.0412 657.797 71.4394 658.009 70.8823C658.221 70.3251 658.522 69.8459 658.912 69.4448C659.302 69.0325 659.764 68.7093 660.299 68.4753C660.845 68.2413 661.447 68.1243 662.104 68.1243C662.84 68.1243 663.48 68.2691 664.026 68.5589C664.572 68.8375 665.018 69.2163 665.364 69.6955C665.72 70.1747 665.977 70.7207 666.133 71.3336C666.289 71.9465 666.344 72.5872 666.3 73.2558H660.065Z" fill="white"/>
<path d="M677.586 77H675.146L673.608 71.1999H673.574L672.103 77H669.646L666.905 68.3583H669.412L671 74.2253H671.034L672.471 68.3583H674.778L676.249 74.2086H676.282L677.87 68.3583H680.311L677.586 77Z" fill="white"/>
<path d="M543.364 87.1548L545.303 86.4193L545.755 87.7064L543.782 88.3583L545.019 89.9964L543.916 90.8154L542.679 89.0938L541.509 90.8154L540.389 89.9964L541.626 88.3583L539.687 87.7064L540.138 86.4193L542.027 87.1548V85.0654H543.364V87.1548Z" fill="white"/>
<path d="M553.364 92.6875C553.364 92.3198 553.325 91.9688 553.247 91.6345C553.169 91.3002 553.046 91.0048 552.879 90.7486C552.712 90.4923 552.5 90.2917 552.244 90.1468C551.999 89.9908 551.698 89.9128 551.341 89.9128C550.996 89.9128 550.695 89.9908 550.439 90.1468C550.182 90.2917 549.971 90.4923 549.803 90.7486C549.636 91.0048 549.514 91.3002 549.436 91.6345C549.358 91.9688 549.319 92.3198 549.319 92.6875C549.319 93.0441 549.358 93.3895 549.436 93.7238C549.514 94.0581 549.636 94.3534 549.803 94.6097C549.971 94.866 550.182 95.0722 550.439 95.2282C550.695 95.3731 550.996 95.4455 551.341 95.4455C551.698 95.4455 551.999 95.3731 552.244 95.2282C552.5 95.0722 552.712 94.866 552.879 94.6097C553.046 94.3534 553.169 94.0581 553.247 93.7238C553.325 93.3895 553.364 93.0441 553.364 92.6875ZM547.029 85.0654H549.402V89.4113H549.436C549.725 88.9656 550.115 88.6424 550.606 88.4419C551.107 88.2301 551.625 88.1243 552.16 88.1243C552.595 88.1243 553.024 88.2134 553.447 88.3917C553.871 88.57 554.25 88.843 554.584 89.2108C554.929 89.5785 555.208 90.0521 555.42 90.6315C555.631 91.1999 555.737 91.8796 555.737 92.6708C555.737 93.462 555.631 94.1473 555.42 94.7267C555.208 95.2951 554.929 95.7631 554.584 96.1308C554.25 96.4986 553.871 96.7716 553.447 96.9499C553.024 97.1282 552.595 97.2173 552.16 97.2173C551.525 97.2173 550.957 97.117 550.455 96.9164C549.954 96.7158 549.575 96.376 549.319 95.8968H549.285V97H547.029V85.0654Z" fill="white"/>
<path d="M561.51 98.0698C561.253 98.7718 560.897 99.2733 560.44 99.5741C559.983 99.875 559.348 100.025 558.534 100.025C558.289 100.025 558.044 100.014 557.799 99.992C557.565 99.9809 557.325 99.9642 557.08 99.9419V97.9862C557.303 98.0085 557.531 98.0308 557.765 98.0531C557.999 98.0753 558.233 98.0809 558.467 98.0698C558.779 98.0363 559.008 97.9138 559.153 97.702C559.309 97.4903 559.387 97.2563 559.387 97C559.387 96.8106 559.353 96.6323 559.286 96.4651L556.261 88.3583H558.785L560.741 94.2754H560.774L562.663 88.3583H565.12L561.51 98.0698Z" fill="white"/>
<path d="M573.007 87.0211H570.634V85.0654H573.007V87.0211ZM570.634 88.3583H573.007V97H570.634V88.3583Z" fill="white"/>
<path d="M574.876 88.3583H577.133V89.5618H577.183C577.484 89.0603 577.874 88.6982 578.353 88.4753C578.832 88.2413 579.323 88.1243 579.824 88.1243C580.459 88.1243 580.977 88.2134 581.379 88.3917C581.791 88.5589 582.114 88.7985 582.348 89.1105C582.582 89.4113 582.744 89.7846 582.833 90.2304C582.933 90.665 582.983 91.1497 582.983 91.6846V97H580.61V92.1192C580.61 91.406 580.498 90.8767 580.275 90.5313C580.053 90.1747 579.657 89.9964 579.089 89.9964C578.442 89.9964 577.974 90.1914 577.685 90.5814C577.395 90.9603 577.25 91.5899 577.25 92.4702V97H574.876V88.3583Z" fill="white"/>
<path d="M589.565 97H586.924L583.966 88.3583H586.456L588.278 94.2587H588.312L590.134 88.3583H592.49L589.565 97Z" fill="white"/>
<path d="M595.909 87.0211H593.536V85.0654H595.909V87.0211ZM593.536 88.3583H595.909V97H593.536V88.3583Z" fill="white"/>
<path d="M600.787 88.3583H602.525V89.9462H600.787V94.2253C600.787 94.6265 600.854 94.8939 600.987 95.0276C601.121 95.1613 601.389 95.2282 601.79 95.2282C601.923 95.2282 602.052 95.2226 602.174 95.2115C602.297 95.2003 602.414 95.1836 602.525 95.1613V97C602.325 97.0334 602.102 97.0557 601.857 97.0669C601.611 97.078 601.372 97.0836 601.138 97.0836C600.77 97.0836 600.419 97.0557 600.085 97C599.762 96.9554 599.472 96.8607 599.216 96.7159C598.97 96.571 598.775 96.3648 598.631 96.0974C598.486 95.8299 598.413 95.4789 598.413 95.0443V89.9462H596.976V88.3583H598.413V85.7674H600.787V88.3583Z" fill="white"/>
<path d="M603.554 91.016C603.588 90.4588 603.727 89.9964 603.972 89.6286C604.217 89.2609 604.529 88.9656 604.908 88.7427C605.287 88.5199 605.71 88.3639 606.178 88.2747C606.658 88.1744 607.137 88.1243 607.616 88.1243C608.051 88.1243 608.491 88.1577 608.936 88.2246C609.382 88.2803 609.789 88.3973 610.157 88.5756C610.524 88.7539 610.825 89.0046 611.059 89.3278C611.293 89.6398 611.41 90.0577 611.41 90.5814V95.0778C611.41 95.4678 611.433 95.8411 611.477 96.1977C611.522 96.5543 611.6 96.8217 611.711 97H609.304C609.26 96.8663 609.221 96.7326 609.187 96.5988C609.165 96.454 609.148 96.3091 609.137 96.1642C608.758 96.5543 608.312 96.8273 607.8 96.9833C607.287 97.1393 606.764 97.2173 606.229 97.2173C605.816 97.2173 605.432 97.1672 605.075 97.0669C604.719 96.9666 604.407 96.8106 604.139 96.5988C603.872 96.3871 603.66 96.1197 603.504 95.7965C603.359 95.4734 603.287 95.0889 603.287 94.6432C603.287 94.1529 603.37 93.7517 603.537 93.4397C603.716 93.1165 603.939 92.8602 604.206 92.6708C604.485 92.4814 604.797 92.3421 605.142 92.2529C605.499 92.1526 605.855 92.0746 606.212 92.0189C606.569 91.9632 606.92 91.9186 607.265 91.8852C607.61 91.8517 607.917 91.8016 608.184 91.7347C608.452 91.6679 608.663 91.5732 608.819 91.4506C608.975 91.3169 609.048 91.1274 609.037 90.8823C609.037 90.626 608.992 90.4254 608.903 90.2805C608.825 90.1245 608.714 90.0075 608.569 89.9295C608.435 89.8404 608.273 89.7846 608.084 89.7624C607.906 89.7289 607.711 89.7122 607.499 89.7122C607.031 89.7122 606.663 89.8125 606.396 90.0131C606.128 90.2137 605.972 90.548 605.928 91.016H603.554ZM609.037 92.7711C608.936 92.8602 608.808 92.9327 608.652 92.9884C608.507 93.033 608.346 93.072 608.168 93.1054C608 93.1388 607.822 93.1667 607.633 93.189C607.443 93.2112 607.254 93.2391 607.064 93.2725C606.886 93.306 606.708 93.3505 606.53 93.4063C606.362 93.462 606.212 93.54 606.078 93.6403C605.956 93.7294 605.855 93.8464 605.777 93.9913C605.699 94.1361 605.66 94.32 605.66 94.5429C605.66 94.7546 605.699 94.9329 605.777 95.0778C605.855 95.2226 605.961 95.3396 606.095 95.4288C606.229 95.5068 606.385 95.5625 606.563 95.5959C606.741 95.6294 606.925 95.6461 607.115 95.6461C607.583 95.6461 607.945 95.5681 608.201 95.4121C608.457 95.2561 608.647 95.0722 608.769 94.8605C608.892 94.6376 608.964 94.4147 608.987 94.1919C609.02 93.969 609.037 93.7907 609.037 93.657V92.7711Z" fill="white"/>
<path d="M616.261 88.3583H618V89.9462H616.261V94.2253C616.261 94.6265 616.328 94.8939 616.462 95.0276C616.596 95.1613 616.863 95.2282 617.264 95.2282C617.398 95.2282 617.526 95.2226 617.649 95.2115C617.771 95.2003 617.888 95.1836 618 95.1613V97C617.799 97.0334 617.576 97.0557 617.331 97.0669C617.086 97.078 616.846 97.0836 616.612 97.0836C616.245 97.0836 615.894 97.0557 615.559 97C615.236 96.9554 614.946 96.8607 614.69 96.7159C614.445 96.571 614.25 96.3648 614.105 96.0974C613.96 95.8299 613.888 95.4789 613.888 95.0443V89.9462H612.45V88.3583H613.888V85.7674H616.261V88.3583Z" fill="white"/>
<path d="M621.569 87.0211H619.196V85.0654H621.569V87.0211ZM619.196 88.3583H621.569V97H619.196V88.3583Z" fill="white"/>
<path d="M625.545 92.6875C625.545 93.0329 625.578 93.3728 625.645 93.7071C625.712 94.0303 625.823 94.3256 625.979 94.593C626.146 94.8493 626.364 95.0555 626.631 95.2115C626.898 95.3675 627.233 95.4455 627.634 95.4455C628.035 95.4455 628.369 95.3675 628.637 95.2115C628.915 95.0555 629.133 94.8493 629.289 94.593C629.456 94.3256 629.573 94.0303 629.64 93.7071C629.707 93.3728 629.74 93.0329 629.74 92.6875C629.74 92.3421 629.707 92.0022 629.64 91.6679C629.573 91.3336 629.456 91.0383 629.289 90.782C629.133 90.5257 628.915 90.3195 628.637 90.1635C628.369 89.9964 628.035 89.9128 627.634 89.9128C627.233 89.9128 626.898 89.9964 626.631 90.1635C626.364 90.3195 626.146 90.5257 625.979 90.782C625.823 91.0383 625.712 91.3336 625.645 91.6679C625.578 92.0022 625.545 92.3421 625.545 92.6875ZM623.171 92.6875C623.171 91.9966 623.277 91.3726 623.489 90.8154C623.7 90.2471 624.001 89.7679 624.391 89.3779C624.781 88.9767 625.249 88.6703 625.795 88.4586C626.341 88.2357 626.954 88.1243 627.634 88.1243C628.314 88.1243 628.927 88.2357 629.473 88.4586C630.03 88.6703 630.503 88.9767 630.893 89.3779C631.283 89.7679 631.584 90.2471 631.796 90.8154C632.008 91.3726 632.114 91.9966 632.114 92.6875C632.114 93.3784 632.008 94.0024 631.796 94.5596C631.584 95.1168 631.283 95.5959 630.893 95.9971C630.503 96.3871 630.03 96.688 629.473 96.8997C628.927 97.1114 628.314 97.2173 627.634 97.2173C626.954 97.2173 626.341 97.1114 625.795 96.8997C625.249 96.688 624.781 96.3871 624.391 95.9971C624.001 95.5959 623.7 95.1168 623.489 94.5596C623.277 94.0024 623.171 93.3784 623.171 92.6875Z" fill="white"/>
<path d="M633.657 88.3583H635.913V89.5618H635.964C636.264 89.0603 636.654 88.6982 637.134 88.4753C637.613 88.2413 638.103 88.1243 638.605 88.1243C639.24 88.1243 639.758 88.2134 640.159 88.3917C640.571 88.5589 640.895 88.7985 641.129 89.1105C641.363 89.4113 641.524 89.7846 641.613 90.2304C641.714 90.665 641.764 91.1497 641.764 91.6846V97H639.39V92.1192C639.39 91.406 639.279 90.8767 639.056 90.5313C638.833 90.1747 638.437 89.9964 637.869 89.9964C637.223 89.9964 636.755 90.1914 636.465 90.5814C636.175 90.9603 636.03 91.5899 636.03 92.4702V97H633.657V88.3583Z" fill="white"/>
<path d="M650.323 92.6875C650.323 93.0329 650.357 93.3728 650.424 93.7071C650.491 94.0303 650.602 94.3256 650.758 94.593C650.925 94.8493 651.142 95.0555 651.41 95.2115C651.677 95.3675 652.012 95.4455 652.413 95.4455C652.814 95.4455 653.148 95.3675 653.416 95.2115C653.694 95.0555 653.912 94.8493 654.068 94.593C654.235 94.3256 654.352 94.0303 654.419 93.7071C654.485 93.3728 654.519 93.0329 654.519 92.6875C654.519 92.3421 654.485 92.0022 654.419 91.6679C654.352 91.3336 654.235 91.0383 654.068 90.782C653.912 90.5257 653.694 90.3195 653.416 90.1635C653.148 89.9964 652.814 89.9128 652.413 89.9128C652.012 89.9128 651.677 89.9964 651.41 90.1635C651.142 90.3195 650.925 90.5257 650.758 90.782C650.602 91.0383 650.491 91.3336 650.424 91.6679C650.357 92.0022 650.323 92.3421 650.323 92.6875ZM647.95 92.6875C647.95 91.9966 648.056 91.3726 648.267 90.8154C648.479 90.2471 648.78 89.7679 649.17 89.3779C649.56 88.9767 650.028 88.6703 650.574 88.4586C651.12 88.2357 651.733 88.1243 652.413 88.1243C653.093 88.1243 653.705 88.2357 654.251 88.4586C654.809 88.6703 655.282 88.9767 655.672 89.3779C656.062 89.7679 656.363 90.2471 656.575 90.8154C656.787 91.3726 656.892 91.9966 656.892 92.6875C656.892 93.3784 656.787 94.0024 656.575 94.5596C656.363 95.1168 656.062 95.5959 655.672 95.9971C655.282 96.3871 654.809 96.688 654.251 96.8997C653.705 97.1114 653.093 97.2173 652.413 97.2173C651.733 97.2173 651.12 97.1114 650.574 96.8997C650.028 96.688 649.56 96.3871 649.17 95.9971C648.78 95.5959 648.479 95.1168 648.267 94.5596C648.056 94.0024 647.95 93.3784 647.95 92.6875Z" fill="white"/>
<path d="M658.436 88.3583H660.692V89.5618H660.742C661.043 89.0603 661.433 88.6982 661.912 88.4753C662.392 88.2413 662.882 88.1243 663.383 88.1243C664.019 88.1243 664.537 88.2134 664.938 88.3917C665.35 88.5589 665.673 88.7985 665.907 89.1105C666.141 89.4113 666.303 89.7846 666.392 90.2304C666.492 90.665 666.543 91.1497 666.543 91.6846V97H664.169V92.1192C664.169 91.406 664.058 90.8767 663.835 90.5313C663.612 90.1747 663.216 89.9964 662.648 89.9964C662.002 89.9964 661.534 90.1914 661.244 90.5814C660.954 90.9603 660.809 91.5899 660.809 92.4702V97H658.436V88.3583Z" fill="white"/>
<path d="M668.411 85.0654H670.784V97H668.411V85.0654Z" fill="white"/>
<path d="M676.916 98.0698C676.659 98.7718 676.303 99.2733 675.846 99.5741C675.389 99.875 674.754 100.025 673.94 100.025C673.695 100.025 673.45 100.014 673.205 99.992C672.971 99.9809 672.731 99.9642 672.486 99.9419V97.9862C672.709 98.0085 672.938 98.0308 673.172 98.0531C673.406 98.0753 673.64 98.0809 673.874 98.0698C674.186 98.0363 674.414 97.9138 674.559 97.702C674.715 97.4903 674.793 97.2563 674.793 97C674.793 96.8106 674.759 96.6323 674.693 96.4651L671.667 88.3583H674.191L676.147 94.2754H676.18L678.069 88.3583H680.526L676.916 98.0698Z" fill="white"/>
</svg>
