<svg width="424" height="432" viewBox="0 0 424 432" fill="none" xmlns="http://www.w3.org/2000/svg">
<path d="M112.198 429H70.7578L71.3178 343.32H0.757812V318.12L49.4778 3.39997H112.198V306.36H135.158V343.32H112.198V429ZM37.1578 306.36H71.8778L74.1178 43.16L37.1578 306.36Z" fill="#F4F4F4"/>
<path d="M147.478 216.2C147.478 30.28 170.438 0.599976 211.318 0.599976C252.758 0.599976 275.158 30.28 275.158 216.2C275.158 402.68 252.758 431.8 211.318 431.8C170.438 431.8 147.478 402.68 147.478 216.2ZM230.358 216.2C230.358 65.56 224.758 37 211.318 37C198.998 37 192.278 65.56 192.278 216.2C192.278 366.84 198.998 395.96 211.318 395.96C224.758 395.96 230.358 366.84 230.358 216.2Z" fill="#F4F4F4"/>
<path d="M400.401 429H358.961L359.521 343.32H288.961V318.12L337.681 3.39997H400.401V306.36H423.361V343.32H400.401V429ZM325.361 306.36H360.081L362.321 43.16L325.361 306.36Z" fill="#F4F4F4"/>
</svg>
