<svg width="340" height="241" viewBox="0 0 340 241" fill="none" xmlns="http://www.w3.org/2000/svg">
<path d="M8.56793 0.919922C13.3919 0.919922 16.7039 3.65592 16.7039 14.2399V19.1359H10.2239V14.5999C10.2239 8.98392 9.64793 6.82392 8.71193 6.82392C7.99193 6.82392 7.41593 8.33592 7.41593 10.5679C7.41593 23.4559 16.8479 32.5279 16.8479 46.2079C16.8479 51.6079 14.3279 56.3599 8.85593 56.3599C4.03193 56.3599 0.719928 53.6239 0.719928 43.0399V38.8639H7.19993V42.6799C7.19993 48.2959 7.77593 50.4559 8.71193 50.4559C9.64793 50.4559 10.0079 48.5119 10.0079 46.5679C10.0079 34.7599 0.575928 25.9039 0.575928 10.9279C0.575928 5.23992 3.81593 0.919922 8.56793 0.919922Z" fill="white"/>
<path d="M31.6934 49.5199V55.9999H19.0214V1.27992H31.6934V7.75992H26.1494V23.9599H30.9734V30.7999H26.1494V49.5199H31.6934Z" fill="white"/>
<path d="M33.8574 55.9999V1.27992H39.9054C48.1134 1.27992 51.3534 5.59992 51.3534 16.9039C51.3534 27.6319 48.4014 32.0959 40.9854 32.5279V55.9999H33.8574ZM44.1534 16.9039C44.1534 8.91192 43.1454 7.75992 40.9854 7.75992V26.0479C43.1454 26.0479 44.1534 24.8239 44.1534 16.9039Z" fill="white"/>
<path d="M76.3374 13.1599C76.3374 25.6159 68.2734 33.1759 66.9774 49.5199H75.4014V55.9999H59.9934V53.8399C59.9934 33.3199 69.4974 25.6159 69.4974 13.5199C69.4974 9.05592 68.8494 6.82392 67.9854 6.82392C67.1214 6.82392 66.4734 8.98392 66.4734 14.5999V19.1359H59.9934V14.2399C59.9934 4.73593 62.8734 0.919922 68.3454 0.919922C73.4574 0.919922 76.3374 4.59192 76.3374 13.1599Z" fill="white"/>
<path d="M93.9155 13.1599C93.9155 25.6159 85.8515 33.1759 84.5555 49.5199H92.9795V55.9999H77.5715V53.8399C77.5715 33.3199 87.0755 25.6159 87.0755 13.5199C87.0755 9.05592 86.4275 6.82392 85.5635 6.82392C84.6995 6.82392 84.0515 8.98392 84.0515 14.5999V19.1359H77.5715V14.2399C77.5715 4.73593 80.4515 0.919922 85.9235 0.919922C91.0355 0.919922 93.9155 4.59192 93.9155 13.1599Z" fill="white"/>
<path d="M96.0136 34.7599V27.5599H109.118V34.7599H96.0136Z" fill="white"/>
<path d="M107.936 34.7599V27.5599H121.04V34.7599H107.936Z" fill="white"/>
<path d="M139.658 13.1599C139.658 25.6159 131.594 33.1759 130.298 49.5199H138.722V55.9999H123.314V53.8399C123.314 33.3199 132.818 25.6159 132.818 13.5199C132.818 9.05592 132.17 6.82392 131.306 6.82392C130.442 6.82392 129.794 8.98392 129.794 14.5999V19.1359H123.314V14.2399C123.314 4.73593 126.194 0.919922 131.666 0.919922C136.778 0.919922 139.658 4.59192 139.658 13.1599Z" fill="white"/>
<path d="M154.192 55.9999H147.352L147.496 45.7039H138.352V41.7439L143.968 1.27992H154.192V39.5839H157.072V45.7039H154.192V55.9999ZM144.328 39.5839H147.568L148 8.76792L144.328 39.5839Z" fill="white"/>
<path d="M99.44 12.9998H98.512V0.839844H100.912V1.70384H99.44V6.50384H100.752V7.39984H99.44V12.9998Z" fill="white"/>
<path d="M102.568 7.30384H102.424V12.9998H101.496V0.839844H102.568C104.136 0.839844 104.808 1.67184 104.808 4.11984C104.808 5.67184 104.472 6.45584 103.896 6.87184L104.776 12.9998H103.864L103.096 7.27184C102.936 7.28784 102.76 7.30384 102.568 7.30384ZM102.728 1.70384H102.424V6.51984H102.728C103.464 6.51984 103.864 6.07184 103.864 4.11984C103.864 2.13584 103.464 1.70384 102.728 1.70384Z" fill="white"/>
<path d="M106.518 12.9998H105.574V0.839844H106.518V12.9998Z" fill="white"/>
<path d="M161.712 0.759766C162.624 0.759766 163.248 1.43177 163.248 4.02377V4.64777H162.384V4.05577C162.384 2.16777 162.112 1.55977 161.728 1.55977C161.424 1.55977 161.152 2.07177 161.152 2.82377C161.152 6.08777 163.28 7.49577 163.28 10.9518C163.28 12.0878 162.832 13.0798 161.824 13.0798C160.912 13.0798 160.272 12.4238 160.272 9.83177V9.36777H161.136V9.79977C161.136 11.6878 161.408 12.2958 161.808 12.2958C162.208 12.2958 162.368 11.6398 162.368 10.9998C162.368 7.81577 160.24 6.39177 160.24 2.87177C160.24 1.67177 160.832 0.759766 161.712 0.759766Z" fill="white"/>
<path d="M163.979 9.01577V0.839766H164.923V8.55177C164.923 11.6078 165.179 12.2958 165.643 12.2958C166.123 12.2958 166.379 11.6078 166.379 8.55177V0.839766H167.307V9.01577C167.307 12.2158 166.811 13.0798 165.643 13.0798C164.491 13.0798 163.979 12.2158 163.979 9.01577Z" fill="white"/>
<path d="M169.606 0.839766L171.222 11.0958L171.318 12.4238V11.0958L171.206 0.839766H172.086V12.9998H170.758L169.142 2.75977L169.03 1.43177V2.75977L169.158 12.9998H168.278V0.839766H169.606Z" fill="white"/>
<path d="M205.214 41L204.708 40.494L208.074 37.084L204.697 33.685L205.203 33.168L208.591 36.567L211.99 33.179L212.496 33.685L209.108 37.084L212.474 40.505L211.968 41.011L208.591 37.601L205.214 41ZM205.137 37.755C204.961 37.755 204.818 37.7073 204.708 37.612C204.598 37.5093 204.543 37.3443 204.543 37.117C204.543 36.8896 204.598 36.7246 204.708 36.622C204.818 36.5193 204.961 36.468 205.137 36.468C205.32 36.468 205.467 36.5193 205.577 36.622C205.687 36.7246 205.742 36.8896 205.742 37.117C205.742 37.3443 205.687 37.5093 205.577 37.612C205.467 37.7073 205.32 37.755 205.137 37.755ZM208.547 41.165C208.415 41.165 208.305 41.1356 208.217 41.077C208.129 41.0256 208.063 40.9523 208.019 40.857C207.982 40.7616 207.964 40.6443 207.964 40.505C207.964 40.373 207.982 40.2593 208.019 40.164C208.063 40.0613 208.129 39.9843 208.217 39.933C208.305 39.8816 208.415 39.856 208.547 39.856C208.686 39.856 208.8 39.8816 208.888 39.933C208.976 39.9843 209.042 40.0613 209.086 40.164C209.13 40.2593 209.152 40.373 209.152 40.505C209.152 40.6443 209.13 40.7616 209.086 40.857C209.042 40.9523 208.976 41.0256 208.888 41.077C208.8 41.1356 208.686 41.165 208.547 41.165ZM208.547 34.334C208.415 34.334 208.305 34.3083 208.217 34.257C208.129 34.1983 208.063 34.1213 208.019 34.026C207.982 33.9233 207.964 33.806 207.964 33.674C207.964 33.542 207.982 33.4283 208.019 33.333C208.063 33.2303 208.129 33.1533 208.217 33.102C208.305 33.0506 208.415 33.025 208.547 33.025C208.686 33.025 208.8 33.0506 208.888 33.102C208.976 33.1533 209.042 33.2303 209.086 33.333C209.13 33.4283 209.152 33.542 209.152 33.674C209.152 33.806 209.13 33.9233 209.086 34.026C209.042 34.1213 208.976 34.1983 208.888 34.257C208.8 34.3083 208.686 34.334 208.547 34.334ZM212.045 37.755C211.869 37.755 211.726 37.7073 211.616 37.612C211.506 37.5093 211.451 37.3443 211.451 37.117C211.451 36.8896 211.506 36.7246 211.616 36.622C211.726 36.5193 211.869 36.468 212.045 36.468C212.228 36.468 212.375 36.5193 212.485 36.622C212.595 36.7246 212.65 36.8896 212.65 37.117C212.65 37.3443 212.595 37.5093 212.485 37.612C212.375 37.7073 212.228 37.755 212.045 37.755Z" fill="white"/>
<path d="M213.584 41C213.617 40.043 213.925 39.394 214.42 38.833C215.08 38.096 216.015 37.546 216.785 37.04C217.511 36.578 217.94 36.204 217.94 35.489C217.94 34.708 217.434 34.18 216.598 34.18C216.136 34.18 215.795 34.323 215.553 34.598C215.278 34.895 215.157 35.313 215.157 35.874H213.738C213.738 35.038 213.947 34.444 214.354 33.938C214.827 33.355 215.63 33.003 216.675 33.003C218.391 33.003 219.414 34.059 219.414 35.456C219.414 36.611 218.754 37.161 217.896 37.733C217.082 38.36 215.949 38.899 215.476 39.691V39.746H219.348V41H213.584Z" fill="white"/>
<path d="M223.621 41.187C221.652 41.187 220.376 39.581 220.376 37.084C220.376 34.576 221.685 32.992 223.632 32.992C225.612 32.992 226.888 34.554 226.888 37.084C226.888 39.581 225.645 41.187 223.621 41.187ZM223.632 39.999C224.875 39.999 225.392 38.866 225.392 37.084C225.392 35.324 224.853 34.158 223.632 34.158C222.422 34.158 221.872 35.313 221.872 37.084C221.872 38.844 222.422 39.999 223.632 39.999Z" fill="white"/>
<path d="M227.646 41C227.679 40.043 227.987 39.394 228.482 38.833C229.142 38.096 230.077 37.546 230.847 37.04C231.573 36.578 232.002 36.204 232.002 35.489C232.002 34.708 231.496 34.18 230.66 34.18C230.198 34.18 229.857 34.323 229.615 34.598C229.34 34.895 229.219 35.313 229.219 35.874H227.8C227.8 35.038 228.009 34.444 228.416 33.938C228.889 33.355 229.692 33.003 230.737 33.003C232.453 33.003 233.476 34.059 233.476 35.456C233.476 36.611 232.816 37.161 231.958 37.733C231.144 38.36 230.011 38.899 229.538 39.691V39.746H233.41V41H227.646Z" fill="white"/>
<path d="M237.408 41.187C236.451 41.187 235.692 40.945 235.12 40.494C234.526 40.01 234.196 39.284 234.185 38.437H235.571C235.615 39.383 236.209 40.032 237.353 40.032C238.288 40.032 238.893 39.559 238.893 38.668C238.893 37.832 238.277 37.403 237.199 37.403H236.715V36.358H237.166C238.145 36.358 238.684 35.94 238.684 35.225C238.684 34.521 238.112 34.092 237.331 34.092C236.341 34.092 235.824 34.741 235.802 35.522H234.427C234.449 34.07 235.516 32.992 237.364 32.992C238.937 32.992 240.114 33.806 240.114 35.17C240.114 36.017 239.586 36.512 238.794 36.776V36.798C239.828 37.084 240.367 37.744 240.367 38.778C240.367 40.373 239.025 41.187 237.408 41.187Z" fill="white"/>
<path d="M240.49 42.474L244.307 32.376H245.627L241.81 42.474H240.49Z" fill="white"/>
<path d="M248.761 41.187C247.144 41.187 246.077 40.252 245.934 39.097H247.353C247.452 39.592 247.892 40.087 248.728 40.087C249.278 40.087 249.685 39.9 249.982 39.493C250.312 39.075 250.477 38.393 250.521 37.425H250.499C250.015 38.052 249.366 38.437 248.497 38.437C246.979 38.437 245.758 37.293 245.758 35.72C245.758 34.158 247.001 32.992 248.706 32.992C249.553 32.992 250.246 33.256 250.752 33.685C251.566 34.356 251.885 35.456 251.885 37.073C251.885 38.514 251.599 39.669 250.895 40.373C250.389 40.901 249.674 41.187 248.761 41.187ZM248.728 37.326C249.718 37.326 250.378 36.666 250.378 35.709C250.378 34.763 249.663 34.103 248.739 34.103C247.782 34.103 247.122 34.774 247.122 35.709C247.122 36.644 247.793 37.326 248.728 37.326Z" fill="white"/>
<path d="M251.747 42.474L255.564 32.376H256.884L253.067 42.474H251.747Z" fill="white"/>
<path d="M256.961 41C256.994 40.043 257.302 39.394 257.797 38.833C258.457 38.096 259.392 37.546 260.162 37.04C260.888 36.578 261.317 36.204 261.317 35.489C261.317 34.708 260.811 34.18 259.975 34.18C259.513 34.18 259.172 34.323 258.93 34.598C258.655 34.895 258.534 35.313 258.534 35.874H257.115C257.115 35.038 257.324 34.444 257.731 33.938C258.204 33.355 259.007 33.003 260.052 33.003C261.768 33.003 262.791 34.059 262.791 35.456C262.791 36.611 262.131 37.161 261.273 37.733C260.459 38.36 259.326 38.899 258.853 39.691V39.746H262.725V41H256.961Z" fill="white"/>
<path d="M265.49 41V35.643H263.675V34.675C264.753 34.642 265.633 34.213 265.809 33.102H266.942V41H265.49Z" fill="white"/>
<path d="M270.385 42.474C269.406 41.187 268.625 39.504 268.625 37.403C268.625 35.324 269.428 33.542 270.385 32.376H271.529C270.715 33.685 270.121 35.335 270.121 37.403C270.121 39.449 270.693 41.044 271.529 42.474H270.385Z" fill="white"/>
<path d="M272.106 34.125V32.816H278.75V34.125H276.187V41H274.658V34.125H272.106Z" fill="white"/>
<path d="M281.094 35.016C281.094 35.181 281.083 35.632 281.072 35.973H281.105C281.501 35.346 282.095 34.972 282.92 34.972C284.185 34.972 284.944 35.753 284.944 37.018V41H283.547V37.249C283.547 36.556 283.14 36.127 282.425 36.127C281.644 36.127 281.094 36.721 281.094 37.557V41H279.697V32.816H281.094V35.016Z" fill="white"/>
<path d="M291.312 41H289.959V40.164H289.937C289.508 40.802 288.991 41.154 288.166 41.154C286.879 41.154 286.131 40.351 286.131 39.086V35.126H287.528V38.888C287.528 39.581 287.924 39.988 288.628 39.988C289.42 39.988 289.926 39.383 289.926 38.569V35.126H291.312V41Z" fill="white"/>
<path d="M292.159 42.474C293.006 41.044 293.589 39.449 293.589 37.403C293.589 35.335 292.995 33.685 292.159 32.376H293.314C294.271 33.542 295.074 35.324 295.074 37.403C295.074 39.504 294.293 41.187 293.314 42.474H292.159Z" fill="white"/>
<path d="M299.38 41V32.816H302.922C303.846 32.816 304.55 33.091 305.001 33.586C305.441 34.059 305.694 34.653 305.694 35.379C305.694 36.919 304.715 37.92 302.988 37.92H300.92V41H299.38ZM300.92 34.125V36.699H302.746C303.681 36.699 304.165 36.193 304.165 35.401C304.165 34.576 303.659 34.125 302.768 34.125H300.92Z" fill="white"/>
<path d="M307.949 35.126V36.182H307.982C308.356 35.423 308.917 35.038 309.665 35.038C309.83 35.038 309.94 35.049 310.039 35.093V36.347H309.995C309.863 36.314 309.753 36.303 309.61 36.303C308.686 36.292 307.993 36.919 307.993 38.052V41H306.596V35.126H307.949Z" fill="white"/>
<path d="M313.491 41.176C311.621 41.176 310.499 39.812 310.499 38.074C310.499 36.325 311.676 34.972 313.414 34.972C314.272 34.972 314.943 35.269 315.438 35.797C316.01 36.402 316.285 37.326 316.274 38.415H311.885C311.984 39.427 312.523 40.109 313.502 40.109C314.173 40.109 314.613 39.823 314.8 39.339H316.164C315.878 40.395 314.932 41.176 313.491 41.176ZM313.414 35.984C312.501 35.984 312.028 36.611 311.907 37.535H314.833C314.778 36.567 314.261 35.984 313.414 35.984Z" fill="white"/>
<path d="M318.543 41L316.508 35.126H317.971L318.829 37.865C319.082 38.657 319.324 39.834 319.324 39.834H319.357C319.357 39.834 319.588 38.657 319.841 37.865L320.732 35.126H322.151L320.072 41H318.543Z" fill="white"/>
<path d="M322.827 34.169V32.816H324.257V34.169H322.827ZM322.849 41V35.126H324.246V41H322.849Z" fill="white"/>
<path d="M328.208 41.176C326.338 41.176 325.216 39.812 325.216 38.074C325.216 36.325 326.393 34.972 328.131 34.972C328.989 34.972 329.66 35.269 330.155 35.797C330.727 36.402 331.002 37.326 330.991 38.415H326.602C326.701 39.427 327.24 40.109 328.219 40.109C328.89 40.109 329.33 39.823 329.517 39.339H330.881C330.595 40.395 329.649 41.176 328.208 41.176ZM328.131 35.984C327.218 35.984 326.745 36.611 326.624 37.535H329.55C329.495 36.567 328.978 35.984 328.131 35.984Z" fill="white"/>
<path d="M333.095 41L331.258 35.126H332.71L333.469 37.865C333.656 38.547 333.832 39.636 333.832 39.636H333.854C333.854 39.636 334.041 38.569 334.239 37.865L334.965 35.126H336.197L336.945 37.865C337.121 38.536 337.319 39.647 337.319 39.647H337.341C337.341 39.647 337.506 38.58 337.715 37.865L338.496 35.126H339.904L338.034 41H336.692L335.955 38.206C335.801 37.59 335.592 36.479 335.592 36.479H335.57C335.57 36.479 335.35 37.59 335.196 38.206L334.437 41H333.095Z" fill="white"/>
<path d="M249.309 49.622L248.627 49.138L249.441 47.994L248.154 47.576L248.462 46.817L249.694 47.224V45.816H250.574V47.224L251.795 46.817L252.081 47.576L250.816 47.994L251.641 49.138L250.959 49.622L250.145 48.412L249.309 49.622Z" fill="white"/>
<path d="M256.397 54.187C255.616 54.187 254.945 53.846 254.593 53.153H254.56V54H253.207V45.816H254.604V47.752C254.604 48.214 254.582 48.687 254.56 48.995H254.593C254.978 48.379 255.572 47.972 256.408 47.972C257.915 47.972 258.927 49.204 258.927 51.074C258.927 52.988 257.959 54.187 256.397 54.187ZM256.1 53.043C257.035 53.043 257.508 52.24 257.508 51.063C257.508 49.908 257.035 49.061 256.1 49.061C255.033 49.061 254.549 49.952 254.549 51.074C254.549 52.218 255.088 53.043 256.1 53.043Z" fill="white"/>
<path d="M260.751 56.002C260.575 56.002 259.827 55.969 259.728 55.936V54.803H259.805C259.86 54.836 260.245 54.858 260.388 54.858C260.861 54.858 261.125 54.682 261.246 54.209C261.246 54.099 261.301 53.549 261.18 53.23L259.156 48.126H260.641L261.609 50.854C261.862 51.58 262.104 52.68 262.104 52.68H262.126C262.126 52.68 262.39 51.569 262.632 50.854L263.567 48.126H264.975L262.698 54.33C262.214 55.628 261.708 56.002 260.751 56.002Z" fill="white"/>
<path d="M268.428 47.169V45.816H269.858V47.169H268.428ZM268.45 54V48.126H269.847V54H268.45Z" fill="white"/>
<path d="M272.478 48.126V48.984H272.511C272.896 48.335 273.512 47.972 274.337 47.972C275.602 47.972 276.361 48.753 276.361 50.018V54H274.964V50.249C274.964 49.556 274.557 49.127 273.842 49.127C273.061 49.127 272.511 49.721 272.511 50.557V54H271.114V48.126H272.478Z" fill="white"/>
<path d="M278.937 54L276.902 48.126H278.365L279.223 50.865C279.476 51.657 279.718 52.834 279.718 52.834H279.751C279.751 52.834 279.982 51.657 280.235 50.865L281.126 48.126H282.545L280.466 54H278.937Z" fill="white"/>
<path d="M283.22 47.169V45.816H284.65V47.169H283.22ZM283.242 54V48.126H284.639V54H283.242Z" fill="white"/>
<path d="M285.554 49.083V48.126H286.456V46.256H287.831V48.126H289.008V49.083H287.831V52.372C287.831 52.801 288.062 52.922 288.458 52.922C288.601 52.922 288.799 52.9 288.909 52.878H288.975V53.967C288.744 54.011 288.425 54.055 288.051 54.055C287.105 54.055 286.456 53.714 286.456 52.68V49.083H285.554Z" fill="white"/>
<path d="M293.848 54C293.749 53.868 293.672 53.637 293.65 53.241H293.628C293.243 53.758 292.715 54.143 291.78 54.143C290.636 54.143 289.778 53.549 289.778 52.405C289.778 51.074 290.79 50.755 292.187 50.59C293.155 50.469 293.639 50.315 293.639 49.787C293.639 49.281 293.287 48.94 292.583 48.94C291.802 48.94 291.417 49.303 291.384 49.886H290.064C290.108 48.885 290.9 47.972 292.572 47.972C293.243 47.972 293.76 48.071 294.145 48.313C294.695 48.643 294.981 49.204 294.981 49.985V53.076C294.981 53.56 295.069 53.813 295.201 53.901V54H293.848ZM292.187 53.186C293.144 53.186 293.672 52.526 293.672 51.866V50.997C293.397 51.173 292.957 51.294 292.528 51.382C291.67 51.547 291.175 51.723 291.175 52.372C291.175 52.999 291.648 53.186 292.187 53.186Z" fill="white"/>
<path d="M295.813 49.083V48.126H296.715V46.256H298.09V48.126H299.267V49.083H298.09V52.372C298.09 52.801 298.321 52.922 298.717 52.922C298.86 52.922 299.058 52.9 299.168 52.878H299.234V53.967C299.003 54.011 298.684 54.055 298.31 54.055C297.364 54.055 296.715 53.714 296.715 52.68V49.083H295.813Z" fill="white"/>
<path d="M300.225 47.169V45.816H301.655V47.169H300.225ZM300.247 54V48.126H301.644V54H300.247Z" fill="white"/>
<path d="M305.617 54.176C303.791 54.176 302.614 52.812 302.614 51.074C302.614 49.325 303.791 47.972 305.617 47.972C307.443 47.972 308.598 49.325 308.598 51.074C308.598 52.812 307.443 54.176 305.617 54.176ZM305.606 53.12C306.629 53.12 307.179 52.251 307.179 51.074C307.179 49.886 306.629 49.006 305.606 49.006C304.572 49.006 304.033 49.886 304.033 51.074C304.033 52.251 304.572 53.12 305.606 53.12Z" fill="white"/>
<path d="M310.946 48.126V48.984H310.979C311.364 48.335 311.98 47.972 312.805 47.972C314.07 47.972 314.829 48.753 314.829 50.018V54H313.432V50.249C313.432 49.556 313.025 49.127 312.31 49.127C311.529 49.127 310.979 49.721 310.979 50.557V54H309.582V48.126H310.946Z" fill="white"/>
<path d="M321.548 54.176C319.722 54.176 318.545 52.812 318.545 51.074C318.545 49.325 319.722 47.972 321.548 47.972C323.374 47.972 324.529 49.325 324.529 51.074C324.529 52.812 323.374 54.176 321.548 54.176ZM321.537 53.12C322.56 53.12 323.11 52.251 323.11 51.074C323.11 49.886 322.56 49.006 321.537 49.006C320.503 49.006 319.964 49.886 319.964 51.074C319.964 52.251 320.503 53.12 321.537 53.12Z" fill="white"/>
<path d="M326.877 48.126V48.984H326.91C327.295 48.335 327.911 47.972 328.736 47.972C330.001 47.972 330.76 48.753 330.76 50.018V54H329.363V50.249C329.363 49.556 328.956 49.127 328.241 49.127C327.46 49.127 326.91 49.721 326.91 50.557V54H325.513V48.126H326.877Z" fill="white"/>
<path d="M332.012 54V45.816H333.42V54H332.012Z" fill="white"/>
<path d="M335.72 56.002C335.544 56.002 334.796 55.969 334.697 55.936V54.803H334.774C334.829 54.836 335.214 54.858 335.357 54.858C335.83 54.858 336.094 54.682 336.215 54.209C336.215 54.099 336.27 53.549 336.149 53.23L334.125 48.126H335.61L336.578 50.854C336.831 51.58 337.073 52.68 337.073 52.68H337.095C337.095 52.68 337.359 51.569 337.601 50.854L338.536 48.126H339.944L337.667 54.33C337.183 55.628 336.677 56.002 335.72 56.002Z" fill="white"/>
<path d="M11.592 69.2799L12.672 90.4479L13.176 98.7999L13.68 90.4479L14.76 69.2799H24.768V124H18.216L18.576 86.4159V74.0319L17.568 86.4159L15.984 106.936H10.368L8.78398 86.4159L7.77598 74.0319V86.4159L8.13598 124H1.58398V69.2799H11.592Z" fill="black"/>
<path d="M30.6152 69.2799H40.8392L44.7272 124H37.5272L37.2392 114.424H33.9992L33.6392 124H26.7272L30.6152 69.2799ZM35.1512 83.4639L34.2152 107.944H36.9512L36.1592 83.4639L35.6552 75.6159L35.1512 83.4639Z" fill="black"/>
<path d="M46.6543 69.2799H52.7023C60.8383 69.2799 64.1503 73.5279 64.1503 84.5439C64.1503 90.3759 62.9263 93.7599 60.5503 95.9199L64.1503 124H57.3103L54.6463 99.0159C54.3583 99.0159 54.0703 99.0159 53.7823 99.0879V124H46.6543V69.2799ZM56.9503 84.5439C56.9503 76.8399 55.8703 75.7599 53.7823 75.7599V93.3279C55.9423 93.3279 56.9503 92.1039 56.9503 84.5439Z" fill="black"/>
<path d="M73.7544 124H66.4824V69.2799H73.7544V124Z" fill="black"/>
<path d="M86.8967 69.2799L89.7767 106.864L90.7847 119.248V106.864L90.0647 69.2799H96.6167V124H86.6087L83.7287 86.4159L82.7207 74.0319V86.4159L83.4407 124H76.8887V69.2799H86.8967Z" fill="black"/>
<path d="M112.483 117.52V124H99.8105V69.2799H112.483V75.7599H106.939V91.9599H111.763V98.7999H106.939V117.52H112.483Z" fill="black"/>
<path d="M131.826 69.2799L132.906 90.4479L133.41 98.7999L133.914 90.4479L134.994 69.2799H145.002V124H138.45L138.81 86.4159V74.0319L137.802 86.4159L136.218 106.936H130.602L129.018 86.4159L128.01 74.0319V86.4159L128.37 124H121.818V69.2799H131.826Z" fill="black"/>
<path d="M160.858 117.52V124H148.186V69.2799H160.858V75.7599H155.314V91.9599H160.138V98.7999H155.314V117.52H160.858Z" fill="black"/>
<path d="M170.005 68.9199C174.829 68.9199 178.141 71.6559 178.141 82.2399V87.1359H171.661V82.5999C171.661 76.9839 171.085 74.8239 170.149 74.8239C169.429 74.8239 168.853 76.3359 168.853 78.5679C168.853 91.4559 178.285 100.528 178.285 114.208C178.285 119.608 175.765 124.36 170.293 124.36C165.469 124.36 162.157 121.624 162.157 111.04V106.864H168.637V110.68C168.637 116.296 169.213 118.456 170.149 118.456C171.085 118.456 171.445 116.512 171.445 114.568C171.445 102.76 162.013 93.9039 162.013 78.9279C162.013 73.2399 165.253 68.9199 170.005 68.9199Z" fill="black"/>
<path d="M187.443 68.9199C192.267 68.9199 195.579 71.6559 195.579 82.2399V87.1359H189.099V82.5999C189.099 76.9839 188.523 74.8239 187.587 74.8239C186.867 74.8239 186.291 76.3359 186.291 78.5679C186.291 91.4559 195.723 100.528 195.723 114.208C195.723 119.608 193.203 124.36 187.731 124.36C182.907 124.36 179.595 121.624 179.595 111.04V106.864H186.075V110.68C186.075 116.296 186.651 118.456 187.587 118.456C188.523 118.456 188.883 116.512 188.883 114.568C188.883 102.76 179.451 93.9039 179.451 78.9279C179.451 73.2399 182.691 68.9199 187.443 68.9199Z" fill="black"/>
<path d="M210.568 117.52V124H197.896V69.2799H210.568V75.7599H205.024V91.9599H209.848V98.7999H205.024V117.52H210.568Z" fill="black"/>
<path d="M8.71199 182H1.58398V127.28H14.256V133.76H8.71199V151.4H13.536V158.24H8.71199V182Z" fill="black"/>
<path d="M15.921 163.28V127.28H23.049V159.68C23.049 174.224 23.553 176.456 24.633 176.456C25.713 176.456 26.217 174.224 26.217 159.68V127.28H33.345V163.28C33.345 178.616 30.825 182.36 24.633 182.36C18.441 182.36 15.921 178.616 15.921 163.28Z" fill="black"/>
<path d="M36.248 182V127.28H43.448V152.336L48.056 127.28H54.536L49.712 152.48L54.896 182H48.056L43.448 154.496V182H36.248Z" fill="black"/>
<path d="M56.421 163.28V127.28H63.549V159.68C63.549 174.224 64.053 176.456 65.133 176.456C66.213 176.456 66.717 174.224 66.717 159.68V127.28H73.845V163.28C73.845 178.616 71.325 182.36 65.133 182.36C58.941 182.36 56.421 178.616 56.421 163.28Z" fill="black"/>
<path d="M76.1 154.64C76.1 130.448 79.2681 126.92 85.1001 126.92C90.9321 126.92 94.1001 130.448 94.1001 154.64C94.1001 178.832 90.9321 182.36 85.1001 182.36C79.2681 182.36 76.1 178.832 76.1 154.64ZM86.6841 154.64C86.6841 136.208 86.3241 132.824 85.1001 132.824C83.9481 132.824 83.516 136.208 83.516 154.64C83.516 173.072 83.9481 176.456 85.1001 176.456C86.3241 176.456 86.6841 173.072 86.6841 154.64Z" fill="black"/>
<path d="M96.6465 182V127.28H103.846V152.336L108.454 127.28H114.934L110.11 152.48L115.294 182H108.454L103.846 154.496V182H96.6465Z" fill="black"/>
<path d="M119.771 127.28H129.995L133.883 182H126.683L126.395 172.424H123.155L122.795 182H115.883L119.771 127.28ZM124.307 141.464L123.371 165.944H126.107L125.315 141.464L124.811 133.616L124.307 141.464Z" fill="black"/>
<path d="M11.952 240V214.8H8.78398V240H1.58398V185.28H8.78398V207.96H11.952V185.28H19.152V240H11.952Z" fill="black"/>
<path d="M38.6702 211.632V240H32.2622L31.4702 236.976C30.3902 239.064 28.4462 240.36 26.5022 240.36C23.4062 240.36 21.3902 238.2 21.3902 228.552C21.3902 219.408 23.6222 216.384 31.4702 215.232V211.992C31.4702 205.512 30.9662 203.496 30.0302 203.496C29.1662 203.496 28.6622 205.512 28.6622 211.992H21.9662V211.632C21.9662 200.472 25.6382 197.592 30.3182 197.592C34.7102 197.592 38.6702 200.472 38.6702 211.632ZM31.4702 220.272C29.2382 220.488 28.6622 221.856 28.6622 227.76C28.6622 233.376 29.0222 234.816 30.1742 234.816C30.6062 234.816 30.8942 234.744 31.4702 234.528V220.272Z" fill="black"/>
<path d="M41.3072 240V185.28H48.5792V240H41.3072Z" fill="black"/>
<path d="M51.4322 240V185.28H58.7042V240H51.4322Z" fill="black"/>
<path d="M86.369 199.824C86.369 206.016 84.641 209.688 81.689 211.344C84.641 213.216 86.585 217.392 86.585 224.16C86.585 235.896 82.8411 240 74.9211 240H68.873V185.28H74.9211C83.0571 185.28 86.369 189.672 86.369 199.824ZM79.169 199.824C79.169 193.128 78.161 191.76 76.001 191.76V207.96C78.161 207.96 79.169 206.736 79.169 199.824ZM79.169 224.16C79.169 216.384 78.161 214.8 76.001 214.8V233.52C78.233 233.52 79.169 232.224 79.169 224.16Z" fill="black"/>
</svg>
